{"glyphs":{"0":{"ha":906,"x_min":82,"x_max":824,"o":"m 453 -4 q 259 56 343 -4 q 128 228 175 117 q 82 486 82 339 q 128 744 82 633 q 259 916 175 856 q 453 976 343 976 q 647 916 563 976 q 777 744 731 856 q 824 486 824 633 q 777 228 824 339 q 647 56 731 117 q 453 -4 563 -4 m 453 22 q 632 79 554 22 q 753 241 710 136 q 796 486 796 346 q 753 731 796 626 q 632 893 710 836 q 453 950 554 950 q 274 893 351 950 q 153 731 196 836 q 110 486 110 626 q 153 241 110 346 q 274 79 196 136 q 453 22 351 22 z "},"1":{"ha":475,"x_min":14,"x_max":290,"o":"m 290 972 l 290 0 l 264 0 l 264 946 l 14 946 l 14 972 l 290 972 z "},"2":{"ha":771,"x_min":39,"x_max":710,"o":"m 710 26 l 710 0 l 60 0 l 60 21 l 481 447 q 599 598 568 536 q 629 726 629 660 q 559 890 629 831 q 358 950 489 950 q 185 921 258 950 q 58 832 111 892 l 39 851 q 358 976 151 976 q 576 910 496 976 q 657 728 657 843 q 624 588 657 654 q 500 429 590 521 l 103 26 l 710 26 z "},"3":{"ha":761,"x_min":26,"x_max":681,"o":"m 340 538 q 594 465 507 538 q 681 267 681 392 q 597 69 681 143 q 360 -4 513 -4 q 161 34 251 -4 q 26 133 71 72 l 44 151 q 171 58 86 94 q 360 22 256 22 q 577 88 501 22 q 653 267 653 153 q 575 447 653 382 q 342 511 497 511 l 292 511 l 292 532 l 607 946 l 57 946 l 57 972 l 644 972 l 644 951 l 329 538 l 340 538 z "},"4":{"ha":894,"x_min":64,"x_max":871,"o":"m 871 289 l 654 289 l 654 0 l 626 0 l 626 289 l 64 289 l 64 310 l 611 972 l 644 972 l 101 315 l 626 315 l 626 569 l 654 569 l 654 315 l 871 315 l 871 289 z "},"5":{"ha":761,"x_min":44,"x_max":699,"o":"m 294 551 q 604 480 510 551 q 699 272 699 408 q 615 73 699 150 q 375 -4 531 -4 q 179 34 269 -4 q 44 133 89 72 l 63 151 q 189 58 104 94 q 375 22 274 22 q 595 91 519 22 q 671 272 671 160 q 583 461 671 397 q 289 525 496 525 l 106 525 l 157 972 l 650 972 l 650 946 l 181 946 l 135 551 l 294 551 z "},"6":{"ha":822,"x_min":82,"x_max":771,"o":"m 451 564 q 684 487 597 564 q 771 281 771 410 q 731 131 771 196 q 622 31 692 67 q 461 -4 551 -4 q 178 126 275 -4 q 82 486 82 256 q 133 756 82 646 q 278 921 185 865 q 496 976 371 976 q 703 931 628 976 l 689 907 q 496 950 621 950 q 213 832 317 950 q 110 489 110 714 q 129 315 110 392 q 237 497 147 431 q 451 564 326 564 m 461 22 q 608 54 544 22 q 708 145 672 86 q 743 281 743 204 q 665 467 743 397 q 451 538 586 538 q 296 503 364 538 q 190 409 228 468 q 153 278 153 350 q 188 155 153 214 q 294 59 224 96 q 461 22 364 22 z "},"7":{"ha":792,"x_min":50,"x_max":725,"o":"m 725 972 l 725 951 l 290 0 l 258 0 l 692 946 l 78 946 l 78 750 l 50 750 l 50 972 l 725 972 z "},"8":{"ha":867,"x_min":76,"x_max":790,"o":"m 539 508 q 724 424 658 489 q 790 261 790 360 q 695 67 790 138 q 432 -4 600 -4 q 170 67 264 -4 q 76 261 76 138 q 142 424 76 360 q 325 508 207 489 q 166 587 221 528 q 111 733 111 646 q 198 911 111 846 q 432 976 285 976 q 667 911 579 976 q 756 733 756 846 q 699 587 756 646 q 539 508 643 528 m 139 735 q 216 578 139 636 q 432 521 293 521 q 649 578 571 521 q 728 733 728 636 q 648 892 728 833 q 432 950 568 950 q 218 892 297 950 q 139 735 139 833 m 432 22 q 675 86 588 22 q 763 260 763 150 q 675 431 763 368 q 432 494 588 494 q 191 431 278 494 q 104 260 104 368 q 190 86 104 150 q 432 22 276 22 z "},"9":{"ha":822,"x_min":51,"x_max":740,"o":"m 361 976 q 644 847 547 976 q 740 486 740 717 q 689 217 740 326 q 544 51 638 107 q 326 -4 451 -4 q 119 42 194 -4 l 133 65 q 326 22 201 22 q 609 140 506 22 q 713 483 713 258 q 693 657 713 581 q 585 475 675 542 q 371 408 496 408 q 138 485 225 408 q 51 692 51 563 q 91 841 51 776 q 201 941 131 906 q 361 976 271 976 m 371 435 q 526 469 458 435 q 632 563 594 504 q 669 694 669 622 q 634 817 669 758 q 528 913 599 876 q 361 950 458 950 q 214 918 278 950 q 115 827 150 886 q 79 692 79 768 q 158 505 79 575 q 371 435 236 435 z "},"\u0000":{"ha":0,"x_min":0,"x_max":0,"o":""},"\r":{"ha":347,"x_min":0,"x_max":0,"o":""}," ":{"ha":347,"x_min":0,"x_max":0,"o":""},"A":{"ha":956,"x_min":13,"x_max":943,"o":"m 775 293 l 181 293 l 44 0 l 13 0 l 464 972 l 492 972 l 943 0 l 911 0 l 775 293 m 763 319 l 478 935 l 193 319 l 763 319 z "},"Á":{"ha":956,"x_min":13,"x_max":943,"o":"m 775 293 l 181 293 l 44 0 l 13 0 l 464 972 l 492 972 l 943 0 l 911 0 l 775 293 m 763 319 l 478 935 l 193 319 l 763 319 m 610 1204 l 665 1204 l 457 1051 l 415 1051 l 610 1204 z "},"Ă":{"ha":956,"x_min":13,"x_max":943,"o":"m 775 293 l 181 293 l 44 0 l 13 0 l 464 972 l 492 972 l 943 0 l 911 0 l 775 293 m 763 319 l 478 935 l 193 319 l 763 319 m 478 1047 q 349 1090 401 1047 q 294 1204 296 1133 l 321 1204 q 367 1109 322 1144 q 478 1074 411 1074 q 589 1109 544 1074 q 635 1204 633 1144 l 661 1204 q 607 1090 660 1133 q 478 1047 554 1047 z "},"Ắ":{"ha":956,"x_min":13,"x_max":943,"o":"m 775 293 l 181 293 l 44 0 l 13 0 l 464 972 l 492 972 l 943 0 l 911 0 l 775 293 m 763 319 l 478 935 l 193 319 l 763 319 m 478 1047 q 353 1078 403 1047 q 294 1163 304 1108 l 321 1163 q 372 1097 331 1119 q 478 1074 413 1074 q 584 1097 543 1074 q 635 1163 625 1119 l 661 1163 q 602 1078 651 1108 q 478 1047 553 1047 m 592 1321 l 647 1321 l 457 1182 l 415 1182 l 592 1321 z "},"Ặ":{"ha":956,"x_min":13,"x_max":943,"o":"m 775 293 l 181 293 l 44 0 l 13 0 l 464 972 l 492 972 l 943 0 l 911 0 l 775 293 m 763 319 l 478 935 l 193 319 l 763 319 m 478 -244 q 452 -234 463 -244 q 442 -208 442 -224 q 452 -183 442 -194 q 478 -172 463 -172 q 503 -183 492 -172 q 514 -208 514 -194 q 503 -234 514 -224 q 478 -244 492 -244 m 478 1047 q 349 1090 401 1047 q 294 1204 296 1133 l 321 1204 q 367 1109 322 1144 q 478 1074 411 1074 q 589 1109 544 1074 q 635 1204 633 1144 l 661 1204 q 607 1090 660 1133 q 478 1047 554 1047 z "},"Ằ":{"ha":956,"x_min":13,"x_max":943,"o":"m 775 293 l 181 293 l 44 0 l 13 0 l 464 972 l 492 972 l 943 0 l 911 0 l 775 293 m 763 319 l 478 935 l 193 319 l 763 319 m 478 1047 q 353 1078 403 1047 q 294 1163 304 1108 l 321 1163 q 372 1097 331 1119 q 478 1074 413 1074 q 584 1097 543 1074 q 635 1163 625 1119 l 661 1163 q 602 1078 651 1108 q 478 1047 553 1047 m 308 1321 l 364 1321 l 540 1182 l 499 1182 l 308 1321 z "},"Ẳ":{"ha":956,"x_min":13,"x_max":943,"o":"m 775 293 l 181 293 l 44 0 l 13 0 l 464 972 l 492 972 l 943 0 l 911 0 l 775 293 m 763 319 l 478 935 l 193 319 l 763 319 m 478 1047 q 353 1078 403 1047 q 294 1163 304 1108 l 321 1163 q 372 1097 331 1119 q 478 1074 413 1074 q 584 1097 543 1074 q 635 1163 625 1119 l 661 1163 q 602 1078 651 1108 q 478 1047 553 1047 m 468 1169 q 514 1203 497 1183 q 531 1247 531 1224 q 515 1283 531 1269 q 472 1297 499 1297 q 413 1279 439 1297 l 401 1301 q 474 1324 432 1324 q 535 1303 513 1324 q 557 1247 557 1282 q 482 1149 557 1182 l 468 1169 z "},"Ẵ":{"ha":956,"x_min":13,"x_max":943,"o":"m 775 293 l 181 293 l 44 0 l 13 0 l 464 972 l 492 972 l 943 0 l 911 0 l 775 293 m 763 319 l 478 935 l 193 319 l 763 319 m 478 1047 q 353 1078 403 1047 q 294 1163 304 1108 l 321 1163 q 372 1097 331 1119 q 478 1074 413 1074 q 584 1097 543 1074 q 635 1163 625 1119 l 661 1163 q 602 1078 651 1108 q 478 1047 553 1047 m 563 1203 q 517 1213 536 1203 q 468 1243 497 1222 q 428 1269 446 1260 q 393 1278 411 1278 q 340 1259 360 1278 q 318 1206 319 1240 l 292 1206 q 321 1277 293 1250 q 393 1304 349 1304 q 438 1294 418 1304 q 488 1264 458 1285 q 527 1238 510 1247 q 563 1229 544 1229 q 616 1247 596 1229 q 638 1299 636 1265 l 664 1299 q 635 1229 663 1256 q 563 1203 607 1203 z "},"Ǎ":{"ha":956,"x_min":13,"x_max":943,"o":"m 775 293 l 181 293 l 44 0 l 13 0 l 464 972 l 492 972 l 943 0 l 911 0 l 775 293 m 763 319 l 478 935 l 193 319 l 763 319 m 669 1204 l 500 1051 l 456 1051 l 286 1204 l 324 1204 l 478 1075 l 632 1204 l 669 1204 z "},"Â":{"ha":956,"x_min":13,"x_max":943,"o":"m 775 293 l 181 293 l 44 0 l 13 0 l 464 972 l 492 972 l 943 0 l 911 0 l 775 293 m 763 319 l 478 935 l 193 319 l 763 319 m 632 1051 l 478 1181 l 324 1051 l 286 1051 l 456 1204 l 500 1204 l 669 1051 l 632 1051 z "},"Ấ":{"ha":956,"x_min":13,"x_max":943,"o":"m 775 293 l 181 293 l 44 0 l 13 0 l 464 972 l 492 972 l 943 0 l 911 0 l 775 293 m 763 319 l 478 935 l 193 319 l 763 319 m 628 1051 l 478 1140 l 328 1051 l 286 1051 l 457 1163 l 499 1163 l 669 1051 l 628 1051 m 758 1294 l 814 1294 l 624 1156 l 582 1156 l 758 1294 z "},"Ậ":{"ha":956,"x_min":13,"x_max":943,"o":"m 775 293 l 181 293 l 44 0 l 13 0 l 464 972 l 492 972 l 943 0 l 911 0 l 775 293 m 763 319 l 478 935 l 193 319 l 763 319 m 478 -244 q 452 -234 463 -244 q 442 -208 442 -224 q 452 -183 442 -194 q 478 -172 463 -172 q 503 -183 492 -172 q 514 -208 514 -194 q 503 -234 514 -224 q 478 -244 492 -244 m 632 1051 l 478 1181 l 324 1051 l 286 1051 l 456 1204 l 500 1204 l 669 1051 l 632 1051 z "},"Ầ":{"ha":956,"x_min":13,"x_max":943,"o":"m 775 293 l 181 293 l 44 0 l 13 0 l 464 972 l 492 972 l 943 0 l 911 0 l 775 293 m 763 319 l 478 935 l 193 319 l 763 319 m 628 1051 l 478 1140 l 328 1051 l 286 1051 l 457 1163 l 499 1163 l 669 1051 l 628 1051 m 475 1294 l 531 1294 l 707 1156 l 665 1156 l 475 1294 z "},"Ẩ":{"ha":956,"x_min":13,"x_max":943,"o":"m 775 293 l 181 293 l 44 0 l 13 0 l 464 972 l 492 972 l 943 0 l 911 0 l 775 293 m 763 319 l 478 935 l 193 319 l 763 319 m 628 1051 l 478 1140 l 328 1051 l 286 1051 l 457 1163 l 499 1163 l 669 1051 l 628 1051 m 607 1157 q 653 1191 636 1171 q 669 1235 669 1211 q 653 1271 669 1257 q 611 1285 638 1285 q 551 1267 578 1285 l 540 1289 q 613 1311 571 1311 q 674 1290 651 1311 q 696 1235 696 1269 q 621 1136 696 1169 l 607 1157 z "},"Ẫ":{"ha":956,"x_min":13,"x_max":943,"o":"m 775 293 l 181 293 l 44 0 l 13 0 l 464 972 l 492 972 l 943 0 l 911 0 l 775 293 m 763 319 l 478 935 l 193 319 l 763 319 m 628 1051 l 478 1140 l 328 1051 l 286 1051 l 457 1163 l 499 1163 l 669 1051 l 628 1051 m 563 1208 q 517 1218 536 1208 q 468 1249 497 1228 q 428 1274 446 1265 q 393 1283 411 1283 q 340 1265 360 1283 q 318 1211 319 1246 l 292 1211 q 321 1283 293 1256 q 393 1310 349 1310 q 438 1300 418 1310 q 488 1269 458 1290 q 527 1244 510 1253 q 563 1235 544 1235 q 616 1253 596 1235 q 638 1304 636 1271 l 664 1304 q 635 1235 663 1261 q 563 1208 607 1208 z "},"Ȁ":{"ha":956,"x_min":13,"x_max":943,"o":"m 775 293 l 181 293 l 44 0 l 13 0 l 464 972 l 492 972 l 943 0 l 911 0 l 775 293 m 763 319 l 478 935 l 193 319 l 763 319 m 199 1204 l 246 1204 l 400 1051 l 363 1051 l 199 1204 m 392 1204 l 439 1204 l 593 1051 l 556 1051 l 392 1204 z "},"Ä":{"ha":956,"x_min":13,"x_max":943,"o":"m 775 293 l 181 293 l 44 0 l 13 0 l 464 972 l 492 972 l 943 0 l 911 0 l 775 293 m 763 319 l 478 935 l 193 319 l 763 319 m 364 1099 q 338 1110 349 1099 q 328 1135 328 1121 q 338 1160 328 1150 q 364 1171 349 1171 q 389 1160 378 1171 q 400 1135 400 1150 q 389 1110 400 1121 q 364 1099 378 1099 m 592 1099 q 566 1110 576 1099 q 556 1135 556 1121 q 566 1160 556 1150 q 592 1171 576 1171 q 617 1160 606 1171 q 628 1135 628 1150 q 617 1110 628 1121 q 592 1099 606 1099 z "},"Ạ":{"ha":956,"x_min":13,"x_max":943,"o":"m 775 293 l 181 293 l 44 0 l 13 0 l 464 972 l 492 972 l 943 0 l 911 0 l 775 293 m 763 319 l 478 935 l 193 319 l 763 319 m 478 -244 q 452 -234 463 -244 q 442 -208 442 -224 q 452 -183 442 -194 q 478 -172 463 -172 q 503 -183 492 -172 q 514 -208 514 -194 q 503 -234 514 -224 q 478 -244 492 -244 z "},"À":{"ha":956,"x_min":13,"x_max":943,"o":"m 775 293 l 181 293 l 44 0 l 13 0 l 464 972 l 492 972 l 943 0 l 911 0 l 775 293 m 763 319 l 478 935 l 193 319 l 763 319 m 290 1204 l 346 1204 l 540 1051 l 499 1051 l 290 1204 z "},"Ả":{"ha":956,"x_min":13,"x_max":943,"o":"m 775 293 l 181 293 l 44 0 l 13 0 l 464 972 l 492 972 l 943 0 l 911 0 l 775 293 m 763 319 l 478 935 l 193 319 l 763 319 m 467 1068 q 554 1175 554 1107 q 531 1228 554 1207 q 474 1250 508 1250 q 388 1224 428 1250 l 376 1247 q 421 1269 394 1261 q 472 1276 447 1276 q 552 1249 522 1276 q 582 1176 582 1222 q 557 1103 582 1135 q 481 1046 532 1071 l 467 1068 z "},"Ȃ":{"ha":956,"x_min":13,"x_max":943,"o":"m 775 293 l 181 293 l 44 0 l 13 0 l 464 972 l 492 972 l 943 0 l 911 0 l 775 293 m 763 319 l 478 935 l 193 319 l 763 319 m 294 1051 q 349 1165 296 1122 q 478 1208 401 1208 q 607 1165 554 1208 q 661 1051 660 1122 l 635 1051 q 589 1147 633 1111 q 478 1182 544 1182 q 367 1147 411 1182 q 321 1051 322 1111 l 294 1051 z "},"Ā":{"ha":956,"x_min":13,"x_max":943,"o":"m 775 293 l 181 293 l 44 0 l 13 0 l 464 972 l 492 972 l 943 0 l 911 0 l 775 293 m 763 319 l 478 935 l 193 319 l 763 319 m 289 1142 l 667 1142 l 667 1114 l 289 1114 l 289 1142 z "},"Ą":{"ha":956,"x_min":13,"x_max":968,"o":"m 775 293 l 181 293 l 44 0 l 13 0 l 464 972 l 492 972 l 943 0 l 911 0 l 775 293 m 763 319 l 478 935 l 193 319 l 763 319 m 865 -296 q 774 -265 810 -296 q 739 -181 739 -233 q 929 22 739 -62 l 943 0 q 803 -90 840 -44 q 767 -181 767 -135 q 794 -247 767 -224 q 867 -269 822 -269 q 953 -237 918 -269 l 968 -258 q 865 -296 925 -296 z "},"Å":{"ha":956,"x_min":13,"x_max":943,"o":"m 775 293 l 181 293 l 44 0 l 13 0 l 464 972 l 492 972 l 943 0 l 911 0 l 775 293 m 763 319 l 478 935 l 193 319 l 763 319 m 476 1083 q 385 1120 421 1083 q 349 1208 349 1157 q 385 1299 349 1261 q 476 1338 422 1338 q 568 1299 531 1338 q 606 1208 606 1261 q 569 1120 606 1157 q 476 1083 532 1083 m 476 1110 q 549 1138 521 1110 q 578 1208 578 1167 q 549 1281 578 1250 q 476 1311 519 1311 q 405 1281 433 1311 q 376 1208 376 1251 q 404 1138 376 1167 q 476 1110 432 1110 z "},"Ǻ":{"ha":956,"x_min":13,"x_max":943,"o":"m 775 293 l 181 293 l 44 0 l 13 0 l 464 972 l 492 972 l 943 0 l 911 0 l 775 293 m 763 319 l 478 935 l 193 319 l 763 319 m 575 1293 q 606 1208 606 1256 q 569 1120 606 1157 q 476 1083 532 1083 q 385 1120 421 1083 q 349 1208 349 1157 q 385 1299 349 1261 q 476 1338 422 1338 q 553 1313 518 1338 l 665 1418 l 689 1400 l 575 1293 m 476 1110 q 549 1138 521 1110 q 578 1208 578 1167 q 549 1281 578 1250 q 476 1311 519 1311 q 405 1281 433 1311 q 376 1208 376 1251 q 404 1138 376 1167 q 476 1110 432 1110 z "},"Ã":{"ha":956,"x_min":13,"x_max":943,"o":"m 775 293 l 181 293 l 44 0 l 13 0 l 464 972 l 492 972 l 943 0 l 911 0 l 775 293 m 763 319 l 478 935 l 193 319 l 763 319 m 565 1068 q 516 1081 538 1068 q 467 1121 494 1094 q 427 1153 444 1142 q 390 1164 410 1164 q 338 1139 357 1164 q 315 1071 318 1114 l 289 1071 q 319 1158 292 1125 q 390 1190 346 1190 q 440 1177 418 1190 q 489 1138 461 1164 q 528 1106 511 1117 q 565 1094 546 1094 q 618 1119 599 1094 q 640 1185 638 1143 l 667 1185 q 637 1100 664 1132 q 565 1068 610 1068 z "},"Æ":{"ha":1396,"x_min":13,"x_max":1300,"o":"m 1300 26 l 1300 0 l 653 0 l 653 293 l 231 293 l 44 0 l 13 0 l 631 972 l 1279 972 l 1279 946 l 681 946 l 681 507 l 1217 507 l 1217 481 l 681 481 l 681 26 l 1300 26 m 653 319 l 653 946 l 644 946 l 247 319 l 653 319 z "},"Ǽ":{"ha":1396,"x_min":13,"x_max":1300,"o":"m 1300 26 l 1300 0 l 653 0 l 653 293 l 231 293 l 44 0 l 13 0 l 631 972 l 1279 972 l 1279 946 l 681 946 l 681 507 l 1217 507 l 1217 481 l 681 481 l 681 26 l 1300 26 m 653 319 l 653 946 l 644 946 l 247 319 l 653 319 m 799 1204 l 854 1204 l 646 1051 l 604 1051 l 799 1204 z "},"B":{"ha":1039,"x_min":185,"x_max":949,"o":"m 704 499 q 949 254 949 465 q 860 65 949 131 q 597 0 772 0 l 185 0 l 185 972 l 569 972 q 809 909 722 972 q 896 726 896 846 q 845 577 896 635 q 704 499 794 519 m 213 946 l 213 507 l 575 507 q 792 563 715 507 q 868 726 868 619 q 792 890 868 833 q 575 946 715 946 l 213 946 m 603 26 q 921 254 921 26 q 841 425 921 369 q 603 481 761 481 l 213 481 l 213 26 l 603 26 z "},"C":{"ha":988,"x_min":82,"x_max":911,"o":"m 581 -4 q 326 60 440 -4 q 147 235 213 124 q 82 486 82 347 q 147 737 82 625 q 326 913 213 849 q 581 976 440 976 q 765 945 679 976 q 911 853 850 914 l 894 833 q 581 950 772 950 q 341 889 449 950 q 172 722 233 828 q 110 486 110 615 q 172 251 110 357 q 341 83 233 144 q 581 22 449 22 q 894 140 771 22 l 911 121 q 764 28 850 60 q 581 -4 678 -4 z "},"Ć":{"ha":988,"x_min":82,"x_max":911,"o":"m 581 -4 q 326 60 440 -4 q 147 235 213 124 q 82 486 82 347 q 147 737 82 625 q 326 913 213 849 q 581 976 440 976 q 765 945 679 976 q 911 853 850 914 l 894 833 q 581 950 772 950 q 341 889 449 950 q 172 722 233 828 q 110 486 110 615 q 172 251 110 357 q 341 83 233 144 q 581 22 449 22 q 894 140 771 22 l 911 121 q 764 28 850 60 q 581 -4 678 -4 m 699 1204 l 754 1204 l 546 1051 l 504 1051 l 699 1204 z "},"Č":{"ha":988,"x_min":82,"x_max":911,"o":"m 581 -4 q 326 60 440 -4 q 147 235 213 124 q 82 486 82 347 q 147 737 82 625 q 326 913 213 849 q 581 976 440 976 q 765 945 679 976 q 911 853 850 914 l 894 833 q 581 950 772 950 q 341 889 449 950 q 172 722 233 828 q 110 486 110 615 q 172 251 110 357 q 341 83 233 144 q 581 22 449 22 q 894 140 771 22 l 911 121 q 764 28 850 60 q 581 -4 678 -4 m 758 1204 l 589 1051 l 544 1051 l 375 1204 l 413 1204 l 567 1075 l 721 1204 l 758 1204 z "},"Ç":{"ha":988,"x_min":82,"x_max":911,"o":"m 581 -4 q 326 60 440 -4 q 147 235 213 124 q 82 486 82 347 q 147 737 82 625 q 326 913 213 849 q 581 976 440 976 q 765 945 679 976 q 911 853 850 914 l 894 833 q 581 950 772 950 q 341 889 449 950 q 172 722 233 828 q 110 486 110 615 q 172 251 110 357 q 341 83 233 144 q 581 22 449 22 q 894 140 771 22 l 911 121 q 764 28 850 60 q 581 -4 678 -4 m 544 -296 q 442 -258 485 -296 l 457 -237 q 543 -269 492 -269 q 615 -247 588 -269 q 643 -186 643 -225 q 617 -126 643 -149 q 544 -103 590 -103 l 522 -103 l 553 7 l 579 7 l 556 -78 q 640 -110 608 -81 q 671 -186 671 -139 q 635 -266 671 -236 q 544 -296 600 -296 z "},"Ḉ":{"ha":988,"x_min":82,"x_max":911,"o":"m 581 -4 q 326 60 440 -4 q 147 235 213 124 q 82 486 82 347 q 147 737 82 625 q 326 913 213 849 q 581 976 440 976 q 765 945 679 976 q 911 853 850 914 l 894 833 q 581 950 772 950 q 341 889 449 950 q 172 722 233 828 q 110 486 110 615 q 172 251 110 357 q 341 83 233 144 q 581 22 449 22 q 894 140 771 22 l 911 121 q 764 28 850 60 q 581 -4 678 -4 m 544 -296 q 442 -258 485 -296 l 457 -237 q 543 -269 492 -269 q 615 -247 588 -269 q 643 -186 643 -225 q 617 -126 643 -149 q 544 -103 590 -103 l 522 -103 l 553 7 l 579 7 l 556 -78 q 640 -110 608 -81 q 671 -186 671 -139 q 635 -266 671 -236 q 544 -296 600 -296 m 699 1204 l 754 1204 l 546 1051 l 504 1051 l 699 1204 z "},"Ĉ":{"ha":988,"x_min":82,"x_max":911,"o":"m 581 -4 q 326 60 440 -4 q 147 235 213 124 q 82 486 82 347 q 147 737 82 625 q 326 913 213 849 q 581 976 440 976 q 765 945 679 976 q 911 853 850 914 l 894 833 q 581 950 772 950 q 341 889 449 950 q 172 722 233 828 q 110 486 110 615 q 172 251 110 357 q 341 83 233 144 q 581 22 449 22 q 894 140 771 22 l 911 121 q 764 28 850 60 q 581 -4 678 -4 m 721 1051 l 567 1181 l 413 1051 l 375 1051 l 544 1204 l 589 1204 l 758 1051 l 721 1051 z "},"Ċ":{"ha":988,"x_min":82,"x_max":911,"o":"m 581 -4 q 326 60 440 -4 q 147 235 213 124 q 82 486 82 347 q 147 737 82 625 q 326 913 213 849 q 581 976 440 976 q 765 945 679 976 q 911 853 850 914 l 894 833 q 581 950 772 950 q 341 889 449 950 q 172 722 233 828 q 110 486 110 615 q 172 251 110 357 q 341 83 233 144 q 581 22 449 22 q 894 140 771 22 l 911 121 q 764 28 850 60 q 581 -4 678 -4 m 567 1099 q 541 1110 551 1099 q 531 1135 531 1121 q 541 1160 531 1150 q 567 1171 551 1171 q 592 1160 581 1171 q 603 1135 603 1150 q 592 1110 603 1121 q 567 1099 581 1099 z "},"D":{"ha":1147,"x_min":185,"x_max":1065,"o":"m 185 972 l 553 972 q 820 910 704 972 q 1001 736 936 847 q 1065 486 1065 625 q 1001 236 1065 347 q 820 63 936 125 q 553 0 704 0 l 185 0 l 185 972 m 550 26 q 806 85 696 26 q 977 249 917 144 q 1038 486 1038 354 q 977 723 1038 618 q 806 887 917 828 q 550 946 696 946 l 213 946 l 213 26 l 550 26 z "},"Ǆ":{"ha":2029,"x_min":185,"x_max":1960,"o":"m 185 972 l 553 972 q 820 910 704 972 q 1001 736 936 847 q 1065 486 1065 625 q 1001 236 1065 347 q 820 63 936 125 q 553 0 704 0 l 185 0 l 185 972 m 550 26 q 806 85 696 26 q 977 249 917 144 q 1038 486 1038 354 q 977 723 1038 618 q 806 887 917 828 q 550 946 696 946 l 213 946 l 213 26 l 550 26 m 1960 26 l 1960 0 l 1196 0 l 1196 21 l 1907 946 l 1203 946 l 1203 972 l 1946 972 l 1946 951 l 1235 26 l 1960 26 m 1769 1204 l 1600 1051 l 1556 1051 l 1386 1204 l 1424 1204 l 1578 1075 l 1732 1204 l 1769 1204 z "},"Ð":{"ha":1147,"x_min":28,"x_max":1065,"o":"m 185 972 l 553 972 q 820 910 704 972 q 1001 736 936 847 q 1065 486 1065 625 q 1001 236 1065 347 q 820 63 936 125 q 553 0 704 0 l 185 0 l 185 972 m 550 26 q 806 85 696 26 q 977 249 917 144 q 1038 486 1038 354 q 977 723 1038 618 q 806 887 917 828 q 550 946 696 946 l 213 946 l 213 26 l 550 26 m 28 507 l 528 507 l 528 481 l 28 481 l 28 507 z "},"Ď":{"ha":1147,"x_min":185,"x_max":1065,"o":"m 185 972 l 553 972 q 820 910 704 972 q 1001 736 936 847 q 1065 486 1065 625 q 1001 236 1065 347 q 820 63 936 125 q 553 0 704 0 l 185 0 l 185 972 m 550 26 q 806 85 696 26 q 977 249 917 144 q 1038 486 1038 354 q 977 723 1038 618 q 806 887 917 828 q 550 946 696 946 l 213 946 l 213 26 l 550 26 m 735 1203 l 565 1050 l 521 1050 l 351 1203 l 389 1203 l 543 1074 l 697 1203 l 735 1203 z "},"Đ":{"ha":1147,"x_min":28,"x_max":1065,"o":"m 185 972 l 553 972 q 820 910 704 972 q 1001 736 936 847 q 1065 486 1065 625 q 1001 236 1065 347 q 820 63 936 125 q 553 0 704 0 l 185 0 l 185 972 m 550 26 q 806 85 696 26 q 977 249 917 144 q 1038 486 1038 354 q 977 723 1038 618 q 806 887 917 828 q 550 946 696 946 l 213 946 l 213 26 l 550 26 m 28 507 l 528 507 l 528 481 l 28 481 l 28 507 z "},"Ḍ":{"ha":1147,"x_min":185,"x_max":1065,"o":"m 185 972 l 553 972 q 820 910 704 972 q 1001 736 936 847 q 1065 486 1065 625 q 1001 236 1065 347 q 820 63 936 125 q 553 0 704 0 l 185 0 l 185 972 m 550 26 q 806 85 696 26 q 977 249 917 144 q 1038 486 1038 354 q 977 723 1038 618 q 806 887 917 828 q 550 946 696 946 l 213 946 l 213 26 l 550 26 m 550 -244 q 524 -234 535 -244 q 514 -208 514 -224 q 524 -183 514 -194 q 550 -172 535 -172 q 575 -183 564 -172 q 586 -208 586 -194 q 575 -234 586 -224 q 550 -244 564 -244 z "},"Ḏ":{"ha":1147,"x_min":185,"x_max":1065,"o":"m 185 972 l 553 972 q 820 910 704 972 q 1001 736 936 847 q 1065 486 1065 625 q 1001 236 1065 347 q 820 63 936 125 q 553 0 704 0 l 185 0 l 185 972 m 550 26 q 806 85 696 26 q 977 249 917 144 q 1038 486 1038 354 q 977 723 1038 618 q 806 887 917 828 q 550 946 696 946 l 213 946 l 213 26 l 550 26 m 361 -194 l 739 -194 l 739 -222 l 361 -222 l 361 -194 z "},"ǅ":{"ha":1829,"x_min":185,"x_max":1763,"o":"m 185 972 l 553 972 q 820 910 704 972 q 1001 736 936 847 q 1065 486 1065 625 q 1001 236 1065 347 q 820 63 936 125 q 553 0 704 0 l 185 0 l 185 972 m 550 26 q 806 85 696 26 q 977 249 917 144 q 1038 486 1038 354 q 977 723 1038 618 q 806 887 917 828 q 550 946 696 946 l 213 946 l 213 26 l 550 26 m 1763 26 l 1763 0 l 1211 0 l 1211 21 l 1717 692 l 1218 692 l 1218 718 l 1756 718 l 1756 697 l 1250 26 l 1763 26 m 1679 996 l 1510 843 l 1465 843 l 1296 996 l 1333 996 l 1488 867 l 1642 996 l 1679 996 z "},"E":{"ha":928,"x_min":185,"x_max":832,"o":"m 832 26 l 832 0 l 185 0 l 185 972 l 811 972 l 811 946 l 213 946 l 213 507 l 749 507 l 749 481 l 213 481 l 213 26 l 832 26 z "},"É":{"ha":928,"x_min":185,"x_max":832,"o":"m 832 26 l 832 0 l 185 0 l 185 972 l 811 972 l 811 946 l 213 946 l 213 507 l 749 507 l 749 481 l 213 481 l 213 26 l 832 26 m 631 1204 l 686 1204 l 478 1051 l 436 1051 l 631 1204 z "},"Ĕ":{"ha":928,"x_min":185,"x_max":832,"o":"m 832 26 l 832 0 l 185 0 l 185 972 l 811 972 l 811 946 l 213 946 l 213 507 l 749 507 l 749 481 l 213 481 l 213 26 l 832 26 m 499 1047 q 369 1090 422 1047 q 315 1204 317 1133 l 342 1204 q 388 1109 343 1144 q 499 1074 432 1074 q 610 1109 565 1074 q 656 1204 654 1144 l 682 1204 q 628 1090 681 1133 q 499 1047 575 1047 z "},"Ě":{"ha":928,"x_min":185,"x_max":832,"o":"m 832 26 l 832 0 l 185 0 l 185 972 l 811 972 l 811 946 l 213 946 l 213 507 l 749 507 l 749 481 l 213 481 l 213 26 l 832 26 m 690 1204 l 521 1051 l 476 1051 l 307 1204 l 344 1204 l 499 1075 l 653 1204 l 690 1204 z "},"Ḝ":{"ha":928,"x_min":185,"x_max":832,"o":"m 832 26 l 832 0 l 185 0 l 185 972 l 811 972 l 811 946 l 213 946 l 213 507 l 749 507 l 749 481 l 213 481 l 213 26 l 832 26 m 500 -296 q 397 -258 440 -296 l 413 -237 q 499 -269 447 -269 q 571 -247 543 -269 q 599 -186 599 -225 q 572 -126 599 -149 q 500 -103 546 -103 l 478 -103 l 508 7 l 535 7 l 511 -78 q 595 -110 564 -81 q 626 -186 626 -139 q 591 -266 626 -236 q 500 -296 556 -296 m 499 1047 q 369 1090 422 1047 q 315 1204 317 1133 l 342 1204 q 388 1109 343 1144 q 499 1074 432 1074 q 610 1109 565 1074 q 656 1204 654 1144 l 682 1204 q 628 1090 681 1133 q 499 1047 575 1047 z "},"Ê":{"ha":928,"x_min":185,"x_max":832,"o":"m 832 26 l 832 0 l 185 0 l 185 972 l 811 972 l 811 946 l 213 946 l 213 507 l 749 507 l 749 481 l 213 481 l 213 26 l 832 26 m 653 1051 l 499 1181 l 344 1051 l 307 1051 l 476 1204 l 521 1204 l 690 1051 l 653 1051 z "},"Ế":{"ha":928,"x_min":185,"x_max":835,"o":"m 832 26 l 832 0 l 185 0 l 185 972 l 811 972 l 811 946 l 213 946 l 213 507 l 749 507 l 749 481 l 213 481 l 213 26 l 832 26 m 649 1051 l 499 1140 l 349 1051 l 307 1051 l 478 1163 l 519 1163 l 690 1051 l 649 1051 m 779 1294 l 835 1294 l 644 1156 l 603 1156 l 779 1294 z "},"Ệ":{"ha":928,"x_min":185,"x_max":832,"o":"m 832 26 l 832 0 l 185 0 l 185 972 l 811 972 l 811 946 l 213 946 l 213 507 l 749 507 l 749 481 l 213 481 l 213 26 l 832 26 m 522 -244 q 497 -234 507 -244 q 486 -208 486 -224 q 497 -183 486 -194 q 522 -172 507 -172 q 547 -183 536 -172 q 558 -208 558 -194 q 547 -234 558 -224 q 522 -244 536 -244 m 653 1051 l 499 1181 l 344 1051 l 307 1051 l 476 1204 l 521 1204 l 690 1051 l 653 1051 z "},"Ề":{"ha":928,"x_min":185,"x_max":832,"o":"m 832 26 l 832 0 l 185 0 l 185 972 l 811 972 l 811 946 l 213 946 l 213 507 l 749 507 l 749 481 l 213 481 l 213 26 l 832 26 m 649 1051 l 499 1140 l 349 1051 l 307 1051 l 478 1163 l 519 1163 l 690 1051 l 649 1051 m 496 1294 l 551 1294 l 728 1156 l 686 1156 l 496 1294 z "},"Ể":{"ha":928,"x_min":185,"x_max":832,"o":"m 832 26 l 832 0 l 185 0 l 185 972 l 811 972 l 811 946 l 213 946 l 213 507 l 749 507 l 749 481 l 213 481 l 213 26 l 832 26 m 649 1051 l 499 1140 l 349 1051 l 307 1051 l 478 1163 l 519 1163 l 690 1051 l 649 1051 m 628 1157 q 674 1191 657 1171 q 690 1235 690 1211 q 674 1271 690 1257 q 632 1285 658 1285 q 572 1267 599 1285 l 561 1289 q 633 1311 592 1311 q 694 1290 672 1311 q 717 1235 717 1269 q 642 1136 717 1169 l 628 1157 z "},"Ễ":{"ha":928,"x_min":185,"x_max":832,"o":"m 832 26 l 832 0 l 185 0 l 185 972 l 811 972 l 811 946 l 213 946 l 213 507 l 749 507 l 749 481 l 213 481 l 213 26 l 832 26 m 649 1051 l 499 1140 l 349 1051 l 307 1051 l 478 1163 l 519 1163 l 690 1051 l 649 1051 m 583 1208 q 538 1218 557 1208 q 489 1249 518 1228 q 449 1274 467 1265 q 414 1283 432 1283 q 360 1265 381 1283 q 339 1211 340 1246 l 313 1211 q 342 1283 314 1256 q 414 1310 369 1310 q 459 1300 439 1310 q 508 1269 479 1290 q 548 1244 531 1253 q 583 1235 565 1235 q 637 1253 617 1235 q 658 1304 657 1271 l 685 1304 q 656 1235 683 1261 q 583 1208 628 1208 z "},"Ȅ":{"ha":928,"x_min":185,"x_max":832,"o":"m 832 26 l 832 0 l 185 0 l 185 972 l 811 972 l 811 946 l 213 946 l 213 507 l 749 507 l 749 481 l 213 481 l 213 26 l 832 26 m 219 1204 l 267 1204 l 421 1051 l 383 1051 l 219 1204 m 413 1204 l 460 1204 l 614 1051 l 576 1051 l 413 1204 z "},"Ë":{"ha":928,"x_min":185,"x_max":832,"o":"m 832 26 l 832 0 l 185 0 l 185 972 l 811 972 l 811 946 l 213 946 l 213 507 l 749 507 l 749 481 l 213 481 l 213 26 l 832 26 m 385 1099 q 359 1110 369 1099 q 349 1135 349 1121 q 359 1160 349 1150 q 385 1171 369 1171 q 410 1160 399 1171 q 421 1135 421 1150 q 410 1110 421 1121 q 385 1099 399 1099 m 613 1099 q 587 1110 597 1099 q 576 1135 576 1121 q 587 1160 576 1150 q 613 1171 597 1171 q 638 1160 626 1171 q 649 1135 649 1150 q 638 1110 649 1121 q 613 1099 626 1099 z "},"Ė":{"ha":928,"x_min":185,"x_max":832,"o":"m 832 26 l 832 0 l 185 0 l 185 972 l 811 972 l 811 946 l 213 946 l 213 507 l 749 507 l 749 481 l 213 481 l 213 26 l 832 26 m 499 1099 q 473 1110 483 1099 q 463 1135 463 1121 q 473 1160 463 1150 q 499 1171 483 1171 q 524 1160 513 1171 q 535 1135 535 1150 q 524 1110 535 1121 q 499 1099 513 1099 z "},"Ẹ":{"ha":928,"x_min":185,"x_max":832,"o":"m 832 26 l 832 0 l 185 0 l 185 972 l 811 972 l 811 946 l 213 946 l 213 507 l 749 507 l 749 481 l 213 481 l 213 26 l 832 26 m 522 -244 q 497 -234 507 -244 q 486 -208 486 -224 q 497 -183 486 -194 q 522 -172 507 -172 q 547 -183 536 -172 q 558 -208 558 -194 q 547 -234 558 -224 q 522 -244 536 -244 z "},"È":{"ha":928,"x_min":185,"x_max":832,"o":"m 832 26 l 832 0 l 185 0 l 185 972 l 811 972 l 811 946 l 213 946 l 213 507 l 749 507 l 749 481 l 213 481 l 213 26 l 832 26 m 311 1204 l 367 1204 l 561 1051 l 519 1051 l 311 1204 z "},"Ẻ":{"ha":928,"x_min":185,"x_max":832,"o":"m 832 26 l 832 0 l 185 0 l 185 972 l 811 972 l 811 946 l 213 946 l 213 507 l 749 507 l 749 481 l 213 481 l 213 26 l 832 26 m 488 1068 q 575 1175 575 1107 q 552 1228 575 1207 q 494 1250 529 1250 q 408 1224 449 1250 l 397 1247 q 442 1269 415 1261 q 493 1276 468 1276 q 573 1249 543 1276 q 603 1176 603 1222 q 578 1103 603 1135 q 501 1046 553 1071 l 488 1068 z "},"Ȇ":{"ha":928,"x_min":185,"x_max":832,"o":"m 832 26 l 832 0 l 185 0 l 185 972 l 811 972 l 811 946 l 213 946 l 213 507 l 749 507 l 749 481 l 213 481 l 213 26 l 832 26 m 315 1051 q 369 1165 317 1122 q 499 1208 422 1208 q 628 1165 575 1208 q 682 1051 681 1122 l 656 1051 q 610 1147 654 1111 q 499 1182 565 1182 q 388 1147 432 1182 q 342 1051 343 1111 l 315 1051 z "},"Ē":{"ha":928,"x_min":185,"x_max":832,"o":"m 832 26 l 832 0 l 185 0 l 185 972 l 811 972 l 811 946 l 213 946 l 213 507 l 749 507 l 749 481 l 213 481 l 213 26 l 832 26 m 310 1142 l 688 1142 l 688 1114 l 310 1114 l 310 1142 z "},"Ḗ":{"ha":928,"x_min":185,"x_max":832,"o":"m 832 26 l 832 0 l 185 0 l 185 972 l 811 972 l 811 946 l 213 946 l 213 507 l 749 507 l 749 481 l 213 481 l 213 26 l 832 26 m 310 1121 l 688 1121 l 688 1093 l 310 1093 l 310 1121 m 613 1347 l 668 1347 l 478 1208 l 436 1208 l 613 1347 z "},"Ḕ":{"ha":928,"x_min":185,"x_max":832,"o":"m 832 26 l 832 0 l 185 0 l 185 972 l 811 972 l 811 946 l 213 946 l 213 507 l 749 507 l 749 481 l 213 481 l 213 26 l 832 26 m 310 1121 l 688 1121 l 688 1093 l 310 1093 l 310 1121 m 329 1347 l 385 1347 l 561 1208 l 519 1208 l 329 1347 z "},"Ę":{"ha":928,"x_min":185,"x_max":857,"o":"m 832 26 l 832 0 l 185 0 l 185 972 l 811 972 l 811 946 l 213 946 l 213 507 l 749 507 l 749 481 l 213 481 l 213 26 l 832 26 m 754 -296 q 663 -265 699 -296 q 628 -181 628 -233 q 818 22 628 -62 l 832 0 q 692 -90 729 -44 q 656 -181 656 -135 q 683 -247 656 -224 q 756 -269 711 -269 q 842 -237 807 -269 l 857 -258 q 754 -296 814 -296 z "},"Ẽ":{"ha":928,"x_min":185,"x_max":832,"o":"m 832 26 l 832 0 l 185 0 l 185 972 l 811 972 l 811 946 l 213 946 l 213 507 l 749 507 l 749 481 l 213 481 l 213 26 l 832 26 m 586 1068 q 537 1081 558 1068 q 488 1121 515 1094 q 448 1153 465 1142 q 411 1164 431 1164 q 358 1139 378 1164 q 336 1071 339 1114 l 310 1071 q 340 1158 313 1125 q 411 1190 367 1190 q 460 1177 439 1190 q 510 1138 482 1164 q 549 1106 532 1117 q 586 1094 567 1094 q 639 1119 619 1094 q 661 1185 658 1143 l 688 1185 q 658 1100 685 1132 q 586 1068 631 1068 z "},"Ʒ":{"ha":832,"x_min":47,"x_max":740,"o":"m 379 538 q 649 465 557 538 q 740 267 740 392 q 651 69 740 143 q 401 -4 563 -4 q 190 34 286 -4 q 47 133 94 72 l 65 151 q 201 58 111 94 q 403 22 290 22 q 632 88 551 22 q 713 267 713 153 q 629 447 713 382 q 381 511 546 511 l 329 511 l 329 532 l 663 946 l 79 946 l 79 972 l 701 972 l 701 951 l 368 538 l 379 538 z "},"Ǯ":{"ha":832,"x_min":47,"x_max":740,"o":"m 379 538 q 649 465 557 538 q 740 267 740 392 q 651 69 740 143 q 401 -4 563 -4 q 190 34 286 -4 q 47 133 94 72 l 65 151 q 201 58 111 94 q 403 22 290 22 q 632 88 551 22 q 713 267 713 153 q 629 447 713 382 q 381 511 546 511 l 329 511 l 329 532 l 663 946 l 79 946 l 79 972 l 701 972 l 701 951 l 368 538 l 379 538 m 590 1204 l 421 1051 l 376 1051 l 207 1204 l 244 1204 l 399 1075 l 553 1204 l 590 1204 z "},"F":{"ha":874,"x_min":185,"x_max":811,"o":"m 213 946 l 213 479 l 749 479 l 749 453 l 213 453 l 213 0 l 185 0 l 185 972 l 811 972 l 811 946 l 213 946 z "},"G":{"ha":1075,"x_min":82,"x_max":919,"o":"m 893 476 l 919 476 l 919 121 q 772 28 858 60 q 585 -4 685 -4 q 327 60 442 -4 q 147 235 213 124 q 82 486 82 347 q 147 737 82 625 q 327 913 213 849 q 585 976 442 976 q 772 945 686 976 q 919 853 858 914 l 903 833 q 585 950 781 950 q 342 889 451 950 q 172 722 233 828 q 110 486 110 615 q 172 251 110 357 q 342 83 233 144 q 585 22 451 22 q 893 132 778 22 l 893 476 z "},"Ğ":{"ha":1075,"x_min":82,"x_max":919,"o":"m 893 476 l 919 476 l 919 121 q 772 28 858 60 q 585 -4 685 -4 q 327 60 442 -4 q 147 235 213 124 q 82 486 82 347 q 147 737 82 625 q 327 913 213 849 q 585 976 442 976 q 772 945 686 976 q 919 853 858 914 l 903 833 q 585 950 781 950 q 342 889 451 950 q 172 722 233 828 q 110 486 110 615 q 172 251 110 357 q 342 83 233 144 q 585 22 451 22 q 893 132 778 22 l 893 476 m 558 1046 q 429 1089 482 1046 q 375 1203 376 1132 l 401 1203 q 447 1108 403 1143 q 558 1072 492 1072 q 669 1108 625 1072 q 715 1203 714 1143 l 742 1203 q 688 1089 740 1132 q 558 1046 635 1046 z "},"Ǧ":{"ha":1075,"x_min":82,"x_max":919,"o":"m 893 476 l 919 476 l 919 121 q 772 28 858 60 q 585 -4 685 -4 q 327 60 442 -4 q 147 235 213 124 q 82 486 82 347 q 147 737 82 625 q 327 913 213 849 q 585 976 442 976 q 772 945 686 976 q 919 853 858 914 l 903 833 q 585 950 781 950 q 342 889 451 950 q 172 722 233 828 q 110 486 110 615 q 172 251 110 357 q 342 83 233 144 q 585 22 451 22 q 893 132 778 22 l 893 476 m 750 1203 l 581 1050 l 536 1050 l 367 1203 l 404 1203 l 558 1074 l 713 1203 l 750 1203 z "},"Ĝ":{"ha":1075,"x_min":82,"x_max":919,"o":"m 893 476 l 919 476 l 919 121 q 772 28 858 60 q 585 -4 685 -4 q 327 60 442 -4 q 147 235 213 124 q 82 486 82 347 q 147 737 82 625 q 327 913 213 849 q 585 976 442 976 q 772 945 686 976 q 919 853 858 914 l 903 833 q 585 950 781 950 q 342 889 451 950 q 172 722 233 828 q 110 486 110 615 q 172 251 110 357 q 342 83 233 144 q 585 22 451 22 q 893 132 778 22 l 893 476 m 713 1050 l 558 1179 l 404 1050 l 367 1050 l 536 1203 l 581 1203 l 750 1050 l 713 1050 z "},"Ģ":{"ha":1075,"x_min":82,"x_max":919,"o":"m 893 476 l 919 476 l 919 121 q 772 28 858 60 q 585 -4 685 -4 q 327 60 442 -4 q 147 235 213 124 q 82 486 82 347 q 147 737 82 625 q 327 913 213 849 q 585 976 442 976 q 772 945 686 976 q 919 853 858 914 l 903 833 q 585 950 781 950 q 342 889 451 950 q 172 722 233 828 q 110 486 110 615 q 172 251 110 357 q 342 83 233 144 q 585 22 451 22 q 893 132 778 22 l 893 476 m 558 -172 q 584 -183 574 -172 q 594 -208 594 -194 q 586 -253 594 -222 l 554 -360 l 529 -360 l 554 -244 q 531 -232 540 -242 q 522 -208 522 -222 q 533 -183 522 -193 q 558 -172 543 -172 z "},"Ġ":{"ha":1075,"x_min":82,"x_max":919,"o":"m 893 476 l 919 476 l 919 121 q 772 28 858 60 q 585 -4 685 -4 q 327 60 442 -4 q 147 235 213 124 q 82 486 82 347 q 147 737 82 625 q 327 913 213 849 q 585 976 442 976 q 772 945 686 976 q 919 853 858 914 l 903 833 q 585 950 781 950 q 342 889 451 950 q 172 722 233 828 q 110 486 110 615 q 172 251 110 357 q 342 83 233 144 q 585 22 451 22 q 893 132 778 22 l 893 476 m 558 1097 q 533 1108 543 1097 q 522 1133 522 1119 q 533 1159 522 1149 q 558 1169 543 1169 q 583 1159 572 1169 q 594 1133 594 1149 q 583 1108 594 1119 q 558 1097 572 1097 z "},"Ḡ":{"ha":1075,"x_min":82,"x_max":919,"o":"m 893 476 l 919 476 l 919 121 q 772 28 858 60 q 585 -4 685 -4 q 327 60 442 -4 q 147 235 213 124 q 82 486 82 347 q 147 737 82 625 q 327 913 213 849 q 585 976 442 976 q 772 945 686 976 q 919 853 858 914 l 903 833 q 585 950 781 950 q 342 889 451 950 q 172 722 233 828 q 110 486 110 615 q 172 251 110 357 q 342 83 233 144 q 585 22 451 22 q 893 132 778 22 l 893 476 m 369 1140 l 747 1140 l 747 1113 l 369 1113 l 369 1140 z "},"Ǥ":{"ha":1117,"x_min":82,"x_max":1083,"o":"m 893 476 l 919 476 l 919 121 q 772 28 858 60 q 585 -4 685 -4 q 327 60 442 -4 q 147 235 213 124 q 82 486 82 347 q 147 737 82 625 q 327 913 213 849 q 585 976 442 976 q 772 945 686 976 q 919 853 858 914 l 903 833 q 585 950 781 950 q 342 889 451 950 q 172 722 233 828 q 110 486 110 615 q 172 251 110 357 q 342 83 233 144 q 585 22 451 22 q 893 132 778 22 l 893 476 m 583 338 l 1083 338 l 1083 311 l 583 311 l 583 338 z "},"H":{"ha":1133,"x_min":185,"x_max":949,"o":"m 949 972 l 949 0 l 921 0 l 921 481 l 213 481 l 213 0 l 185 0 l 185 972 l 213 972 l 213 507 l 921 507 l 921 972 l 949 972 z "},"Ħ":{"ha":1133,"x_min":28,"x_max":1106,"o":"m 949 972 l 949 0 l 921 0 l 921 481 l 213 481 l 213 0 l 185 0 l 185 972 l 213 972 l 213 507 l 921 507 l 921 972 l 949 972 m 28 761 l 1106 761 l 1106 735 l 28 735 l 28 761 z "},"Ḫ":{"ha":1133,"x_min":185,"x_max":949,"o":"m 949 972 l 949 0 l 921 0 l 921 481 l 213 481 l 213 0 l 185 0 l 185 972 l 213 972 l 213 507 l 921 507 l 921 972 l 949 972 m 567 -275 q 438 -234 490 -275 q 383 -125 385 -193 l 410 -125 q 456 -215 411 -181 q 567 -249 500 -249 q 678 -215 633 -249 q 724 -125 722 -181 l 750 -125 q 696 -234 749 -193 q 567 -275 643 -275 z "},"Ȟ":{"ha":1133,"x_min":185,"x_max":949,"o":"m 949 972 l 949 0 l 921 0 l 921 481 l 213 481 l 213 0 l 185 0 l 185 972 l 213 972 l 213 507 l 921 507 l 921 972 l 949 972 m 758 1204 l 589 1051 l 544 1051 l 375 1204 l 413 1204 l 567 1075 l 721 1204 l 758 1204 z "},"Ĥ":{"ha":1133,"x_min":185,"x_max":949,"o":"m 949 972 l 949 0 l 921 0 l 921 481 l 213 481 l 213 0 l 185 0 l 185 972 l 213 972 l 213 507 l 921 507 l 921 972 l 949 972 m 721 1051 l 567 1181 l 413 1051 l 375 1051 l 544 1204 l 589 1204 l 758 1051 l 721 1051 z "},"Ḥ":{"ha":1133,"x_min":185,"x_max":949,"o":"m 949 972 l 949 0 l 921 0 l 921 481 l 213 481 l 213 0 l 185 0 l 185 972 l 213 972 l 213 507 l 921 507 l 921 972 l 949 972 m 567 -244 q 541 -234 551 -244 q 531 -208 531 -224 q 541 -183 531 -194 q 567 -172 551 -172 q 592 -183 581 -172 q 603 -208 603 -194 q 592 -234 603 -224 q 567 -244 581 -244 z "},"I":{"ha":397,"x_min":185,"x_max":213,"o":"m 185 972 l 213 972 l 213 0 l 185 0 l 185 972 z "},"Ĳ":{"ha":992,"x_min":167,"x_max":815,"o":"m 454 -4 q 300 20 374 -4 q 167 86 226 44 l 183 108 q 309 44 239 67 q 456 22 379 22 q 700 119 613 22 q 788 408 788 217 l 788 972 l 815 972 l 815 407 q 719 101 815 206 q 454 -4 622 -4 m 176 972 l 204 972 l 204 403 l 176 403 l 176 972 z "},"Í":{"ha":397,"x_min":136,"x_max":386,"o":"m 185 972 l 213 972 l 213 0 l 185 0 l 185 972 m 331 1204 l 386 1204 l 178 1051 l 136 1051 l 331 1204 z "},"Ĭ":{"ha":397,"x_min":15,"x_max":382,"o":"m 185 972 l 213 972 l 213 0 l 185 0 l 185 972 m 199 1047 q 69 1090 122 1047 q 15 1204 17 1133 l 42 1204 q 88 1109 43 1144 q 199 1074 132 1074 q 310 1109 265 1074 q 356 1204 354 1144 l 382 1204 q 328 1090 381 1133 q 199 1047 275 1047 z "},"Î":{"ha":397,"x_min":7,"x_max":390,"o":"m 185 972 l 213 972 l 213 0 l 185 0 l 185 972 m 353 1051 l 199 1181 l 44 1051 l 7 1051 l 176 1204 l 221 1204 l 390 1051 l 353 1051 z "},"Ȉ":{"ha":397,"x_min":-81,"x_max":314,"o":"m 185 972 l 213 972 l 213 0 l 185 0 l 185 972 m -81 1204 l -33 1204 l 121 1051 l 83 1051 l -81 1204 m 113 1204 l 160 1204 l 314 1051 l 276 1051 l 113 1204 z "},"Ï":{"ha":397,"x_min":49,"x_max":349,"o":"m 185 972 l 213 972 l 213 0 l 185 0 l 185 972 m 85 1099 q 59 1110 69 1099 q 49 1135 49 1121 q 59 1160 49 1150 q 85 1171 69 1171 q 110 1160 99 1171 q 121 1135 121 1150 q 110 1110 121 1121 q 85 1099 99 1099 m 313 1099 q 287 1110 297 1099 q 276 1135 276 1121 q 287 1160 276 1150 q 313 1171 297 1171 q 338 1160 326 1171 q 349 1135 349 1150 q 338 1110 349 1121 q 313 1099 326 1099 z "},"Ḯ":{"ha":397,"x_min":49,"x_max":368,"o":"m 185 972 l 213 972 l 213 0 l 185 0 l 185 972 m 85 1099 q 59 1110 69 1099 q 49 1135 49 1121 q 59 1160 49 1150 q 85 1171 69 1171 q 110 1160 99 1171 q 121 1135 121 1150 q 110 1110 121 1121 q 85 1099 99 1099 m 313 1099 q 287 1110 297 1099 q 276 1135 276 1121 q 287 1160 276 1150 q 313 1171 297 1171 q 338 1160 326 1171 q 349 1135 349 1150 q 338 1110 349 1121 q 313 1099 326 1099 m 313 1347 l 368 1347 l 178 1208 l 136 1208 l 313 1347 z "},"İ":{"ha":397,"x_min":163,"x_max":235,"o":"m 185 972 l 213 972 l 213 0 l 185 0 l 185 972 m 199 1099 q 173 1110 183 1099 q 163 1135 163 1121 q 173 1160 163 1150 q 199 1171 183 1171 q 224 1160 213 1171 q 235 1135 235 1150 q 224 1110 235 1121 q 199 1099 213 1099 z "},"Ị":{"ha":397,"x_min":163,"x_max":235,"o":"m 185 972 l 213 972 l 213 0 l 185 0 l 185 972 m 199 -244 q 173 -234 183 -244 q 163 -208 163 -224 q 173 -183 163 -194 q 199 -172 183 -172 q 224 -183 213 -172 q 235 -208 235 -194 q 224 -234 235 -224 q 199 -244 213 -244 z "},"Ì":{"ha":397,"x_min":11,"x_max":261,"o":"m 185 972 l 213 972 l 213 0 l 185 0 l 185 972 m 11 1204 l 67 1204 l 261 1051 l 219 1051 l 11 1204 z "},"Ỉ":{"ha":397,"x_min":97,"x_max":303,"o":"m 185 972 l 213 972 l 213 0 l 185 0 l 185 972 m 188 1068 q 275 1175 275 1107 q 252 1228 275 1207 q 194 1250 229 1250 q 108 1224 149 1250 l 97 1247 q 142 1269 115 1261 q 193 1276 168 1276 q 273 1249 243 1276 q 303 1176 303 1222 q 278 1103 303 1135 q 201 1046 253 1071 l 188 1068 z "},"Ȋ":{"ha":397,"x_min":15,"x_max":382,"o":"m 185 972 l 213 972 l 213 0 l 185 0 l 185 972 m 15 1051 q 69 1165 17 1122 q 199 1208 122 1208 q 328 1165 275 1208 q 382 1051 381 1122 l 356 1051 q 310 1147 354 1111 q 199 1182 265 1182 q 88 1147 132 1182 q 42 1051 43 1111 l 15 1051 z "},"Ī":{"ha":397,"x_min":44,"x_max":353,"o":"m 185 972 l 213 972 l 213 0 l 185 0 l 185 972 m 44 1143 l 353 1143 l 353 1115 l 44 1115 l 44 1143 z "},"Į":{"ha":397,"x_min":108,"x_max":272,"o":"m 185 972 l 213 972 l 213 0 l 185 0 l 185 972 m 201 -296 q 134 -266 160 -296 q 108 -187 108 -236 q 201 24 108 -72 l 213 0 q 150 -97 164 -54 q 136 -186 136 -140 q 155 -249 136 -226 q 201 -271 174 -271 q 257 -243 233 -271 l 272 -262 q 201 -296 246 -296 z "},"Ĩ":{"ha":397,"x_min":10,"x_max":388,"o":"m 185 972 l 213 972 l 213 0 l 185 0 l 185 972 m 286 1068 q 237 1081 258 1068 q 188 1121 215 1094 q 148 1153 165 1142 q 111 1164 131 1164 q 58 1139 78 1164 q 36 1071 39 1114 l 10 1071 q 40 1158 13 1125 q 111 1190 67 1190 q 160 1177 139 1190 q 210 1138 182 1164 q 249 1106 232 1117 q 286 1094 267 1094 q 339 1119 319 1094 q 361 1185 358 1143 l 388 1185 q 358 1100 385 1132 q 286 1068 331 1068 z "},"J":{"ha":663,"x_min":6,"x_max":486,"o":"m 247 -4 q 109 33 174 -4 q 6 133 44 69 l 25 150 q 123 56 65 89 q 249 22 181 22 q 407 84 356 22 q 458 272 458 146 l 458 946 l 94 946 l 94 972 l 486 972 l 486 269 q 247 -4 486 -4 z "},"Ĵ":{"ha":663,"x_min":6,"x_max":486,"o":"m 247 -4 q 109 33 174 -4 q 6 133 44 69 l 25 150 q 123 56 65 89 q 249 22 181 22 q 407 84 356 22 q 458 272 458 146 l 458 946 l 94 946 l 94 972 l 486 972 l 486 269 q 247 -4 486 -4 m 444 1051 l 290 1181 l 136 1051 l 99 1051 l 268 1204 l 313 1204 l 482 1051 l 444 1051 z "},"K":{"ha":963,"x_min":185,"x_max":940,"o":"m 454 507 l 213 258 l 213 0 l 185 0 l 185 972 l 213 972 l 213 296 l 871 972 l 908 972 l 475 526 l 940 0 l 903 0 l 454 507 z "},"Ǩ":{"ha":963,"x_min":185,"x_max":940,"o":"m 454 507 l 213 258 l 213 0 l 185 0 l 185 972 l 213 972 l 213 296 l 871 972 l 908 972 l 475 526 l 940 0 l 903 0 l 454 507 m 706 1204 l 536 1051 l 492 1051 l 322 1204 l 360 1204 l 514 1075 l 668 1204 l 706 1204 z "},"Ķ":{"ha":963,"x_min":185,"x_max":940,"o":"m 454 507 l 213 258 l 213 0 l 185 0 l 185 972 l 213 972 l 213 296 l 871 972 l 908 972 l 475 526 l 940 0 l 903 0 l 454 507 m 514 -172 q 540 -183 529 -172 q 550 -208 550 -194 q 542 -253 550 -222 l 510 -360 l 485 -360 l 510 -244 q 487 -232 496 -242 q 478 -208 478 -222 q 488 -183 478 -193 q 514 -172 499 -172 z "},"L":{"ha":806,"x_min":185,"x_max":792,"o":"m 185 972 l 213 972 l 213 26 l 792 26 l 792 0 l 185 0 l 185 972 z "},"Ǉ":{"ha":1468,"x_min":185,"x_max":1292,"o":"m 185 972 l 213 972 l 213 26 l 792 26 l 792 0 l 185 0 l 185 972 m 1053 -4 q 915 33 979 -4 q 811 133 850 69 l 831 150 q 928 56 871 89 q 1054 22 986 22 q 1213 84 1161 22 q 1264 272 1264 146 l 1264 946 l 900 946 l 900 972 l 1292 972 l 1292 269 q 1053 -4 1292 -4 z "},"Ĺ":{"ha":806,"x_min":136,"x_max":792,"o":"m 185 972 l 213 972 l 213 26 l 792 26 l 792 0 l 185 0 l 185 972 m 331 1204 l 386 1204 l 178 1051 l 136 1051 l 331 1204 z "},"Ľ":{"ha":806,"x_min":185,"x_max":792,"o":"m 185 972 l 213 972 l 213 26 l 792 26 l 792 0 l 185 0 l 185 972 m 619 1000 l 647 1000 l 644 750 l 619 750 l 619 1000 z "},"Ļ":{"ha":806,"x_min":185,"x_max":792,"o":"m 185 972 l 213 972 l 213 26 l 792 26 l 792 0 l 185 0 l 185 972 m 503 -172 q 528 -183 518 -172 q 539 -208 539 -194 q 531 -253 539 -222 l 499 -360 l 474 -360 l 499 -244 q 476 -232 485 -242 q 467 -208 467 -222 q 477 -183 467 -193 q 503 -172 488 -172 z "},"Ŀ":{"ha":806,"x_min":185,"x_max":792,"o":"m 185 972 l 213 972 l 213 26 l 792 26 l 792 0 l 185 0 l 185 972 m 601 464 q 576 475 588 464 q 565 500 565 486 q 576 526 565 515 q 601 536 588 536 q 627 526 617 536 q 638 500 638 515 q 627 475 638 486 q 601 464 617 464 z "},"Ḷ":{"ha":806,"x_min":185,"x_max":792,"o":"m 185 972 l 213 972 l 213 26 l 792 26 l 792 0 l 185 0 l 185 972 m 503 -244 q 477 -234 488 -244 q 467 -208 467 -224 q 477 -183 467 -194 q 503 -172 488 -172 q 528 -183 517 -172 q 539 -208 539 -194 q 528 -234 539 -224 q 503 -244 517 -244 z "},"ǈ":{"ha":1160,"x_min":185,"x_max":1022,"o":"m 185 972 l 213 972 l 213 26 l 792 26 l 792 0 l 185 0 l 185 972 m 831 -274 q 749 -260 788 -274 q 686 -222 710 -247 l 706 -203 q 829 -247 753 -247 q 935 -207 899 -247 q 972 -90 972 -167 l 972 718 l 1000 718 l 1000 -97 q 956 -226 1000 -178 q 831 -274 911 -274 m 986 917 q 960 928 971 917 q 950 953 950 939 q 960 978 950 968 q 986 989 971 989 q 1011 978 1000 989 q 1022 953 1022 968 q 1011 928 1022 939 q 986 917 1000 917 z "},"Ḻ":{"ha":806,"x_min":185,"x_max":792,"o":"m 185 972 l 213 972 l 213 26 l 792 26 l 792 0 l 185 0 l 185 972 m 314 -194 l 692 -194 l 692 -222 l 314 -222 l 314 -194 z "},"Ł":{"ha":806,"x_min":57,"x_max":792,"o":"m 185 972 l 213 972 l 213 26 l 792 26 l 792 0 l 185 0 l 185 972 m 57 411 l 394 660 l 410 640 l 72 392 l 57 411 z "},"M":{"ha":1328,"x_min":185,"x_max":1143,"o":"m 1143 972 l 1143 0 l 1115 0 l 1115 913 l 672 138 l 656 138 l 213 910 l 213 0 l 185 0 l 185 972 l 208 972 l 664 175 l 1119 972 l 1143 972 z "},"Ṃ":{"ha":1328,"x_min":185,"x_max":1143,"o":"m 1143 972 l 1143 0 l 1115 0 l 1115 913 l 672 138 l 656 138 l 213 910 l 213 0 l 185 0 l 185 972 l 208 972 l 664 175 l 1119 972 l 1143 972 m 664 -244 q 638 -234 649 -244 q 628 -208 628 -224 q 638 -183 628 -194 q 664 -172 649 -172 q 689 -183 678 -172 q 700 -208 700 -194 q 689 -234 700 -224 q 664 -244 678 -244 z "},"N":{"ha":1133,"x_min":185,"x_max":949,"o":"m 949 972 l 949 0 l 925 0 l 213 921 l 213 0 l 185 0 l 185 972 l 208 972 l 921 51 l 921 972 l 949 972 z "},"Ǌ":{"ha":1796,"x_min":185,"x_max":1619,"o":"m 949 972 l 949 0 l 925 0 l 213 921 l 213 0 l 185 0 l 185 972 l 208 972 l 921 51 l 921 972 l 949 972 m 1381 -4 q 1242 33 1307 -4 q 1139 133 1178 69 l 1158 150 q 1256 56 1199 89 q 1382 22 1314 22 q 1540 84 1489 22 q 1592 272 1592 146 l 1592 946 l 1228 946 l 1228 972 l 1619 972 l 1619 269 q 1381 -4 1619 -4 z "},"Ń":{"ha":1133,"x_min":185,"x_max":949,"o":"m 949 972 l 949 0 l 925 0 l 213 921 l 213 0 l 185 0 l 185 972 l 208 972 l 921 51 l 921 972 l 949 972 m 699 1204 l 754 1204 l 546 1051 l 504 1051 l 699 1204 z "},"Ň":{"ha":1133,"x_min":185,"x_max":949,"o":"m 949 972 l 949 0 l 925 0 l 213 921 l 213 0 l 185 0 l 185 972 l 208 972 l 921 51 l 921 972 l 949 972 m 758 1204 l 589 1051 l 544 1051 l 375 1204 l 413 1204 l 567 1075 l 721 1204 l 758 1204 z "},"Ņ":{"ha":1133,"x_min":185,"x_max":949,"o":"m 949 972 l 949 0 l 925 0 l 213 921 l 213 0 l 185 0 l 185 972 l 208 972 l 921 51 l 921 972 l 949 972 m 567 -172 q 592 -183 582 -172 q 603 -208 603 -194 q 594 -253 603 -222 l 563 -360 l 538 -360 l 563 -244 q 540 -232 549 -242 q 531 -208 531 -222 q 541 -183 531 -193 q 567 -172 551 -172 z "},"Ṅ":{"ha":1133,"x_min":185,"x_max":949,"o":"m 949 972 l 949 0 l 925 0 l 213 921 l 213 0 l 185 0 l 185 972 l 208 972 l 921 51 l 921 972 l 949 972 m 567 1099 q 541 1110 551 1099 q 531 1135 531 1121 q 541 1160 531 1150 q 567 1171 551 1171 q 592 1160 581 1171 q 603 1135 603 1150 q 592 1110 603 1121 q 567 1099 581 1099 z "},"Ṇ":{"ha":1133,"x_min":185,"x_max":949,"o":"m 949 972 l 949 0 l 925 0 l 213 921 l 213 0 l 185 0 l 185 972 l 208 972 l 921 51 l 921 972 l 949 972 m 567 -244 q 541 -234 551 -244 q 531 -208 531 -224 q 541 -183 531 -194 q 567 -172 551 -172 q 592 -183 581 -172 q 603 -208 603 -194 q 592 -234 603 -224 q 567 -244 581 -244 z "},"Ŋ":{"ha":1133,"x_min":185,"x_max":949,"o":"m 949 972 l 949 0 q 710 -274 949 -274 q 572 -237 636 -274 q 468 -136 507 -200 l 488 -119 q 585 -214 528 -181 q 711 -247 643 -247 q 869 -185 818 -247 q 921 3 921 -124 l 921 6 l 213 921 l 213 0 l 185 0 l 185 972 l 208 972 l 921 51 l 921 972 l 949 972 z "},"ǋ":{"ha":1488,"x_min":185,"x_max":1350,"o":"m 949 972 l 949 0 l 925 0 l 213 921 l 213 0 l 185 0 l 185 972 l 208 972 l 921 51 l 921 972 l 949 972 m 1158 -274 q 1076 -260 1115 -274 q 1014 -222 1038 -247 l 1033 -203 q 1157 -247 1081 -247 q 1263 -207 1226 -247 q 1300 -90 1300 -167 l 1300 718 l 1328 718 l 1328 -97 q 1283 -226 1328 -178 q 1158 -274 1239 -274 m 1314 917 q 1288 928 1299 917 q 1278 953 1278 939 q 1288 978 1278 968 q 1314 989 1299 989 q 1339 978 1328 989 q 1350 953 1350 968 q 1339 928 1350 939 q 1314 917 1328 917 z "},"Ṉ":{"ha":1133,"x_min":185,"x_max":949,"o":"m 949 972 l 949 0 l 925 0 l 213 921 l 213 0 l 185 0 l 185 972 l 208 972 l 921 51 l 921 972 l 949 972 m 378 -194 l 756 -194 l 756 -222 l 378 -222 l 378 -194 z "},"Ñ":{"ha":1133,"x_min":185,"x_max":949,"o":"m 949 972 l 949 0 l 925 0 l 213 921 l 213 0 l 185 0 l 185 972 l 208 972 l 921 51 l 921 972 l 949 972 m 654 1068 q 605 1081 626 1068 q 556 1121 583 1094 q 516 1153 533 1142 q 479 1164 499 1164 q 426 1139 446 1164 q 404 1071 407 1114 l 378 1071 q 408 1158 381 1125 q 479 1190 435 1190 q 528 1177 507 1190 q 578 1138 550 1164 q 617 1106 600 1117 q 654 1094 635 1094 q 707 1119 688 1094 q 729 1185 726 1143 l 756 1185 q 726 1100 753 1132 q 654 1068 699 1068 z "},"O":{"ha":1161,"x_min":82,"x_max":1079,"o":"m 581 -4 q 326 60 440 -4 q 147 235 213 124 q 82 486 82 347 q 147 737 82 625 q 326 913 213 849 q 581 976 440 976 q 835 913 721 976 q 1014 737 949 849 q 1079 486 1079 625 q 1014 235 1079 347 q 835 60 949 124 q 581 -4 721 -4 m 581 22 q 820 83 713 22 q 990 249 928 143 q 1051 486 1051 356 q 990 723 1051 617 q 820 890 928 829 q 581 950 713 950 q 341 890 449 950 q 172 723 233 829 q 110 486 110 617 q 172 249 110 356 q 341 83 233 143 q 581 22 449 22 z "},"Ó":{"ha":1161,"x_min":82,"x_max":1079,"o":"m 581 -4 q 326 60 440 -4 q 147 235 213 124 q 82 486 82 347 q 147 737 82 625 q 326 913 213 849 q 581 976 440 976 q 835 913 721 976 q 1014 737 949 849 q 1079 486 1079 625 q 1014 235 1079 347 q 835 60 949 124 q 581 -4 721 -4 m 581 22 q 820 83 713 22 q 990 249 928 143 q 1051 486 1051 356 q 990 723 1051 617 q 820 890 928 829 q 581 950 713 950 q 341 890 449 950 q 172 723 233 829 q 110 486 110 617 q 172 249 110 356 q 341 83 233 143 q 581 22 449 22 m 713 1204 l 768 1204 l 560 1051 l 518 1051 l 713 1204 z "},"Ŏ":{"ha":1161,"x_min":82,"x_max":1079,"o":"m 581 -4 q 326 60 440 -4 q 147 235 213 124 q 82 486 82 347 q 147 737 82 625 q 326 913 213 849 q 581 976 440 976 q 835 913 721 976 q 1014 737 949 849 q 1079 486 1079 625 q 1014 235 1079 347 q 835 60 949 124 q 581 -4 721 -4 m 581 22 q 820 83 713 22 q 990 249 928 143 q 1051 486 1051 356 q 990 723 1051 617 q 820 890 928 829 q 581 950 713 950 q 341 890 449 950 q 172 723 233 829 q 110 486 110 617 q 172 249 110 356 q 341 83 233 143 q 581 22 449 22 m 581 1047 q 451 1090 504 1047 q 397 1204 399 1133 l 424 1204 q 469 1109 425 1144 q 581 1074 514 1074 q 692 1109 647 1074 q 738 1204 736 1144 l 764 1204 q 710 1090 763 1133 q 581 1047 657 1047 z "},"Ô":{"ha":1161,"x_min":82,"x_max":1079,"o":"m 581 -4 q 326 60 440 -4 q 147 235 213 124 q 82 486 82 347 q 147 737 82 625 q 326 913 213 849 q 581 976 440 976 q 835 913 721 976 q 1014 737 949 849 q 1079 486 1079 625 q 1014 235 1079 347 q 835 60 949 124 q 581 -4 721 -4 m 581 22 q 820 83 713 22 q 990 249 928 143 q 1051 486 1051 356 q 990 723 1051 617 q 820 890 928 829 q 581 950 713 950 q 341 890 449 950 q 172 723 233 829 q 110 486 110 617 q 172 249 110 356 q 341 83 233 143 q 581 22 449 22 m 735 1051 l 581 1181 l 426 1051 l 389 1051 l 558 1204 l 603 1204 l 772 1051 l 735 1051 z "},"Ố":{"ha":1161,"x_min":82,"x_max":1079,"o":"m 581 -4 q 326 60 440 -4 q 147 235 213 124 q 82 486 82 347 q 147 737 82 625 q 326 913 213 849 q 581 976 440 976 q 835 913 721 976 q 1014 737 949 849 q 1079 486 1079 625 q 1014 235 1079 347 q 835 60 949 124 q 581 -4 721 -4 m 581 22 q 820 83 713 22 q 990 249 928 143 q 1051 486 1051 356 q 990 723 1051 617 q 820 890 928 829 q 581 950 713 950 q 341 890 449 950 q 172 723 233 829 q 110 486 110 617 q 172 249 110 356 q 341 83 233 143 q 581 22 449 22 m 731 1051 l 581 1140 l 431 1051 l 389 1051 l 560 1163 l 601 1163 l 772 1051 l 731 1051 m 861 1294 l 917 1294 l 726 1156 l 685 1156 l 861 1294 z "},"Ộ":{"ha":1161,"x_min":82,"x_max":1079,"o":"m 581 -4 q 326 60 440 -4 q 147 235 213 124 q 82 486 82 347 q 147 737 82 625 q 326 913 213 849 q 581 976 440 976 q 835 913 721 976 q 1014 737 949 849 q 1079 486 1079 625 q 1014 235 1079 347 q 835 60 949 124 q 581 -4 721 -4 m 581 22 q 820 83 713 22 q 990 249 928 143 q 1051 486 1051 356 q 990 723 1051 617 q 820 890 928 829 q 581 950 713 950 q 341 890 449 950 q 172 723 233 829 q 110 486 110 617 q 172 249 110 356 q 341 83 233 143 q 581 22 449 22 m 581 -244 q 555 -234 565 -244 q 544 -208 544 -224 q 555 -183 544 -194 q 581 -172 565 -172 q 606 -183 594 -172 q 617 -208 617 -194 q 606 -234 617 -224 q 581 -244 594 -244 m 735 1051 l 581 1181 l 426 1051 l 389 1051 l 558 1204 l 603 1204 l 772 1051 l 735 1051 z "},"Ồ":{"ha":1161,"x_min":82,"x_max":1079,"o":"m 581 -4 q 326 60 440 -4 q 147 235 213 124 q 82 486 82 347 q 147 737 82 625 q 326 913 213 849 q 581 976 440 976 q 835 913 721 976 q 1014 737 949 849 q 1079 486 1079 625 q 1014 235 1079 347 q 835 60 949 124 q 581 -4 721 -4 m 581 22 q 820 83 713 22 q 990 249 928 143 q 1051 486 1051 356 q 990 723 1051 617 q 820 890 928 829 q 581 950 713 950 q 341 890 449 950 q 172 723 233 829 q 110 486 110 617 q 172 249 110 356 q 341 83 233 143 q 581 22 449 22 m 731 1051 l 581 1140 l 431 1051 l 389 1051 l 560 1163 l 601 1163 l 772 1051 l 731 1051 m 578 1294 l 633 1294 l 810 1156 l 768 1156 l 578 1294 z "},"Ổ":{"ha":1161,"x_min":82,"x_max":1079,"o":"m 581 -4 q 326 60 440 -4 q 147 235 213 124 q 82 486 82 347 q 147 737 82 625 q 326 913 213 849 q 581 976 440 976 q 835 913 721 976 q 1014 737 949 849 q 1079 486 1079 625 q 1014 235 1079 347 q 835 60 949 124 q 581 -4 721 -4 m 581 22 q 820 83 713 22 q 990 249 928 143 q 1051 486 1051 356 q 990 723 1051 617 q 820 890 928 829 q 581 950 713 950 q 341 890 449 950 q 172 723 233 829 q 110 486 110 617 q 172 249 110 356 q 341 83 233 143 q 581 22 449 22 m 731 1051 l 581 1140 l 431 1051 l 389 1051 l 560 1163 l 601 1163 l 772 1051 l 731 1051 m 710 1157 q 756 1191 739 1171 q 772 1235 772 1211 q 756 1271 772 1257 q 714 1285 740 1285 q 654 1267 681 1285 l 643 1289 q 715 1311 674 1311 q 776 1290 754 1311 q 799 1235 799 1269 q 724 1136 799 1169 l 710 1157 z "},"Ỗ":{"ha":1161,"x_min":82,"x_max":1079,"o":"m 581 -4 q 326 60 440 -4 q 147 235 213 124 q 82 486 82 347 q 147 737 82 625 q 326 913 213 849 q 581 976 440 976 q 835 913 721 976 q 1014 737 949 849 q 1079 486 1079 625 q 1014 235 1079 347 q 835 60 949 124 q 581 -4 721 -4 m 581 22 q 820 83 713 22 q 990 249 928 143 q 1051 486 1051 356 q 990 723 1051 617 q 820 890 928 829 q 581 950 713 950 q 341 890 449 950 q 172 723 233 829 q 110 486 110 617 q 172 249 110 356 q 341 83 233 143 q 581 22 449 22 m 731 1051 l 581 1140 l 431 1051 l 389 1051 l 560 1163 l 601 1163 l 772 1051 l 731 1051 m 665 1208 q 619 1218 639 1208 q 571 1249 600 1228 q 531 1274 549 1265 q 496 1283 514 1283 q 442 1265 463 1283 q 421 1211 422 1246 l 394 1211 q 424 1283 396 1256 q 496 1310 451 1310 q 541 1300 521 1310 q 590 1269 561 1290 q 630 1244 613 1253 q 665 1235 647 1235 q 719 1253 699 1235 q 740 1304 739 1271 l 767 1304 q 738 1235 765 1261 q 665 1208 710 1208 z "},"Ȍ":{"ha":1161,"x_min":82,"x_max":1079,"o":"m 581 -4 q 326 60 440 -4 q 147 235 213 124 q 82 486 82 347 q 147 737 82 625 q 326 913 213 849 q 581 976 440 976 q 835 913 721 976 q 1014 737 949 849 q 1079 486 1079 625 q 1014 235 1079 347 q 835 60 949 124 q 581 -4 721 -4 m 581 22 q 820 83 713 22 q 990 249 928 143 q 1051 486 1051 356 q 990 723 1051 617 q 820 890 928 829 q 581 950 713 950 q 341 890 449 950 q 172 723 233 829 q 110 486 110 617 q 172 249 110 356 q 341 83 233 143 q 581 22 449 22 m 301 1204 l 349 1204 l 503 1051 l 465 1051 l 301 1204 m 494 1204 l 542 1204 l 696 1051 l 658 1051 l 494 1204 z "},"Ö":{"ha":1161,"x_min":82,"x_max":1079,"o":"m 581 -4 q 326 60 440 -4 q 147 235 213 124 q 82 486 82 347 q 147 737 82 625 q 326 913 213 849 q 581 976 440 976 q 835 913 721 976 q 1014 737 949 849 q 1079 486 1079 625 q 1014 235 1079 347 q 835 60 949 124 q 581 -4 721 -4 m 581 22 q 820 83 713 22 q 990 249 928 143 q 1051 486 1051 356 q 990 723 1051 617 q 820 890 928 829 q 581 950 713 950 q 341 890 449 950 q 172 723 233 829 q 110 486 110 617 q 172 249 110 356 q 341 83 233 143 q 581 22 449 22 m 467 1099 q 441 1110 451 1099 q 431 1135 431 1121 q 441 1160 431 1150 q 467 1171 451 1171 q 492 1160 481 1171 q 503 1135 503 1150 q 492 1110 503 1121 q 467 1099 481 1099 m 694 1099 q 669 1110 679 1099 q 658 1135 658 1121 q 669 1160 658 1150 q 694 1171 679 1171 q 719 1160 708 1171 q 731 1135 731 1150 q 719 1110 731 1121 q 694 1099 708 1099 z "},"Ȫ":{"ha":1161,"x_min":82,"x_max":1079,"o":"m 581 -4 q 326 60 440 -4 q 147 235 213 124 q 82 486 82 347 q 147 737 82 625 q 326 913 213 849 q 581 976 440 976 q 835 913 721 976 q 1014 737 949 849 q 1079 486 1079 625 q 1014 235 1079 347 q 835 60 949 124 q 581 -4 721 -4 m 581 22 q 820 83 713 22 q 990 249 928 143 q 1051 486 1051 356 q 990 723 1051 617 q 820 890 928 829 q 581 950 713 950 q 341 890 449 950 q 172 723 233 829 q 110 486 110 617 q 172 249 110 356 q 341 83 233 143 q 581 22 449 22 m 467 1099 q 441 1110 451 1099 q 431 1135 431 1121 q 441 1160 431 1150 q 467 1171 451 1171 q 492 1160 481 1171 q 503 1135 503 1150 q 492 1110 503 1121 q 467 1099 481 1099 m 694 1099 q 669 1110 679 1099 q 658 1135 658 1121 q 669 1160 658 1150 q 694 1171 679 1171 q 719 1160 708 1171 q 731 1135 731 1150 q 719 1110 731 1121 q 694 1099 708 1099 m 392 1278 l 769 1278 l 769 1250 l 392 1250 l 392 1278 z "},"Ȱ":{"ha":1161,"x_min":82,"x_max":1079,"o":"m 581 -4 q 326 60 440 -4 q 147 235 213 124 q 82 486 82 347 q 147 737 82 625 q 326 913 213 849 q 581 976 440 976 q 835 913 721 976 q 1014 737 949 849 q 1079 486 1079 625 q 1014 235 1079 347 q 835 60 949 124 q 581 -4 721 -4 m 581 22 q 820 83 713 22 q 990 249 928 143 q 1051 486 1051 356 q 990 723 1051 617 q 820 890 928 829 q 581 950 713 950 q 341 890 449 950 q 172 723 233 829 q 110 486 110 617 q 172 249 110 356 q 341 83 233 143 q 581 22 449 22 m 581 1099 q 555 1110 565 1099 q 544 1135 544 1121 q 555 1160 544 1150 q 581 1171 565 1171 q 606 1160 594 1171 q 617 1135 617 1150 q 606 1110 617 1121 q 581 1099 594 1099 m 392 1278 l 769 1278 l 769 1250 l 392 1250 l 392 1278 z "},"Ọ":{"ha":1161,"x_min":82,"x_max":1079,"o":"m 581 -4 q 326 60 440 -4 q 147 235 213 124 q 82 486 82 347 q 147 737 82 625 q 326 913 213 849 q 581 976 440 976 q 835 913 721 976 q 1014 737 949 849 q 1079 486 1079 625 q 1014 235 1079 347 q 835 60 949 124 q 581 -4 721 -4 m 581 22 q 820 83 713 22 q 990 249 928 143 q 1051 486 1051 356 q 990 723 1051 617 q 820 890 928 829 q 581 950 713 950 q 341 890 449 950 q 172 723 233 829 q 110 486 110 617 q 172 249 110 356 q 341 83 233 143 q 581 22 449 22 m 581 -244 q 555 -234 565 -244 q 544 -208 544 -224 q 555 -183 544 -194 q 581 -172 565 -172 q 606 -183 594 -172 q 617 -208 617 -194 q 606 -234 617 -224 q 581 -244 594 -244 z "},"Ò":{"ha":1161,"x_min":82,"x_max":1079,"o":"m 581 -4 q 326 60 440 -4 q 147 235 213 124 q 82 486 82 347 q 147 737 82 625 q 326 913 213 849 q 581 976 440 976 q 835 913 721 976 q 1014 737 949 849 q 1079 486 1079 625 q 1014 235 1079 347 q 835 60 949 124 q 581 -4 721 -4 m 581 22 q 820 83 713 22 q 990 249 928 143 q 1051 486 1051 356 q 990 723 1051 617 q 820 890 928 829 q 581 950 713 950 q 341 890 449 950 q 172 723 233 829 q 110 486 110 617 q 172 249 110 356 q 341 83 233 143 q 581 22 449 22 m 393 1204 l 449 1204 l 643 1051 l 601 1051 l 393 1204 z "},"Ỏ":{"ha":1161,"x_min":82,"x_max":1079,"o":"m 581 -4 q 326 60 440 -4 q 147 235 213 124 q 82 486 82 347 q 147 737 82 625 q 326 913 213 849 q 581 976 440 976 q 835 913 721 976 q 1014 737 949 849 q 1079 486 1079 625 q 1014 235 1079 347 q 835 60 949 124 q 581 -4 721 -4 m 581 22 q 820 83 713 22 q 990 249 928 143 q 1051 486 1051 356 q 990 723 1051 617 q 820 890 928 829 q 581 950 713 950 q 341 890 449 950 q 172 723 233 829 q 110 486 110 617 q 172 249 110 356 q 341 83 233 143 q 581 22 449 22 m 569 1068 q 657 1175 657 1107 q 634 1228 657 1207 q 576 1250 611 1250 q 490 1224 531 1250 l 479 1247 q 524 1269 497 1261 q 575 1276 550 1276 q 655 1249 625 1276 q 685 1176 685 1222 q 660 1103 685 1135 q 583 1046 635 1071 l 569 1068 z "},"Ơ":{"ha":1161,"x_min":82,"x_max":1079,"o":"m 788 935 q 1001 758 922 879 q 1079 486 1079 636 q 1014 235 1079 347 q 835 60 949 124 q 581 -4 721 -4 q 326 60 440 -4 q 147 235 213 124 q 82 486 82 347 q 147 737 82 625 q 326 913 213 849 q 581 976 440 976 q 746 965 646 976 q 871 956 819 956 q 1024 1069 1024 956 q 996 1163 1024 1114 l 1021 1174 q 1043 1125 1035 1153 q 1051 1071 1051 1097 q 871 929 1051 929 q 788 935 828 929 m 581 22 q 820 83 713 22 q 990 251 928 144 q 1051 486 1051 357 q 990 722 1051 615 q 820 889 928 828 q 581 950 713 950 q 341 889 449 950 q 172 722 233 828 q 110 486 110 615 q 172 251 110 357 q 341 83 233 144 q 581 22 449 22 z "},"Ớ":{"ha":1161,"x_min":82,"x_max":1079,"o":"m 788 935 q 1001 758 922 879 q 1079 486 1079 636 q 1014 235 1079 347 q 835 60 949 124 q 581 -4 721 -4 q 326 60 440 -4 q 147 235 213 124 q 82 486 82 347 q 147 737 82 625 q 326 913 213 849 q 581 976 440 976 q 746 965 646 976 q 871 956 819 956 q 1024 1069 1024 956 q 996 1163 1024 1114 l 1021 1174 q 1043 1125 1035 1153 q 1051 1071 1051 1097 q 871 929 1051 929 q 788 935 828 929 m 581 22 q 820 83 713 22 q 990 251 928 144 q 1051 486 1051 357 q 990 722 1051 615 q 820 889 928 828 q 581 950 713 950 q 341 889 449 950 q 172 722 233 828 q 110 486 110 615 q 172 251 110 357 q 341 83 233 144 q 581 22 449 22 m 713 1204 l 768 1204 l 560 1051 l 518 1051 l 713 1204 z "},"Ợ":{"ha":1161,"x_min":82,"x_max":1079,"o":"m 788 935 q 1001 758 922 879 q 1079 486 1079 636 q 1014 235 1079 347 q 835 60 949 124 q 581 -4 721 -4 q 326 60 440 -4 q 147 235 213 124 q 82 486 82 347 q 147 737 82 625 q 326 913 213 849 q 581 976 440 976 q 746 965 646 976 q 871 956 819 956 q 1024 1069 1024 956 q 996 1163 1024 1114 l 1021 1174 q 1043 1125 1035 1153 q 1051 1071 1051 1097 q 871 929 1051 929 q 788 935 828 929 m 581 22 q 820 83 713 22 q 990 251 928 144 q 1051 486 1051 357 q 990 722 1051 615 q 820 889 928 828 q 581 950 713 950 q 341 889 449 950 q 172 722 233 828 q 110 486 110 615 q 172 251 110 357 q 341 83 233 144 q 581 22 449 22 m 581 -244 q 555 -234 565 -244 q 544 -208 544 -224 q 555 -183 544 -194 q 581 -172 565 -172 q 606 -183 594 -172 q 617 -208 617 -194 q 606 -234 617 -224 q 581 -244 594 -244 z "},"Ờ":{"ha":1161,"x_min":82,"x_max":1079,"o":"m 788 935 q 1001 758 922 879 q 1079 486 1079 636 q 1014 235 1079 347 q 835 60 949 124 q 581 -4 721 -4 q 326 60 440 -4 q 147 235 213 124 q 82 486 82 347 q 147 737 82 625 q 326 913 213 849 q 581 976 440 976 q 746 965 646 976 q 871 956 819 956 q 1024 1069 1024 956 q 996 1163 1024 1114 l 1021 1174 q 1043 1125 1035 1153 q 1051 1071 1051 1097 q 871 929 1051 929 q 788 935 828 929 m 581 22 q 820 83 713 22 q 990 251 928 144 q 1051 486 1051 357 q 990 722 1051 615 q 820 889 928 828 q 581 950 713 950 q 341 889 449 950 q 172 722 233 828 q 110 486 110 615 q 172 251 110 357 q 341 83 233 144 q 581 22 449 22 m 393 1204 l 449 1204 l 643 1051 l 601 1051 l 393 1204 z "},"Ở":{"ha":1161,"x_min":82,"x_max":1079,"o":"m 788 935 q 1001 758 922 879 q 1079 486 1079 636 q 1014 235 1079 347 q 835 60 949 124 q 581 -4 721 -4 q 326 60 440 -4 q 147 235 213 124 q 82 486 82 347 q 147 737 82 625 q 326 913 213 849 q 581 976 440 976 q 746 965 646 976 q 871 956 819 956 q 1024 1069 1024 956 q 996 1163 1024 1114 l 1021 1174 q 1043 1125 1035 1153 q 1051 1071 1051 1097 q 871 929 1051 929 q 788 935 828 929 m 581 22 q 820 83 713 22 q 990 251 928 144 q 1051 486 1051 357 q 990 722 1051 615 q 820 889 928 828 q 581 950 713 950 q 341 889 449 950 q 172 722 233 828 q 110 486 110 615 q 172 251 110 357 q 341 83 233 144 q 581 22 449 22 m 569 1068 q 657 1175 657 1107 q 634 1228 657 1207 q 576 1250 611 1250 q 490 1224 531 1250 l 479 1247 q 524 1269 497 1261 q 575 1276 550 1276 q 655 1249 625 1276 q 685 1176 685 1222 q 660 1103 685 1135 q 583 1046 635 1071 l 569 1068 z "},"Ỡ":{"ha":1161,"x_min":82,"x_max":1079,"o":"m 788 935 q 1001 758 922 879 q 1079 486 1079 636 q 1014 235 1079 347 q 835 60 949 124 q 581 -4 721 -4 q 326 60 440 -4 q 147 235 213 124 q 82 486 82 347 q 147 737 82 625 q 326 913 213 849 q 581 976 440 976 q 746 965 646 976 q 871 956 819 956 q 1024 1069 1024 956 q 996 1163 1024 1114 l 1021 1174 q 1043 1125 1035 1153 q 1051 1071 1051 1097 q 871 929 1051 929 q 788 935 828 929 m 581 22 q 820 83 713 22 q 990 251 928 144 q 1051 486 1051 357 q 990 722 1051 615 q 820 889 928 828 q 581 950 713 950 q 341 889 449 950 q 172 722 233 828 q 110 486 110 615 q 172 251 110 357 q 341 83 233 144 q 581 22 449 22 m 668 1068 q 619 1081 640 1068 q 569 1121 597 1094 q 530 1153 547 1142 q 493 1164 513 1164 q 440 1139 460 1164 q 418 1071 421 1114 l 392 1071 q 422 1158 394 1125 q 493 1190 449 1190 q 542 1177 521 1190 q 592 1138 564 1164 q 631 1106 614 1117 q 668 1094 649 1094 q 721 1119 701 1094 q 743 1185 740 1143 l 769 1185 q 740 1100 767 1132 q 668 1068 713 1068 z "},"Ő":{"ha":1161,"x_min":82,"x_max":1079,"o":"m 581 -4 q 326 60 440 -4 q 147 235 213 124 q 82 486 82 347 q 147 737 82 625 q 326 913 213 849 q 581 976 440 976 q 835 913 721 976 q 1014 737 949 849 q 1079 486 1079 625 q 1014 235 1079 347 q 835 60 949 124 q 581 -4 721 -4 m 581 22 q 820 83 713 22 q 990 249 928 143 q 1051 486 1051 356 q 990 723 1051 617 q 820 890 928 829 q 581 950 713 950 q 341 890 449 950 q 172 723 233 829 q 110 486 110 617 q 172 249 110 356 q 341 83 233 143 q 581 22 449 22 m 619 1204 l 667 1204 l 503 1051 l 465 1051 l 619 1204 m 813 1204 l 860 1204 l 696 1051 l 658 1051 l 813 1204 z "},"Ȏ":{"ha":1161,"x_min":82,"x_max":1079,"o":"m 581 -4 q 326 60 440 -4 q 147 235 213 124 q 82 486 82 347 q 147 737 82 625 q 326 913 213 849 q 581 976 440 976 q 835 913 721 976 q 1014 737 949 849 q 1079 486 1079 625 q 1014 235 1079 347 q 835 60 949 124 q 581 -4 721 -4 m 581 22 q 820 83 713 22 q 990 249 928 143 q 1051 486 1051 356 q 990 723 1051 617 q 820 890 928 829 q 581 950 713 950 q 341 890 449 950 q 172 723 233 829 q 110 486 110 617 q 172 249 110 356 q 341 83 233 143 q 581 22 449 22 m 397 1051 q 451 1165 399 1122 q 581 1208 504 1208 q 710 1165 657 1208 q 764 1051 763 1122 l 738 1051 q 692 1147 736 1111 q 581 1182 647 1182 q 469 1147 514 1182 q 424 1051 425 1111 l 397 1051 z "},"Ō":{"ha":1161,"x_min":82,"x_max":1079,"o":"m 581 -4 q 326 60 440 -4 q 147 235 213 124 q 82 486 82 347 q 147 737 82 625 q 326 913 213 849 q 581 976 440 976 q 835 913 721 976 q 1014 737 949 849 q 1079 486 1079 625 q 1014 235 1079 347 q 835 60 949 124 q 581 -4 721 -4 m 581 22 q 820 83 713 22 q 990 249 928 143 q 1051 486 1051 356 q 990 723 1051 617 q 820 890 928 829 q 581 950 713 950 q 341 890 449 950 q 172 723 233 829 q 110 486 110 617 q 172 249 110 356 q 341 83 233 143 q 581 22 449 22 m 392 1142 l 769 1142 l 769 1114 l 392 1114 l 392 1142 z "},"Ṓ":{"ha":1161,"x_min":82,"x_max":1079,"o":"m 581 -4 q 326 60 440 -4 q 147 235 213 124 q 82 486 82 347 q 147 737 82 625 q 326 913 213 849 q 581 976 440 976 q 835 913 721 976 q 1014 737 949 849 q 1079 486 1079 625 q 1014 235 1079 347 q 835 60 949 124 q 581 -4 721 -4 m 581 22 q 820 83 713 22 q 990 249 928 143 q 1051 486 1051 356 q 990 723 1051 617 q 820 890 928 829 q 581 950 713 950 q 341 890 449 950 q 172 723 233 829 q 110 486 110 617 q 172 249 110 356 q 341 83 233 143 q 581 22 449 22 m 392 1121 l 769 1121 l 769 1093 l 392 1093 l 392 1121 m 694 1347 l 750 1347 l 560 1208 l 518 1208 l 694 1347 z "},"Ṑ":{"ha":1161,"x_min":82,"x_max":1079,"o":"m 581 -4 q 326 60 440 -4 q 147 235 213 124 q 82 486 82 347 q 147 737 82 625 q 326 913 213 849 q 581 976 440 976 q 835 913 721 976 q 1014 737 949 849 q 1079 486 1079 625 q 1014 235 1079 347 q 835 60 949 124 q 581 -4 721 -4 m 581 22 q 820 83 713 22 q 990 249 928 143 q 1051 486 1051 356 q 990 723 1051 617 q 820 890 928 829 q 581 950 713 950 q 341 890 449 950 q 172 723 233 829 q 110 486 110 617 q 172 249 110 356 q 341 83 233 143 q 581 22 449 22 m 392 1121 l 769 1121 l 769 1093 l 392 1093 l 392 1121 m 411 1347 l 467 1347 l 643 1208 l 601 1208 l 411 1347 z "},"Ǫ":{"ha":1161,"x_min":82,"x_max":1079,"o":"m 581 976 q 835 913 721 976 q 1014 737 949 849 q 1079 486 1079 625 q 1028 260 1079 361 q 889 94 976 160 q 694 8 801 29 q 540 -62 606 -10 q 475 -181 475 -115 q 503 -247 475 -224 q 575 -269 531 -269 q 661 -237 626 -269 l 676 -258 q 574 -296 633 -296 q 483 -265 518 -296 q 447 -181 447 -233 q 478 -91 447 -136 q 583 -4 508 -46 l 581 -4 q 326 60 440 -4 q 147 235 213 124 q 82 486 82 347 q 147 737 82 625 q 326 913 213 849 q 581 976 440 976 m 581 22 q 820 83 713 22 q 990 249 928 143 q 1051 486 1051 356 q 990 723 1051 617 q 820 890 928 829 q 581 950 713 950 q 341 890 449 950 q 172 723 233 829 q 110 486 110 617 q 172 249 110 356 q 341 83 233 143 q 581 22 449 22 z "},"Ø":{"ha":1161,"x_min":82,"x_max":1079,"o":"m 581 -4 q 326 60 440 -4 q 147 235 213 124 q 82 486 82 347 q 147 737 82 625 q 326 913 213 849 q 581 976 440 976 q 835 913 721 976 q 1014 737 949 849 q 1079 486 1079 625 q 1014 235 1079 347 q 835 60 949 124 q 581 -4 721 -4 m 581 22 q 820 83 713 22 q 990 249 928 143 q 1051 486 1051 356 q 990 723 1051 617 q 820 890 928 829 q 581 950 713 950 q 341 890 449 950 q 172 723 233 829 q 110 486 110 617 q 172 249 110 356 q 341 83 233 143 q 581 22 449 22 m 992 1069 l 1024 1069 l 169 -97 l 138 -97 l 992 1069 z "},"Ǿ":{"ha":1161,"x_min":82,"x_max":1079,"o":"m 581 -4 q 326 60 440 -4 q 147 235 213 124 q 82 486 82 347 q 147 737 82 625 q 326 913 213 849 q 581 976 440 976 q 835 913 721 976 q 1014 737 949 849 q 1079 486 1079 625 q 1014 235 1079 347 q 835 60 949 124 q 581 -4 721 -4 m 581 22 q 820 83 713 22 q 990 249 928 143 q 1051 486 1051 356 q 990 723 1051 617 q 820 890 928 829 q 581 950 713 950 q 341 890 449 950 q 172 723 233 829 q 110 486 110 617 q 172 249 110 356 q 341 83 233 143 q 581 22 449 22 m 992 1069 l 1024 1069 l 169 -97 l 138 -97 l 992 1069 m 713 1204 l 768 1204 l 560 1051 l 518 1051 l 713 1204 z "},"Õ":{"ha":1161,"x_min":82,"x_max":1079,"o":"m 581 -4 q 326 60 440 -4 q 147 235 213 124 q 82 486 82 347 q 147 737 82 625 q 326 913 213 849 q 581 976 440 976 q 835 913 721 976 q 1014 737 949 849 q 1079 486 1079 625 q 1014 235 1079 347 q 835 60 949 124 q 581 -4 721 -4 m 581 22 q 820 83 713 22 q 990 249 928 143 q 1051 486 1051 356 q 990 723 1051 617 q 820 890 928 829 q 581 950 713 950 q 341 890 449 950 q 172 723 233 829 q 110 486 110 617 q 172 249 110 356 q 341 83 233 143 q 581 22 449 22 m 668 1068 q 619 1081 640 1068 q 569 1121 597 1094 q 530 1153 547 1142 q 493 1164 513 1164 q 440 1139 460 1164 q 418 1071 421 1114 l 392 1071 q 422 1158 394 1125 q 493 1190 449 1190 q 542 1177 521 1190 q 592 1138 564 1164 q 631 1106 614 1117 q 668 1094 649 1094 q 721 1119 701 1094 q 743 1185 740 1143 l 769 1185 q 740 1100 767 1132 q 668 1068 713 1068 z "},"Ṍ":{"ha":1161,"x_min":82,"x_max":1079,"o":"m 581 -4 q 326 60 440 -4 q 147 235 213 124 q 82 486 82 347 q 147 737 82 625 q 326 913 213 849 q 581 976 440 976 q 835 913 721 976 q 1014 737 949 849 q 1079 486 1079 625 q 1014 235 1079 347 q 835 60 949 124 q 581 -4 721 -4 m 581 22 q 820 83 713 22 q 990 249 928 143 q 1051 486 1051 356 q 990 723 1051 617 q 820 890 928 829 q 581 950 713 950 q 341 890 449 950 q 172 723 233 829 q 110 486 110 617 q 172 249 110 356 q 341 83 233 143 q 581 22 449 22 m 665 1072 q 619 1082 639 1072 q 571 1113 600 1092 q 531 1138 549 1129 q 496 1147 514 1147 q 442 1128 463 1147 q 421 1075 422 1110 l 394 1075 q 424 1147 396 1119 q 496 1174 451 1174 q 541 1164 521 1174 q 590 1133 561 1154 q 630 1108 613 1117 q 665 1099 647 1099 q 719 1117 699 1099 q 740 1168 739 1135 l 767 1168 q 738 1099 765 1125 q 665 1072 710 1072 m 694 1347 l 750 1347 l 560 1208 l 518 1208 l 694 1347 z "},"Ṏ":{"ha":1161,"x_min":82,"x_max":1079,"o":"m 581 -4 q 326 60 440 -4 q 147 235 213 124 q 82 486 82 347 q 147 737 82 625 q 326 913 213 849 q 581 976 440 976 q 835 913 721 976 q 1014 737 949 849 q 1079 486 1079 625 q 1014 235 1079 347 q 835 60 949 124 q 581 -4 721 -4 m 581 22 q 820 83 713 22 q 990 249 928 143 q 1051 486 1051 356 q 990 723 1051 617 q 820 890 928 829 q 581 950 713 950 q 341 890 449 950 q 172 723 233 829 q 110 486 110 617 q 172 249 110 356 q 341 83 233 143 q 581 22 449 22 m 665 1072 q 619 1082 639 1072 q 571 1113 600 1092 q 531 1138 549 1129 q 496 1147 514 1147 q 442 1128 463 1147 q 421 1075 422 1110 l 394 1075 q 424 1147 396 1119 q 496 1174 451 1174 q 541 1164 521 1174 q 590 1133 561 1154 q 630 1108 613 1117 q 665 1099 647 1099 q 719 1117 699 1099 q 740 1168 739 1135 l 767 1168 q 738 1099 765 1125 q 665 1072 710 1072 m 467 1256 q 441 1267 451 1256 q 431 1292 431 1278 q 441 1317 431 1307 q 467 1328 451 1328 q 492 1317 481 1328 q 503 1292 503 1307 q 492 1267 503 1278 q 467 1256 481 1256 m 694 1256 q 669 1267 679 1256 q 658 1292 658 1278 q 669 1317 658 1307 q 694 1328 679 1328 q 719 1317 708 1328 q 731 1292 731 1307 q 719 1267 731 1278 q 694 1256 708 1256 z "},"Ȭ":{"ha":1161,"x_min":82,"x_max":1079,"o":"m 581 -4 q 326 60 440 -4 q 147 235 213 124 q 82 486 82 347 q 147 737 82 625 q 326 913 213 849 q 581 976 440 976 q 835 913 721 976 q 1014 737 949 849 q 1079 486 1079 625 q 1014 235 1079 347 q 835 60 949 124 q 581 -4 721 -4 m 581 22 q 820 83 713 22 q 990 249 928 143 q 1051 486 1051 356 q 990 723 1051 617 q 820 890 928 829 q 581 950 713 950 q 341 890 449 950 q 172 723 233 829 q 110 486 110 617 q 172 249 110 356 q 341 83 233 143 q 581 22 449 22 m 665 1072 q 619 1082 639 1072 q 571 1113 600 1092 q 531 1138 549 1129 q 496 1147 514 1147 q 442 1128 463 1147 q 421 1075 422 1110 l 394 1075 q 424 1147 396 1119 q 496 1174 451 1174 q 541 1164 521 1174 q 590 1133 561 1154 q 630 1108 613 1117 q 665 1099 647 1099 q 719 1117 699 1099 q 740 1168 739 1135 l 767 1168 q 738 1099 765 1125 q 665 1072 710 1072 m 392 1278 l 769 1278 l 769 1250 l 392 1250 l 392 1278 z "},"Œ":{"ha":1544,"x_min":82,"x_max":1449,"o":"m 1449 26 l 1449 0 l 594 0 q 328 63 444 0 q 147 235 211 125 q 82 485 82 346 q 147 735 82 624 q 328 909 211 846 q 594 972 444 972 l 1428 972 l 1428 946 l 829 946 l 829 507 l 1365 507 l 1365 481 l 829 481 l 829 26 l 1449 26 m 801 26 l 801 946 l 594 946 q 340 886 450 946 q 170 722 231 826 q 110 485 110 617 q 170 249 110 353 q 340 85 231 144 q 594 26 450 26 l 801 26 z "},"P":{"ha":986,"x_min":185,"x_max":896,"o":"m 514 972 q 794 888 693 972 q 896 653 896 804 q 794 417 896 501 q 514 333 693 333 l 213 333 l 213 0 l 185 0 l 185 972 l 514 972 m 517 360 q 777 436 686 360 q 868 653 868 513 q 777 869 868 793 q 517 946 686 946 l 213 946 l 213 360 l 517 360 z "},"Þ":{"ha":986,"x_min":185,"x_max":896,"o":"m 514 833 q 794 749 693 833 q 896 514 896 665 q 794 278 896 363 q 514 193 693 193 l 213 193 l 213 0 l 185 0 l 185 972 l 213 972 l 213 833 l 514 833 m 517 219 q 777 296 686 219 q 868 514 868 372 q 777 731 868 654 q 517 807 686 807 l 213 807 l 213 219 l 517 219 z "},"Q":{"ha":1161,"x_min":82,"x_max":1121,"o":"m 1121 -67 q 1022 -145 1078 -118 q 900 -172 965 -172 q 756 -132 828 -172 q 599 -4 683 -92 l 581 -4 q 326 60 440 -4 q 147 235 213 124 q 82 486 82 347 q 147 737 82 625 q 326 913 213 849 q 581 976 440 976 q 835 913 721 976 q 1014 737 949 849 q 1079 486 1079 625 q 1022 251 1079 357 q 865 78 965 144 q 638 -1 764 11 q 900 -146 774 -146 q 1101 -47 1019 -146 l 1121 -67 m 110 486 q 172 251 110 357 q 341 83 233 144 q 581 22 449 22 q 820 83 713 22 q 990 251 928 144 q 1051 486 1051 357 q 990 722 1051 615 q 820 889 928 828 q 581 950 713 950 q 341 889 449 950 q 172 722 233 828 q 110 486 110 615 z "},"R":{"ha":994,"x_min":185,"x_max":910,"o":"m 875 0 l 628 343 q 514 333 579 333 l 213 333 l 213 0 l 185 0 l 185 972 l 514 972 q 794 888 693 972 q 896 653 896 804 q 833 458 896 536 q 657 350 771 379 l 910 0 l 875 0 m 517 360 q 777 436 686 360 q 868 653 868 513 q 777 869 868 793 q 517 946 686 946 l 213 946 l 213 360 l 517 360 z "},"Ŕ":{"ha":994,"x_min":185,"x_max":910,"o":"m 875 0 l 628 343 q 514 333 579 333 l 213 333 l 213 0 l 185 0 l 185 972 l 514 972 q 794 888 693 972 q 896 653 896 804 q 833 458 896 536 q 657 350 771 379 l 910 0 l 875 0 m 517 360 q 777 436 686 360 q 868 653 868 513 q 777 869 868 793 q 517 946 686 946 l 213 946 l 213 360 l 517 360 m 640 1204 l 696 1204 l 488 1051 l 446 1051 l 640 1204 z "},"Ř":{"ha":994,"x_min":185,"x_max":910,"o":"m 875 0 l 628 343 q 514 333 579 333 l 213 333 l 213 0 l 185 0 l 185 972 l 514 972 q 794 888 693 972 q 896 653 896 804 q 833 458 896 536 q 657 350 771 379 l 910 0 l 875 0 m 517 360 q 777 436 686 360 q 868 653 868 513 q 777 869 868 793 q 517 946 686 946 l 213 946 l 213 360 l 517 360 m 700 1204 l 531 1051 l 486 1051 l 317 1204 l 354 1204 l 508 1075 l 663 1204 l 700 1204 z "},"Ŗ":{"ha":994,"x_min":185,"x_max":910,"o":"m 875 0 l 628 343 q 514 333 579 333 l 213 333 l 213 0 l 185 0 l 185 972 l 514 972 q 794 888 693 972 q 896 653 896 804 q 833 458 896 536 q 657 350 771 379 l 910 0 l 875 0 m 517 360 q 777 436 686 360 q 868 653 868 513 q 777 869 868 793 q 517 946 686 946 l 213 946 l 213 360 l 517 360 m 508 -172 q 534 -183 524 -172 q 544 -208 544 -194 q 536 -253 544 -222 l 504 -360 l 479 -360 l 504 -244 q 481 -232 490 -242 q 472 -208 472 -222 q 483 -183 472 -193 q 508 -172 493 -172 z "},"Ȑ":{"ha":994,"x_min":185,"x_max":910,"o":"m 875 0 l 628 343 q 514 333 579 333 l 213 333 l 213 0 l 185 0 l 185 972 l 514 972 q 794 888 693 972 q 896 653 896 804 q 833 458 896 536 q 657 350 771 379 l 910 0 l 875 0 m 517 360 q 777 436 686 360 q 868 653 868 513 q 777 869 868 793 q 517 946 686 946 l 213 946 l 213 360 l 517 360 m 229 1204 l 276 1204 l 431 1051 l 393 1051 l 229 1204 m 422 1204 l 469 1204 l 624 1051 l 586 1051 l 422 1204 z "},"Ṛ":{"ha":994,"x_min":185,"x_max":910,"o":"m 875 0 l 628 343 q 514 333 579 333 l 213 333 l 213 0 l 185 0 l 185 972 l 514 972 q 794 888 693 972 q 896 653 896 804 q 833 458 896 536 q 657 350 771 379 l 910 0 l 875 0 m 517 360 q 777 436 686 360 q 868 653 868 513 q 777 869 868 793 q 517 946 686 946 l 213 946 l 213 360 l 517 360 m 508 -244 q 483 -234 493 -244 q 472 -208 472 -224 q 483 -183 472 -194 q 508 -172 493 -172 q 533 -183 522 -172 q 544 -208 544 -194 q 533 -234 544 -224 q 508 -244 522 -244 z "},"Ȓ":{"ha":994,"x_min":185,"x_max":910,"o":"m 875 0 l 628 343 q 514 333 579 333 l 213 333 l 213 0 l 185 0 l 185 972 l 514 972 q 794 888 693 972 q 896 653 896 804 q 833 458 896 536 q 657 350 771 379 l 910 0 l 875 0 m 517 360 q 777 436 686 360 q 868 653 868 513 q 777 869 868 793 q 517 946 686 946 l 213 946 l 213 360 l 517 360 m 325 1051 q 379 1165 326 1122 q 508 1208 432 1208 q 638 1165 585 1208 q 692 1051 690 1122 l 665 1051 q 619 1147 664 1111 q 508 1182 575 1182 q 397 1147 442 1182 q 351 1051 353 1111 l 325 1051 z "},"Ṟ":{"ha":994,"x_min":185,"x_max":910,"o":"m 875 0 l 628 343 q 514 333 579 333 l 213 333 l 213 0 l 185 0 l 185 972 l 514 972 q 794 888 693 972 q 896 653 896 804 q 833 458 896 536 q 657 350 771 379 l 910 0 l 875 0 m 517 360 q 777 436 686 360 q 868 653 868 513 q 777 869 868 793 q 517 946 686 946 l 213 946 l 213 360 l 517 360 m 319 -194 l 697 -194 l 697 -222 l 319 -222 l 319 -194 z "},"S":{"ha":835,"x_min":81,"x_max":754,"o":"m 422 -4 q 224 34 317 -4 q 81 133 131 72 l 100 151 q 235 59 147 96 q 421 22 322 22 q 649 83 572 22 q 726 239 726 143 q 686 358 726 314 q 587 425 646 403 q 428 471 528 447 q 258 522 321 497 q 152 597 196 546 q 108 732 108 647 q 143 854 108 799 q 251 943 178 910 q 433 976 325 976 q 586 952 511 976 q 715 888 661 928 l 700 865 q 573 928 643 907 q 435 950 503 950 q 213 888 289 950 q 136 731 136 826 q 176 610 136 656 q 276 543 217 565 q 438 496 336 521 q 606 445 543 469 q 711 372 668 421 q 754 239 754 322 q 718 117 754 172 q 608 28 682 61 q 422 -4 533 -4 z "},"Ś":{"ha":835,"x_min":81,"x_max":754,"o":"m 422 -4 q 224 34 317 -4 q 81 133 131 72 l 100 151 q 235 59 147 96 q 421 22 322 22 q 649 83 572 22 q 726 239 726 143 q 686 358 726 314 q 587 425 646 403 q 428 471 528 447 q 258 522 321 497 q 152 597 196 546 q 108 732 108 647 q 143 854 108 799 q 251 943 178 910 q 433 976 325 976 q 586 952 511 976 q 715 888 661 928 l 700 865 q 573 928 643 907 q 435 950 503 950 q 213 888 289 950 q 136 731 136 826 q 176 610 136 656 q 276 543 217 565 q 438 496 336 521 q 606 445 543 469 q 711 372 668 421 q 754 239 754 322 q 718 117 754 172 q 608 28 682 61 q 422 -4 533 -4 m 574 1204 l 629 1204 l 421 1051 l 379 1051 l 574 1204 z "},"Ṥ":{"ha":835,"x_min":81,"x_max":754,"o":"m 422 -4 q 224 34 317 -4 q 81 133 131 72 l 100 151 q 235 59 147 96 q 421 22 322 22 q 649 83 572 22 q 726 239 726 143 q 686 358 726 314 q 587 425 646 403 q 428 471 528 447 q 258 522 321 497 q 152 597 196 546 q 108 732 108 647 q 143 854 108 799 q 251 943 178 910 q 433 976 325 976 q 586 952 511 976 q 715 888 661 928 l 700 865 q 573 928 643 907 q 435 950 503 950 q 213 888 289 950 q 136 731 136 826 q 176 610 136 656 q 276 543 217 565 q 438 496 336 521 q 606 445 543 469 q 711 372 668 421 q 754 239 754 322 q 718 117 754 172 q 608 28 682 61 q 422 -4 533 -4 m 556 1190 l 611 1190 l 421 1051 l 379 1051 l 556 1190 m 442 1256 q 416 1267 426 1256 q 406 1292 406 1278 q 416 1317 406 1307 q 442 1328 426 1328 q 467 1317 456 1328 q 478 1292 478 1307 q 467 1267 478 1278 q 442 1256 456 1256 z "},"Ꞌ":{"ha":289,"x_min":131,"x_max":158,"o":"m 131 972 l 158 972 l 158 415 l 131 415 l 131 972 z "},"Š":{"ha":835,"x_min":81,"x_max":754,"o":"m 422 -4 q 224 34 317 -4 q 81 133 131 72 l 100 151 q 235 59 147 96 q 421 22 322 22 q 649 83 572 22 q 726 239 726 143 q 686 358 726 314 q 587 425 646 403 q 428 471 528 447 q 258 522 321 497 q 152 597 196 546 q 108 732 108 647 q 143 854 108 799 q 251 943 178 910 q 433 976 325 976 q 586 952 511 976 q 715 888 661 928 l 700 865 q 573 928 643 907 q 435 950 503 950 q 213 888 289 950 q 136 731 136 826 q 176 610 136 656 q 276 543 217 565 q 438 496 336 521 q 606 445 543 469 q 711 372 668 421 q 754 239 754 322 q 718 117 754 172 q 608 28 682 61 q 422 -4 533 -4 m 633 1204 l 464 1051 l 419 1051 l 250 1204 l 288 1204 l 442 1075 l 596 1204 l 633 1204 z "},"Ṧ":{"ha":835,"x_min":81,"x_max":754,"o":"m 422 -4 q 224 34 317 -4 q 81 133 131 72 l 100 151 q 235 59 147 96 q 421 22 322 22 q 649 83 572 22 q 726 239 726 143 q 686 358 726 314 q 587 425 646 403 q 428 471 528 447 q 258 522 321 497 q 152 597 196 546 q 108 732 108 647 q 143 854 108 799 q 251 943 178 910 q 433 976 325 976 q 586 952 511 976 q 715 888 661 928 l 700 865 q 573 928 643 907 q 435 950 503 950 q 213 888 289 950 q 136 731 136 826 q 176 610 136 656 q 276 543 217 565 q 438 496 336 521 q 606 445 543 469 q 711 372 668 421 q 754 239 754 322 q 718 117 754 172 q 608 28 682 61 q 422 -4 533 -4 m 633 1163 l 463 1051 l 421 1051 l 250 1163 l 292 1163 l 442 1074 l 592 1163 l 633 1163 m 442 1224 q 416 1235 426 1224 q 406 1260 406 1246 q 416 1285 406 1275 q 442 1296 426 1296 q 467 1285 456 1296 q 478 1260 478 1275 q 467 1235 478 1246 q 442 1224 456 1224 z "},"Ş":{"ha":835,"x_min":81,"x_max":754,"o":"m 422 -4 q 224 34 317 -4 q 81 133 131 72 l 100 151 q 235 59 147 96 q 421 22 322 22 q 649 83 572 22 q 726 239 726 143 q 686 358 726 314 q 587 425 646 403 q 428 471 528 447 q 258 522 321 497 q 152 597 196 546 q 108 732 108 647 q 143 854 108 799 q 251 943 178 910 q 433 976 325 976 q 586 952 511 976 q 715 888 661 928 l 700 865 q 573 928 643 907 q 435 950 503 950 q 213 888 289 950 q 136 731 136 826 q 176 610 136 656 q 276 543 217 565 q 438 496 336 521 q 606 445 543 469 q 711 372 668 421 q 754 239 754 322 q 718 117 754 172 q 608 28 682 61 q 422 -4 533 -4 m 419 -296 q 317 -258 360 -296 l 332 -237 q 418 -269 367 -269 q 490 -247 463 -269 q 518 -186 518 -225 q 492 -126 518 -149 q 419 -103 465 -103 l 397 -103 l 428 7 l 454 7 l 431 -78 q 515 -110 483 -81 q 546 -186 546 -139 q 510 -266 546 -236 q 419 -296 475 -296 z "},"Ŝ":{"ha":835,"x_min":81,"x_max":754,"o":"m 422 -4 q 224 34 317 -4 q 81 133 131 72 l 100 151 q 235 59 147 96 q 421 22 322 22 q 649 83 572 22 q 726 239 726 143 q 686 358 726 314 q 587 425 646 403 q 428 471 528 447 q 258 522 321 497 q 152 597 196 546 q 108 732 108 647 q 143 854 108 799 q 251 943 178 910 q 433 976 325 976 q 586 952 511 976 q 715 888 661 928 l 700 865 q 573 928 643 907 q 435 950 503 950 q 213 888 289 950 q 136 731 136 826 q 176 610 136 656 q 276 543 217 565 q 438 496 336 521 q 606 445 543 469 q 711 372 668 421 q 754 239 754 322 q 718 117 754 172 q 608 28 682 61 q 422 -4 533 -4 m 596 1051 l 442 1181 l 288 1051 l 250 1051 l 419 1204 l 464 1204 l 633 1051 l 596 1051 z "},"Ș":{"ha":835,"x_min":81,"x_max":754,"o":"m 422 -4 q 224 34 317 -4 q 81 133 131 72 l 100 151 q 235 59 147 96 q 421 22 322 22 q 649 83 572 22 q 726 239 726 143 q 686 358 726 314 q 587 425 646 403 q 428 471 528 447 q 258 522 321 497 q 152 597 196 546 q 108 732 108 647 q 143 854 108 799 q 251 943 178 910 q 433 976 325 976 q 586 952 511 976 q 715 888 661 928 l 700 865 q 573 928 643 907 q 435 950 503 950 q 213 888 289 950 q 136 731 136 826 q 176 610 136 656 q 276 543 217 565 q 438 496 336 521 q 606 445 543 469 q 711 372 668 421 q 754 239 754 322 q 718 117 754 172 q 608 28 682 61 q 422 -4 533 -4 m 442 -172 q 467 -183 457 -172 q 478 -208 478 -194 q 469 -253 478 -222 l 438 -360 l 413 -360 l 438 -244 q 415 -232 424 -242 q 406 -208 406 -222 q 416 -183 406 -193 q 442 -172 426 -172 z "},"Ṡ":{"ha":835,"x_min":81,"x_max":754,"o":"m 422 -4 q 224 34 317 -4 q 81 133 131 72 l 100 151 q 235 59 147 96 q 421 22 322 22 q 649 83 572 22 q 726 239 726 143 q 686 358 726 314 q 587 425 646 403 q 428 471 528 447 q 258 522 321 497 q 152 597 196 546 q 108 732 108 647 q 143 854 108 799 q 251 943 178 910 q 433 976 325 976 q 586 952 511 976 q 715 888 661 928 l 700 865 q 573 928 643 907 q 435 950 503 950 q 213 888 289 950 q 136 731 136 826 q 176 610 136 656 q 276 543 217 565 q 438 496 336 521 q 606 445 543 469 q 711 372 668 421 q 754 239 754 322 q 718 117 754 172 q 608 28 682 61 q 422 -4 533 -4 m 442 1099 q 416 1110 426 1099 q 406 1135 406 1121 q 416 1160 406 1150 q 442 1171 426 1171 q 467 1160 456 1171 q 478 1135 478 1150 q 467 1110 478 1121 q 442 1099 456 1099 z "},"Ṣ":{"ha":835,"x_min":81,"x_max":754,"o":"m 422 -4 q 224 34 317 -4 q 81 133 131 72 l 100 151 q 235 59 147 96 q 421 22 322 22 q 649 83 572 22 q 726 239 726 143 q 686 358 726 314 q 587 425 646 403 q 428 471 528 447 q 258 522 321 497 q 152 597 196 546 q 108 732 108 647 q 143 854 108 799 q 251 943 178 910 q 433 976 325 976 q 586 952 511 976 q 715 888 661 928 l 700 865 q 573 928 643 907 q 435 950 503 950 q 213 888 289 950 q 136 731 136 826 q 176 610 136 656 q 276 543 217 565 q 438 496 336 521 q 606 445 543 469 q 711 372 668 421 q 754 239 754 322 q 718 117 754 172 q 608 28 682 61 q 422 -4 533 -4 m 442 -244 q 416 -234 426 -244 q 406 -208 406 -224 q 416 -183 406 -194 q 442 -172 426 -172 q 467 -183 456 -172 q 478 -208 478 -194 q 467 -234 478 -224 q 442 -244 456 -244 z "},"Ṩ":{"ha":835,"x_min":81,"x_max":754,"o":"m 422 -4 q 224 34 317 -4 q 81 133 131 72 l 100 151 q 235 59 147 96 q 421 22 322 22 q 649 83 572 22 q 726 239 726 143 q 686 358 726 314 q 587 425 646 403 q 428 471 528 447 q 258 522 321 497 q 152 597 196 546 q 108 732 108 647 q 143 854 108 799 q 251 943 178 910 q 433 976 325 976 q 586 952 511 976 q 715 888 661 928 l 700 865 q 573 928 643 907 q 435 950 503 950 q 213 888 289 950 q 136 731 136 826 q 176 610 136 656 q 276 543 217 565 q 438 496 336 521 q 606 445 543 469 q 711 372 668 421 q 754 239 754 322 q 718 117 754 172 q 608 28 682 61 q 422 -4 533 -4 m 442 -244 q 416 -234 426 -244 q 406 -208 406 -224 q 416 -183 406 -194 q 442 -172 426 -172 q 467 -183 456 -172 q 478 -208 478 -194 q 467 -234 478 -224 q 442 -244 456 -244 m 442 1099 q 416 1110 426 1099 q 406 1135 406 1121 q 416 1160 406 1150 q 442 1171 426 1171 q 467 1160 456 1171 q 478 1135 478 1150 q 467 1110 478 1121 q 442 1099 456 1099 z "},"ẞ":{"ha":1031,"x_min":176,"x_max":940,"o":"m 629 546 q 856 475 772 546 q 940 271 940 404 q 858 67 940 139 q 636 -4 776 -4 q 533 5 576 -4 q 443 35 489 14 l 454 61 q 636 22 532 22 q 838 86 764 22 q 913 271 913 150 q 837 456 913 392 q 631 519 761 519 q 504 503 558 519 l 494 525 l 831 872 q 553 958 731 958 q 295 863 386 958 q 204 586 204 767 l 204 0 l 176 0 l 176 589 q 276 880 176 775 q 553 985 376 985 q 856 885 742 985 l 856 863 l 540 536 q 629 546 579 546 z "},"Ə":{"ha":1133,"x_min":82,"x_max":1051,"o":"m 553 976 q 807 913 693 976 q 986 737 921 849 q 1051 488 1051 625 q 986 242 1051 354 q 810 63 921 129 q 567 -4 699 -4 q 319 60 429 -4 q 145 235 208 124 q 82 486 82 347 l 82 500 l 1024 500 q 958 729 1021 626 q 788 891 894 832 q 553 950 682 950 q 232 838 363 950 l 217 858 q 368 947 282 917 q 553 976 454 976 m 567 22 q 792 82 688 22 q 958 245 896 142 q 1024 474 1021 349 l 110 474 q 173 244 113 347 q 336 81 233 140 q 567 22 439 22 z "},"T":{"ha":761,"x_min":6,"x_max":756,"o":"m 367 946 l 6 946 l 6 972 l 756 972 l 756 946 l 394 946 l 394 0 l 367 0 l 367 946 z "},"Ŧ":{"ha":761,"x_min":6,"x_max":756,"o":"m 367 946 l 6 946 l 6 972 l 756 972 l 756 946 l 394 946 l 394 0 l 367 0 l 367 946 m 131 507 l 631 507 l 631 481 l 131 481 l 131 507 z "},"Ť":{"ha":761,"x_min":6,"x_max":756,"o":"m 367 946 l 6 946 l 6 972 l 756 972 l 756 946 l 394 946 l 394 0 l 367 0 l 367 946 m 572 1204 l 403 1051 l 358 1051 l 189 1204 l 226 1204 l 381 1075 l 535 1204 l 572 1204 z "},"Ţ":{"ha":761,"x_min":6,"x_max":756,"o":"m 367 946 l 6 946 l 6 972 l 756 972 l 756 946 l 394 946 l 394 0 l 367 0 l 367 946 m 358 -296 q 256 -258 299 -296 l 271 -237 q 357 -269 306 -269 q 429 -247 401 -269 q 457 -186 457 -225 q 431 -126 457 -149 q 358 -103 404 -103 l 336 -103 l 367 7 l 393 7 l 369 -78 q 453 -110 422 -81 q 485 -186 485 -139 q 449 -266 485 -236 q 358 -296 414 -296 z "},"Ț":{"ha":761,"x_min":6,"x_max":756,"o":"m 367 946 l 6 946 l 6 972 l 756 972 l 756 946 l 394 946 l 394 0 l 367 0 l 367 946 m 381 -172 q 406 -183 396 -172 q 417 -208 417 -194 q 408 -253 417 -222 l 376 -360 l 351 -360 l 376 -244 q 353 -232 363 -242 q 344 -208 344 -222 q 355 -183 344 -193 q 381 -172 365 -172 z "},"Ṭ":{"ha":761,"x_min":6,"x_max":756,"o":"m 367 946 l 6 946 l 6 972 l 756 972 l 756 946 l 394 946 l 394 0 l 367 0 l 367 946 m 381 -244 q 355 -234 365 -244 q 344 -208 344 -224 q 355 -183 344 -194 q 381 -172 365 -172 q 406 -183 394 -172 q 417 -208 417 -194 q 406 -234 417 -224 q 381 -244 394 -244 z "},"Ṯ":{"ha":761,"x_min":6,"x_max":756,"o":"m 367 946 l 6 946 l 6 972 l 756 972 l 756 946 l 394 946 l 394 0 l 367 0 l 367 946 m 192 -194 l 569 -194 l 569 -222 l 192 -222 l 192 -194 z "},"U":{"ha":1103,"x_min":176,"x_max":926,"o":"m 551 -4 q 275 100 374 -4 q 176 407 176 204 l 176 972 l 204 972 l 204 408 q 294 119 204 217 q 551 22 383 22 q 809 119 719 22 q 899 408 899 217 l 899 972 l 926 972 l 926 407 q 828 100 926 204 q 551 -4 729 -4 z "},"Ú":{"ha":1103,"x_min":176,"x_max":926,"o":"m 551 -4 q 275 100 374 -4 q 176 407 176 204 l 176 972 l 204 972 l 204 408 q 294 119 204 217 q 551 22 383 22 q 809 119 719 22 q 899 408 899 217 l 899 972 l 926 972 l 926 407 q 828 100 926 204 q 551 -4 729 -4 m 683 1204 l 739 1204 l 531 1051 l 489 1051 l 683 1204 z "},"Ŭ":{"ha":1103,"x_min":176,"x_max":926,"o":"m 551 -4 q 275 100 374 -4 q 176 407 176 204 l 176 972 l 204 972 l 204 408 q 294 119 204 217 q 551 22 383 22 q 809 119 719 22 q 899 408 899 217 l 899 972 l 926 972 l 926 407 q 828 100 926 204 q 551 -4 729 -4 m 551 1047 q 422 1090 475 1047 q 368 1204 369 1133 l 394 1204 q 440 1109 396 1144 q 551 1074 485 1074 q 663 1109 618 1074 q 708 1204 707 1144 l 735 1204 q 681 1090 733 1133 q 551 1047 628 1047 z "},"Ǔ":{"ha":1103,"x_min":176,"x_max":926,"o":"m 551 -4 q 275 100 374 -4 q 176 407 176 204 l 176 972 l 204 972 l 204 408 q 294 119 204 217 q 551 22 383 22 q 809 119 719 22 q 899 408 899 217 l 899 972 l 926 972 l 926 407 q 828 100 926 204 q 551 -4 729 -4 m 743 1204 l 574 1051 l 529 1051 l 360 1204 l 397 1204 l 551 1075 l 706 1204 l 743 1204 z "},"Û":{"ha":1103,"x_min":176,"x_max":926,"o":"m 551 -4 q 275 100 374 -4 q 176 407 176 204 l 176 972 l 204 972 l 204 408 q 294 119 204 217 q 551 22 383 22 q 809 119 719 22 q 899 408 899 217 l 899 972 l 926 972 l 926 407 q 828 100 926 204 q 551 -4 729 -4 m 706 1051 l 551 1181 l 397 1051 l 360 1051 l 529 1204 l 574 1204 l 743 1051 l 706 1051 z "},"Ȕ":{"ha":1103,"x_min":176,"x_max":926,"o":"m 551 -4 q 275 100 374 -4 q 176 407 176 204 l 176 972 l 204 972 l 204 408 q 294 119 204 217 q 551 22 383 22 q 809 119 719 22 q 899 408 899 217 l 899 972 l 926 972 l 926 407 q 828 100 926 204 q 551 -4 729 -4 m 272 1204 l 319 1204 l 474 1051 l 436 1051 l 272 1204 m 465 1204 l 513 1204 l 667 1051 l 629 1051 l 465 1204 z "},"Ü":{"ha":1103,"x_min":176,"x_max":926,"o":"m 551 -4 q 275 100 374 -4 q 176 407 176 204 l 176 972 l 204 972 l 204 408 q 294 119 204 217 q 551 22 383 22 q 809 119 719 22 q 899 408 899 217 l 899 972 l 926 972 l 926 407 q 828 100 926 204 q 551 -4 729 -4 m 438 1099 q 412 1110 422 1099 q 401 1135 401 1121 q 412 1160 401 1150 q 438 1171 422 1171 q 463 1160 451 1171 q 474 1135 474 1150 q 463 1110 474 1121 q 438 1099 451 1099 m 665 1099 q 640 1110 650 1099 q 629 1135 629 1121 q 640 1160 629 1150 q 665 1171 650 1171 q 690 1160 679 1171 q 701 1135 701 1150 q 690 1110 701 1121 q 665 1099 679 1099 z "},"Ụ":{"ha":1103,"x_min":176,"x_max":926,"o":"m 551 -4 q 275 100 374 -4 q 176 407 176 204 l 176 972 l 204 972 l 204 408 q 294 119 204 217 q 551 22 383 22 q 809 119 719 22 q 899 408 899 217 l 899 972 l 926 972 l 926 407 q 828 100 926 204 q 551 -4 729 -4 m 551 -244 q 526 -234 536 -244 q 515 -208 515 -224 q 526 -183 515 -194 q 551 -172 536 -172 q 576 -183 565 -172 q 588 -208 588 -194 q 576 -234 588 -224 q 551 -244 565 -244 z "},"Ù":{"ha":1103,"x_min":176,"x_max":926,"o":"m 551 -4 q 275 100 374 -4 q 176 407 176 204 l 176 972 l 204 972 l 204 408 q 294 119 204 217 q 551 22 383 22 q 809 119 719 22 q 899 408 899 217 l 899 972 l 926 972 l 926 407 q 828 100 926 204 q 551 -4 729 -4 m 364 1204 l 419 1204 l 614 1051 l 572 1051 l 364 1204 z "},"Ủ":{"ha":1103,"x_min":176,"x_max":926,"o":"m 551 -4 q 275 100 374 -4 q 176 407 176 204 l 176 972 l 204 972 l 204 408 q 294 119 204 217 q 551 22 383 22 q 809 119 719 22 q 899 408 899 217 l 899 972 l 926 972 l 926 407 q 828 100 926 204 q 551 -4 729 -4 m 540 1068 q 628 1175 628 1107 q 605 1228 628 1207 q 547 1250 582 1250 q 461 1224 501 1250 l 450 1247 q 494 1269 468 1261 q 546 1276 521 1276 q 626 1249 596 1276 q 656 1176 656 1222 q 631 1103 656 1135 q 554 1046 606 1071 l 540 1068 z "},"Ư":{"ha":1103,"x_min":176,"x_max":1058,"o":"m 551 -4 q 275 100 374 -4 q 176 407 176 204 l 176 972 l 204 972 l 204 408 q 294 119 204 217 q 551 22 383 22 q 809 119 719 22 q 899 408 899 217 l 899 972 l 926 972 l 926 407 q 828 100 926 204 q 551 -4 729 -4 m 919 972 l 933 972 q 1007 999 983 972 q 1031 1069 1031 1026 q 1003 1163 1031 1114 l 1028 1174 q 1050 1125 1042 1153 q 1058 1071 1058 1097 q 1028 981 1058 1015 q 933 946 997 946 l 919 946 l 919 972 z "},"Ứ":{"ha":1103,"x_min":176,"x_max":1058,"o":"m 551 -4 q 275 100 374 -4 q 176 407 176 204 l 176 972 l 204 972 l 204 408 q 294 119 204 217 q 551 22 383 22 q 809 119 719 22 q 899 408 899 217 l 899 972 l 926 972 l 926 407 q 828 100 926 204 q 551 -4 729 -4 m 919 972 l 933 972 q 1007 999 983 972 q 1031 1069 1031 1026 q 1003 1163 1031 1114 l 1028 1174 q 1050 1125 1042 1153 q 1058 1071 1058 1097 q 1028 981 1058 1015 q 933 946 997 946 l 919 946 l 919 972 m 683 1204 l 739 1204 l 531 1051 l 489 1051 l 683 1204 z "},"Ự":{"ha":1103,"x_min":176,"x_max":1058,"o":"m 551 -4 q 275 100 374 -4 q 176 407 176 204 l 176 972 l 204 972 l 204 408 q 294 119 204 217 q 551 22 383 22 q 809 119 719 22 q 899 408 899 217 l 899 972 l 926 972 l 926 407 q 828 100 926 204 q 551 -4 729 -4 m 919 972 l 933 972 q 1007 999 983 972 q 1031 1069 1031 1026 q 1003 1163 1031 1114 l 1028 1174 q 1050 1125 1042 1153 q 1058 1071 1058 1097 q 1028 981 1058 1015 q 933 946 997 946 l 919 946 l 919 972 m 551 -244 q 526 -234 536 -244 q 515 -208 515 -224 q 526 -183 515 -194 q 551 -172 536 -172 q 576 -183 565 -172 q 588 -208 588 -194 q 576 -234 588 -224 q 551 -244 565 -244 z "},"Ừ":{"ha":1103,"x_min":176,"x_max":1058,"o":"m 551 -4 q 275 100 374 -4 q 176 407 176 204 l 176 972 l 204 972 l 204 408 q 294 119 204 217 q 551 22 383 22 q 809 119 719 22 q 899 408 899 217 l 899 972 l 926 972 l 926 407 q 828 100 926 204 q 551 -4 729 -4 m 919 972 l 933 972 q 1007 999 983 972 q 1031 1069 1031 1026 q 1003 1163 1031 1114 l 1028 1174 q 1050 1125 1042 1153 q 1058 1071 1058 1097 q 1028 981 1058 1015 q 933 946 997 946 l 919 946 l 919 972 m 364 1204 l 419 1204 l 614 1051 l 572 1051 l 364 1204 z "},"Ử":{"ha":1103,"x_min":176,"x_max":1058,"o":"m 551 -4 q 275 100 374 -4 q 176 407 176 204 l 176 972 l 204 972 l 204 408 q 294 119 204 217 q 551 22 383 22 q 809 119 719 22 q 899 408 899 217 l 899 972 l 926 972 l 926 407 q 828 100 926 204 q 551 -4 729 -4 m 919 972 l 933 972 q 1007 999 983 972 q 1031 1069 1031 1026 q 1003 1163 1031 1114 l 1028 1174 q 1050 1125 1042 1153 q 1058 1071 1058 1097 q 1028 981 1058 1015 q 933 946 997 946 l 919 946 l 919 972 m 540 1068 q 628 1175 628 1107 q 605 1228 628 1207 q 547 1250 582 1250 q 461 1224 501 1250 l 450 1247 q 494 1269 468 1261 q 546 1276 521 1276 q 626 1249 596 1276 q 656 1176 656 1222 q 631 1103 656 1135 q 554 1046 606 1071 l 540 1068 z "},"Ữ":{"ha":1103,"x_min":176,"x_max":1058,"o":"m 551 -4 q 275 100 374 -4 q 176 407 176 204 l 176 972 l 204 972 l 204 408 q 294 119 204 217 q 551 22 383 22 q 809 119 719 22 q 899 408 899 217 l 899 972 l 926 972 l 926 407 q 828 100 926 204 q 551 -4 729 -4 m 919 972 l 933 972 q 1007 999 983 972 q 1031 1069 1031 1026 q 1003 1163 1031 1114 l 1028 1174 q 1050 1125 1042 1153 q 1058 1071 1058 1097 q 1028 981 1058 1015 q 933 946 997 946 l 919 946 l 919 972 m 639 1068 q 590 1081 611 1068 q 540 1121 568 1094 q 501 1153 518 1142 q 464 1164 483 1164 q 411 1139 431 1164 q 389 1071 392 1114 l 363 1071 q 392 1158 365 1125 q 464 1190 419 1190 q 513 1177 492 1190 q 563 1138 535 1164 q 602 1106 585 1117 q 639 1094 619 1094 q 692 1119 672 1094 q 714 1185 711 1143 l 740 1185 q 710 1100 738 1132 q 639 1068 683 1068 z "},"Ű":{"ha":1103,"x_min":176,"x_max":926,"o":"m 551 -4 q 275 100 374 -4 q 176 407 176 204 l 176 972 l 204 972 l 204 408 q 294 119 204 217 q 551 22 383 22 q 809 119 719 22 q 899 408 899 217 l 899 972 l 926 972 l 926 407 q 828 100 926 204 q 551 -4 729 -4 m 590 1204 l 638 1204 l 474 1051 l 436 1051 l 590 1204 m 783 1204 l 831 1204 l 667 1051 l 629 1051 l 783 1204 z "},"Ȗ":{"ha":1103,"x_min":176,"x_max":926,"o":"m 551 -4 q 275 100 374 -4 q 176 407 176 204 l 176 972 l 204 972 l 204 408 q 294 119 204 217 q 551 22 383 22 q 809 119 719 22 q 899 408 899 217 l 899 972 l 926 972 l 926 407 q 828 100 926 204 q 551 -4 729 -4 m 368 1051 q 422 1165 369 1122 q 551 1208 475 1208 q 681 1165 628 1208 q 735 1051 733 1122 l 708 1051 q 663 1147 707 1111 q 551 1182 618 1182 q 440 1147 485 1182 q 394 1051 396 1111 l 368 1051 z "},"Ū":{"ha":1103,"x_min":176,"x_max":926,"o":"m 551 -4 q 275 100 374 -4 q 176 407 176 204 l 176 972 l 204 972 l 204 408 q 294 119 204 217 q 551 22 383 22 q 809 119 719 22 q 899 408 899 217 l 899 972 l 926 972 l 926 407 q 828 100 926 204 q 551 -4 729 -4 m 363 1142 l 740 1142 l 740 1114 l 363 1114 l 363 1142 z "},"Ṻ":{"ha":1103,"x_min":176,"x_max":926,"o":"m 551 -4 q 275 100 374 -4 q 176 407 176 204 l 176 972 l 204 972 l 204 408 q 294 119 204 217 q 551 22 383 22 q 809 119 719 22 q 899 408 899 217 l 899 972 l 926 972 l 926 407 q 828 100 926 204 q 551 -4 729 -4 m 363 1122 l 740 1122 l 740 1094 l 363 1094 l 363 1122 m 438 1257 q 412 1268 422 1257 q 401 1293 401 1279 q 412 1319 401 1308 q 438 1329 422 1329 q 463 1319 451 1329 q 474 1293 474 1308 q 463 1268 474 1279 q 438 1257 451 1257 m 665 1257 q 640 1268 650 1257 q 629 1293 629 1279 q 640 1319 629 1308 q 665 1329 650 1329 q 690 1319 679 1329 q 701 1293 701 1308 q 690 1268 701 1279 q 665 1257 679 1257 z "},"Ų":{"ha":1103,"x_min":176,"x_max":926,"o":"m 926 972 l 926 407 q 681 11 926 90 q 464 -181 464 -60 q 492 -247 464 -224 q 564 -269 519 -269 q 650 -237 615 -269 l 665 -258 q 563 -296 622 -296 q 472 -265 507 -296 q 436 -181 436 -233 q 575 -3 436 -75 q 551 -4 567 -4 q 275 100 374 -4 q 176 407 176 204 l 176 972 l 204 972 l 204 408 q 294 119 204 217 q 551 22 383 22 q 809 119 719 22 q 899 408 899 217 l 899 972 l 926 972 z "},"Ů":{"ha":1103,"x_min":176,"x_max":926,"o":"m 551 -4 q 275 100 374 -4 q 176 407 176 204 l 176 972 l 204 972 l 204 408 q 294 119 204 217 q 551 22 383 22 q 809 119 719 22 q 899 408 899 217 l 899 972 l 926 972 l 926 407 q 828 100 926 204 q 551 -4 729 -4 m 550 1083 q 458 1120 494 1083 q 422 1208 422 1157 q 459 1299 422 1261 q 550 1338 496 1338 q 642 1299 604 1338 q 679 1208 679 1261 q 642 1120 679 1157 q 550 1083 606 1083 m 550 1110 q 623 1138 594 1110 q 651 1208 651 1167 q 622 1281 651 1250 q 550 1311 593 1311 q 478 1281 507 1311 q 450 1208 450 1251 q 478 1138 450 1167 q 550 1110 506 1110 z "},"Ũ":{"ha":1103,"x_min":176,"x_max":926,"o":"m 551 -4 q 275 100 374 -4 q 176 407 176 204 l 176 972 l 204 972 l 204 408 q 294 119 204 217 q 551 22 383 22 q 809 119 719 22 q 899 408 899 217 l 899 972 l 926 972 l 926 407 q 828 100 926 204 q 551 -4 729 -4 m 639 1068 q 590 1081 611 1068 q 540 1121 568 1094 q 501 1153 518 1142 q 464 1164 483 1164 q 411 1139 431 1164 q 389 1071 392 1114 l 363 1071 q 392 1158 365 1125 q 464 1190 419 1190 q 513 1177 492 1190 q 563 1138 535 1164 q 602 1106 585 1117 q 639 1094 619 1094 q 692 1119 672 1094 q 714 1185 711 1143 l 740 1185 q 710 1100 738 1132 q 639 1068 683 1068 z "},"Ṹ":{"ha":1103,"x_min":176,"x_max":926,"o":"m 551 -4 q 275 100 374 -4 q 176 407 176 204 l 176 972 l 204 972 l 204 408 q 294 119 204 217 q 551 22 383 22 q 809 119 719 22 q 899 408 899 217 l 899 972 l 926 972 l 926 407 q 828 100 926 204 q 551 -4 729 -4 m 636 1072 q 590 1082 610 1072 q 542 1113 571 1092 q 502 1138 519 1129 q 467 1147 485 1147 q 413 1128 433 1147 q 392 1075 393 1110 l 365 1075 q 394 1147 367 1119 q 467 1174 422 1174 q 512 1164 492 1174 q 561 1133 532 1154 q 601 1108 583 1117 q 636 1099 618 1099 q 690 1117 669 1099 q 711 1168 710 1135 l 738 1168 q 708 1099 736 1125 q 636 1072 681 1072 m 665 1347 l 721 1347 l 531 1208 l 489 1208 l 665 1347 z "},"V":{"ha":931,"x_min":14,"x_max":917,"o":"m 917 972 l 479 0 l 451 0 l 14 972 l 46 972 l 465 38 l 885 972 l 917 972 z "},"W":{"ha":1500,"x_min":63,"x_max":1438,"o":"m 1438 972 l 1104 0 l 1076 0 l 750 933 l 424 0 l 396 0 l 63 972 l 93 972 l 411 44 l 736 972 l 764 972 l 1090 42 l 1408 972 l 1438 972 z "},"Ẃ":{"ha":1500,"x_min":63,"x_max":1438,"o":"m 1438 972 l 1104 0 l 1076 0 l 750 933 l 424 0 l 396 0 l 63 972 l 93 972 l 411 44 l 736 972 l 764 972 l 1090 42 l 1408 972 l 1438 972 m 882 1204 l 938 1204 l 729 1051 l 688 1051 l 882 1204 z "},"Ŵ":{"ha":1500,"x_min":63,"x_max":1438,"o":"m 1438 972 l 1104 0 l 1076 0 l 750 933 l 424 0 l 396 0 l 63 972 l 93 972 l 411 44 l 736 972 l 764 972 l 1090 42 l 1408 972 l 1438 972 m 904 1051 l 750 1181 l 596 1051 l 558 1051 l 728 1204 l 772 1204 l 942 1051 l 904 1051 z "},"Ẅ":{"ha":1500,"x_min":63,"x_max":1438,"o":"m 1438 972 l 1104 0 l 1076 0 l 750 933 l 424 0 l 396 0 l 63 972 l 93 972 l 411 44 l 736 972 l 764 972 l 1090 42 l 1408 972 l 1438 972 m 636 1099 q 610 1110 621 1099 q 600 1135 600 1121 q 610 1160 600 1150 q 636 1171 621 1171 q 661 1160 650 1171 q 672 1135 672 1150 q 661 1110 672 1121 q 636 1099 650 1099 m 864 1099 q 838 1110 849 1099 q 828 1135 828 1121 q 838 1160 828 1150 q 864 1171 849 1171 q 889 1160 878 1171 q 900 1135 900 1150 q 889 1110 900 1121 q 864 1099 878 1099 z "},"Ẁ":{"ha":1500,"x_min":63,"x_max":1438,"o":"m 1438 972 l 1104 0 l 1076 0 l 750 933 l 424 0 l 396 0 l 63 972 l 93 972 l 411 44 l 736 972 l 764 972 l 1090 42 l 1408 972 l 1438 972 m 563 1204 l 618 1204 l 813 1051 l 771 1051 l 563 1204 z "},"X":{"ha":863,"x_min":35,"x_max":828,"o":"m 793 0 l 431 482 l 68 0 l 35 0 l 414 503 l 63 972 l 97 972 l 432 524 l 767 972 l 800 972 l 449 503 l 828 0 l 793 0 z "},"Y":{"ha":847,"x_min":14,"x_max":833,"o":"m 438 331 l 438 0 l 410 0 l 410 331 l 14 972 l 46 972 l 424 360 l 801 972 l 833 972 l 438 331 z "},"Ý":{"ha":847,"x_min":14,"x_max":833,"o":"m 438 331 l 438 0 l 410 0 l 410 331 l 14 972 l 46 972 l 424 360 l 801 972 l 833 972 l 438 331 m 556 1204 l 611 1204 l 403 1051 l 361 1051 l 556 1204 z "},"Ŷ":{"ha":847,"x_min":14,"x_max":833,"o":"m 438 331 l 438 0 l 410 0 l 410 331 l 14 972 l 46 972 l 424 360 l 801 972 l 833 972 l 438 331 m 578 1051 l 424 1181 l 269 1051 l 232 1051 l 401 1204 l 446 1204 l 615 1051 l 578 1051 z "},"Ÿ":{"ha":847,"x_min":14,"x_max":833,"o":"m 438 331 l 438 0 l 410 0 l 410 331 l 14 972 l 46 972 l 424 360 l 801 972 l 833 972 l 438 331 m 310 1099 q 284 1110 294 1099 q 274 1135 274 1121 q 284 1160 274 1150 q 310 1171 294 1171 q 335 1160 324 1171 q 346 1135 346 1150 q 335 1110 346 1121 q 310 1099 324 1099 m 538 1099 q 512 1110 522 1099 q 501 1135 501 1121 q 512 1160 501 1150 q 538 1171 522 1171 q 563 1160 551 1171 q 574 1135 574 1150 q 563 1110 574 1121 q 538 1099 551 1099 z "},"Ẏ":{"ha":847,"x_min":14,"x_max":833,"o":"m 438 331 l 438 0 l 410 0 l 410 331 l 14 972 l 46 972 l 424 360 l 801 972 l 833 972 l 438 331 m 424 1099 q 398 1110 408 1099 q 388 1135 388 1121 q 398 1160 388 1150 q 424 1171 408 1171 q 449 1160 438 1171 q 460 1135 460 1150 q 449 1110 460 1121 q 424 1099 438 1099 z "},"Ỵ":{"ha":847,"x_min":14,"x_max":833,"o":"m 438 331 l 438 0 l 410 0 l 410 331 l 14 972 l 46 972 l 424 360 l 801 972 l 833 972 l 438 331 m 424 -244 q 398 -234 408 -244 q 388 -208 388 -224 q 398 -183 388 -194 q 424 -172 408 -172 q 449 -183 438 -172 q 460 -208 460 -194 q 449 -234 460 -224 q 424 -244 438 -244 z "},"Ỳ":{"ha":847,"x_min":14,"x_max":833,"o":"m 438 331 l 438 0 l 410 0 l 410 331 l 14 972 l 46 972 l 424 360 l 801 972 l 833 972 l 438 331 m 236 1204 l 292 1204 l 486 1051 l 444 1051 l 236 1204 z "},"Ỷ":{"ha":847,"x_min":14,"x_max":833,"o":"m 438 331 l 438 0 l 410 0 l 410 331 l 14 972 l 46 972 l 424 360 l 801 972 l 833 972 l 438 331 m 413 1068 q 500 1175 500 1107 q 477 1228 500 1207 q 419 1250 454 1250 q 333 1224 374 1250 l 322 1247 q 367 1269 340 1261 q 418 1276 393 1276 q 498 1249 468 1276 q 528 1176 528 1222 q 503 1103 528 1135 q 426 1046 478 1071 l 413 1068 z "},"Ȳ":{"ha":847,"x_min":14,"x_max":833,"o":"m 438 331 l 438 0 l 410 0 l 410 331 l 14 972 l 46 972 l 424 360 l 801 972 l 833 972 l 438 331 m 235 1142 l 613 1142 l 613 1114 l 235 1114 l 235 1142 z "},"Ỹ":{"ha":847,"x_min":14,"x_max":833,"o":"m 438 331 l 438 0 l 410 0 l 410 331 l 14 972 l 46 972 l 424 360 l 801 972 l 833 972 l 438 331 m 511 1068 q 462 1081 483 1068 q 413 1121 440 1094 q 373 1153 390 1142 q 336 1164 356 1164 q 283 1139 303 1164 q 261 1071 264 1114 l 235 1071 q 265 1158 238 1125 q 336 1190 292 1190 q 385 1177 364 1190 q 435 1138 407 1164 q 474 1106 457 1117 q 511 1094 492 1094 q 564 1119 544 1094 q 586 1185 583 1143 l 613 1185 q 583 1100 610 1132 q 511 1068 556 1068 z "},"Z":{"ha":888,"x_min":69,"x_max":833,"o":"m 833 26 l 833 0 l 69 0 l 69 21 l 781 946 l 76 946 l 76 972 l 819 972 l 819 951 l 108 26 l 833 26 z "},"Ź":{"ha":888,"x_min":69,"x_max":833,"o":"m 833 26 l 833 0 l 69 0 l 69 21 l 781 946 l 76 946 l 76 972 l 819 972 l 819 951 l 108 26 l 833 26 m 583 1204 l 639 1204 l 431 1051 l 389 1051 l 583 1204 z "},"Ž":{"ha":888,"x_min":69,"x_max":833,"o":"m 833 26 l 833 0 l 69 0 l 69 21 l 781 946 l 76 946 l 76 972 l 819 972 l 819 951 l 108 26 l 833 26 m 643 1204 l 474 1051 l 429 1051 l 260 1204 l 297 1204 l 451 1075 l 606 1204 l 643 1204 z "},"Ż":{"ha":888,"x_min":69,"x_max":833,"o":"m 833 26 l 833 0 l 69 0 l 69 21 l 781 946 l 76 946 l 76 972 l 819 972 l 819 951 l 108 26 l 833 26 m 451 1099 q 426 1110 436 1099 q 415 1135 415 1121 q 426 1160 415 1150 q 451 1171 436 1171 q 476 1160 465 1171 q 488 1135 488 1150 q 476 1110 488 1121 q 451 1099 465 1099 z "},"Ẓ":{"ha":888,"x_min":69,"x_max":833,"o":"m 833 26 l 833 0 l 69 0 l 69 21 l 781 946 l 76 946 l 76 972 l 819 972 l 819 951 l 108 26 l 833 26 m 465 -244 q 440 -234 450 -244 q 429 -208 429 -224 q 440 -183 429 -194 q 465 -172 450 -172 q 490 -183 479 -172 q 501 -208 501 -194 q 490 -234 501 -224 q 465 -244 479 -244 z "},"a":{"ha":797,"x_min":90,"x_max":646,"o":"m 389 722 q 580 658 514 722 q 646 471 646 593 l 646 0 l 618 0 l 618 153 q 513 38 583 79 q 344 -4 443 -4 q 158 51 225 -4 q 90 197 90 106 q 151 337 90 283 q 346 390 211 390 l 618 390 l 618 469 q 560 639 618 582 q 390 696 503 696 q 245 669 313 696 q 129 596 178 642 l 110 615 q 235 694 161 665 q 389 722 308 722 m 344 22 q 618 206 544 22 l 618 364 l 344 364 q 173 319 228 364 q 118 199 118 275 q 178 69 118 117 q 344 22 238 22 z "},"á":{"ha":797,"x_min":90,"x_max":646,"o":"m 389 722 q 580 658 514 722 q 646 471 646 593 l 646 0 l 618 0 l 618 153 q 513 38 583 79 q 344 -4 443 -4 q 158 51 225 -4 q 90 197 90 106 q 151 337 90 283 q 346 390 211 390 l 618 390 l 618 469 q 560 639 618 582 q 390 696 503 696 q 245 669 313 696 q 129 596 178 642 l 110 615 q 235 694 161 665 q 389 722 308 722 m 344 22 q 618 206 544 22 l 618 364 l 344 364 q 173 319 228 364 q 118 199 118 275 q 178 69 118 117 q 344 22 238 22 m 511 996 l 567 996 l 358 843 l 317 843 l 511 996 z "},"ă":{"ha":797,"x_min":90,"x_max":646,"o":"m 389 722 q 580 658 514 722 q 646 471 646 593 l 646 0 l 618 0 l 618 153 q 513 38 583 79 q 344 -4 443 -4 q 158 51 225 -4 q 90 197 90 106 q 151 337 90 283 q 346 390 211 390 l 618 390 l 618 469 q 560 639 618 582 q 390 696 503 696 q 245 669 313 696 q 129 596 178 642 l 110 615 q 235 694 161 665 q 389 722 308 722 m 344 22 q 618 206 544 22 l 618 364 l 344 364 q 173 319 228 364 q 118 199 118 275 q 178 69 118 117 q 344 22 238 22 m 379 839 q 250 882 303 839 q 196 996 197 925 l 222 996 q 268 901 224 936 q 379 865 313 865 q 490 901 446 865 q 536 996 535 936 l 563 996 q 508 882 561 925 q 379 839 456 839 z "},"ắ":{"ha":797,"x_min":90,"x_max":646,"o":"m 389 722 q 580 658 514 722 q 646 471 646 593 l 646 0 l 618 0 l 618 153 q 513 38 583 79 q 344 -4 443 -4 q 158 51 225 -4 q 90 197 90 106 q 151 337 90 283 q 346 390 211 390 l 618 390 l 618 469 q 560 639 618 582 q 390 696 503 696 q 245 669 313 696 q 129 596 178 642 l 110 615 q 235 694 161 665 q 389 722 308 722 m 344 22 q 618 206 544 22 l 618 364 l 344 364 q 173 319 228 364 q 118 199 118 275 q 178 69 118 117 q 344 22 238 22 m 379 839 q 255 869 304 839 q 196 954 206 900 l 222 954 q 273 888 232 911 q 379 865 314 865 q 485 888 444 865 q 536 954 526 911 l 563 954 q 503 869 553 900 q 379 839 454 839 m 493 1113 l 549 1113 l 358 974 l 317 974 l 493 1113 z "},"ặ":{"ha":797,"x_min":90,"x_max":646,"o":"m 389 722 q 580 658 514 722 q 646 471 646 593 l 646 0 l 618 0 l 618 153 q 513 38 583 79 q 344 -4 443 -4 q 158 51 225 -4 q 90 197 90 106 q 151 337 90 283 q 346 390 211 390 l 618 390 l 618 469 q 560 639 618 582 q 390 696 503 696 q 245 669 313 696 q 129 596 178 642 l 110 615 q 235 694 161 665 q 389 722 308 722 m 344 22 q 618 206 544 22 l 618 364 l 344 364 q 173 319 228 364 q 118 199 118 275 q 178 69 118 117 q 344 22 238 22 m 393 -244 q 367 -234 378 -244 q 357 -208 357 -224 q 367 -183 357 -194 q 393 -172 378 -172 q 418 -183 407 -172 q 429 -208 429 -194 q 418 -234 429 -224 q 393 -244 407 -244 m 379 839 q 250 882 303 839 q 196 996 197 925 l 222 996 q 268 901 224 936 q 379 865 313 865 q 490 901 446 865 q 536 996 535 936 l 563 996 q 508 882 561 925 q 379 839 456 839 z "},"ằ":{"ha":797,"x_min":90,"x_max":646,"o":"m 389 722 q 580 658 514 722 q 646 471 646 593 l 646 0 l 618 0 l 618 153 q 513 38 583 79 q 344 -4 443 -4 q 158 51 225 -4 q 90 197 90 106 q 151 337 90 283 q 346 390 211 390 l 618 390 l 618 469 q 560 639 618 582 q 390 696 503 696 q 245 669 313 696 q 129 596 178 642 l 110 615 q 235 694 161 665 q 389 722 308 722 m 344 22 q 618 206 544 22 l 618 364 l 344 364 q 173 319 228 364 q 118 199 118 275 q 178 69 118 117 q 344 22 238 22 m 379 839 q 255 869 304 839 q 196 954 206 900 l 222 954 q 273 888 232 911 q 379 865 314 865 q 485 888 444 865 q 536 954 526 911 l 563 954 q 503 869 553 900 q 379 839 454 839 m 210 1113 l 265 1113 l 442 974 l 400 974 l 210 1113 z "},"ẳ":{"ha":797,"x_min":90,"x_max":646,"o":"m 389 722 q 580 658 514 722 q 646 471 646 593 l 646 0 l 618 0 l 618 153 q 513 38 583 79 q 344 -4 443 -4 q 158 51 225 -4 q 90 197 90 106 q 151 337 90 283 q 346 390 211 390 l 618 390 l 618 469 q 560 639 618 582 q 390 696 503 696 q 245 669 313 696 q 129 596 178 642 l 110 615 q 235 694 161 665 q 389 722 308 722 m 344 22 q 618 206 544 22 l 618 364 l 344 364 q 173 319 228 364 q 118 199 118 275 q 178 69 118 117 q 344 22 238 22 m 379 839 q 255 869 304 839 q 196 954 206 900 l 222 954 q 273 888 232 911 q 379 865 314 865 q 485 888 444 865 q 536 954 526 911 l 563 954 q 503 869 553 900 q 379 839 454 839 m 369 961 q 415 995 399 975 q 432 1039 432 1015 q 416 1075 432 1061 q 374 1089 400 1089 q 314 1071 340 1089 l 303 1093 q 375 1115 333 1115 q 436 1094 414 1115 q 458 1039 458 1074 q 383 940 458 974 l 369 961 z "},"ẵ":{"ha":797,"x_min":90,"x_max":646,"o":"m 389 722 q 580 658 514 722 q 646 471 646 593 l 646 0 l 618 0 l 618 153 q 513 38 583 79 q 344 -4 443 -4 q 158 51 225 -4 q 90 197 90 106 q 151 337 90 283 q 346 390 211 390 l 618 390 l 618 469 q 560 639 618 582 q 390 696 503 696 q 245 669 313 696 q 129 596 178 642 l 110 615 q 235 694 161 665 q 389 722 308 722 m 344 22 q 618 206 544 22 l 618 364 l 344 364 q 173 319 228 364 q 118 199 118 275 q 178 69 118 117 q 344 22 238 22 m 379 839 q 255 869 304 839 q 196 954 206 900 l 222 954 q 273 888 232 911 q 379 865 314 865 q 485 888 444 865 q 536 954 526 911 l 563 954 q 503 869 553 900 q 379 839 454 839 m 464 994 q 418 1004 438 994 q 369 1035 399 1014 q 330 1060 347 1051 q 294 1069 313 1069 q 241 1051 261 1069 q 219 997 221 1032 l 193 997 q 222 1069 194 1042 q 294 1096 250 1096 q 340 1086 319 1096 q 389 1056 360 1076 q 428 1030 411 1039 q 464 1021 446 1021 q 517 1039 497 1021 q 539 1090 538 1057 l 565 1090 q 536 1021 564 1047 q 464 994 508 994 z "},"ǎ":{"ha":797,"x_min":90,"x_max":646,"o":"m 389 722 q 580 658 514 722 q 646 471 646 593 l 646 0 l 618 0 l 618 153 q 513 38 583 79 q 344 -4 443 -4 q 158 51 225 -4 q 90 197 90 106 q 151 337 90 283 q 346 390 211 390 l 618 390 l 618 469 q 560 639 618 582 q 390 696 503 696 q 245 669 313 696 q 129 596 178 642 l 110 615 q 235 694 161 665 q 389 722 308 722 m 344 22 q 618 206 544 22 l 618 364 l 344 364 q 173 319 228 364 q 118 199 118 275 q 178 69 118 117 q 344 22 238 22 m 571 996 l 401 843 l 357 843 l 188 996 l 225 996 l 379 867 l 533 996 l 571 996 z "},"â":{"ha":797,"x_min":90,"x_max":646,"o":"m 389 722 q 580 658 514 722 q 646 471 646 593 l 646 0 l 618 0 l 618 153 q 513 38 583 79 q 344 -4 443 -4 q 158 51 225 -4 q 90 197 90 106 q 151 337 90 283 q 346 390 211 390 l 618 390 l 618 469 q 560 639 618 582 q 390 696 503 696 q 245 669 313 696 q 129 596 178 642 l 110 615 q 235 694 161 665 q 389 722 308 722 m 344 22 q 618 206 544 22 l 618 364 l 344 364 q 173 319 228 364 q 118 199 118 275 q 178 69 118 117 q 344 22 238 22 m 533 843 l 379 972 l 225 843 l 188 843 l 357 996 l 401 996 l 571 843 l 533 843 z "},"ấ":{"ha":797,"x_min":90,"x_max":715,"o":"m 389 722 q 580 658 514 722 q 646 471 646 593 l 646 0 l 618 0 l 618 153 q 513 38 583 79 q 344 -4 443 -4 q 158 51 225 -4 q 90 197 90 106 q 151 337 90 283 q 346 390 211 390 l 618 390 l 618 469 q 560 639 618 582 q 390 696 503 696 q 245 669 313 696 q 129 596 178 642 l 110 615 q 235 694 161 665 q 389 722 308 722 m 344 22 q 618 206 544 22 l 618 364 l 344 364 q 173 319 228 364 q 118 199 118 275 q 178 69 118 117 q 344 22 238 22 m 529 843 l 379 932 l 229 843 l 188 843 l 358 954 l 400 954 l 571 843 l 529 843 m 660 1086 l 715 1086 l 525 947 l 483 947 l 660 1086 z "},"ậ":{"ha":797,"x_min":90,"x_max":646,"o":"m 389 722 q 580 658 514 722 q 646 471 646 593 l 646 0 l 618 0 l 618 153 q 513 38 583 79 q 344 -4 443 -4 q 158 51 225 -4 q 90 197 90 106 q 151 337 90 283 q 346 390 211 390 l 618 390 l 618 469 q 560 639 618 582 q 390 696 503 696 q 245 669 313 696 q 129 596 178 642 l 110 615 q 235 694 161 665 q 389 722 308 722 m 344 22 q 618 206 544 22 l 618 364 l 344 364 q 173 319 228 364 q 118 199 118 275 q 178 69 118 117 q 344 22 238 22 m 393 -244 q 367 -234 378 -244 q 357 -208 357 -224 q 367 -183 357 -194 q 393 -172 378 -172 q 418 -183 407 -172 q 429 -208 429 -194 q 418 -234 429 -224 q 393 -244 407 -244 m 533 843 l 379 972 l 225 843 l 188 843 l 357 996 l 401 996 l 571 843 l 533 843 z "},"ầ":{"ha":797,"x_min":90,"x_max":646,"o":"m 389 722 q 580 658 514 722 q 646 471 646 593 l 646 0 l 618 0 l 618 153 q 513 38 583 79 q 344 -4 443 -4 q 158 51 225 -4 q 90 197 90 106 q 151 337 90 283 q 346 390 211 390 l 618 390 l 618 469 q 560 639 618 582 q 390 696 503 696 q 245 669 313 696 q 129 596 178 642 l 110 615 q 235 694 161 665 q 389 722 308 722 m 344 22 q 618 206 544 22 l 618 364 l 344 364 q 173 319 228 364 q 118 199 118 275 q 178 69 118 117 q 344 22 238 22 m 529 843 l 379 932 l 229 843 l 188 843 l 358 954 l 400 954 l 571 843 l 529 843 m 376 1086 l 432 1086 l 608 947 l 567 947 l 376 1086 z "},"ẩ":{"ha":797,"x_min":90,"x_max":646,"o":"m 389 722 q 580 658 514 722 q 646 471 646 593 l 646 0 l 618 0 l 618 153 q 513 38 583 79 q 344 -4 443 -4 q 158 51 225 -4 q 90 197 90 106 q 151 337 90 283 q 346 390 211 390 l 618 390 l 618 469 q 560 639 618 582 q 390 696 503 696 q 245 669 313 696 q 129 596 178 642 l 110 615 q 235 694 161 665 q 389 722 308 722 m 344 22 q 618 206 544 22 l 618 364 l 344 364 q 173 319 228 364 q 118 199 118 275 q 178 69 118 117 q 344 22 238 22 m 529 843 l 379 932 l 229 843 l 188 843 l 358 954 l 400 954 l 571 843 l 529 843 m 508 949 q 554 983 538 963 q 571 1026 571 1003 q 555 1063 571 1049 q 513 1076 539 1076 q 453 1058 479 1076 l 442 1081 q 514 1103 472 1103 q 575 1082 553 1103 q 597 1026 597 1061 q 522 928 597 961 l 508 949 z "},"ẫ":{"ha":797,"x_min":90,"x_max":646,"o":"m 389 722 q 580 658 514 722 q 646 471 646 593 l 646 0 l 618 0 l 618 153 q 513 38 583 79 q 344 -4 443 -4 q 158 51 225 -4 q 90 197 90 106 q 151 337 90 283 q 346 390 211 390 l 618 390 l 618 469 q 560 639 618 582 q 390 696 503 696 q 245 669 313 696 q 129 596 178 642 l 110 615 q 235 694 161 665 q 389 722 308 722 m 344 22 q 618 206 544 22 l 618 364 l 344 364 q 173 319 228 364 q 118 199 118 275 q 178 69 118 117 q 344 22 238 22 m 529 843 l 379 932 l 229 843 l 188 843 l 358 954 l 400 954 l 571 843 l 529 843 m 464 1000 q 418 1010 438 1000 q 369 1040 399 1019 q 330 1066 347 1057 q 294 1075 313 1075 q 241 1056 261 1075 q 219 1003 221 1038 l 193 1003 q 222 1074 194 1047 q 294 1101 250 1101 q 340 1092 319 1101 q 389 1061 360 1082 q 428 1035 411 1044 q 464 1026 446 1026 q 517 1044 497 1026 q 539 1096 538 1063 l 565 1096 q 536 1026 564 1053 q 464 1000 508 1000 z "},"ȁ":{"ha":797,"x_min":90,"x_max":646,"o":"m 389 722 q 580 658 514 722 q 646 471 646 593 l 646 0 l 618 0 l 618 153 q 513 38 583 79 q 344 -4 443 -4 q 158 51 225 -4 q 90 197 90 106 q 151 337 90 283 q 346 390 211 390 l 618 390 l 618 469 q 560 639 618 582 q 390 696 503 696 q 245 669 313 696 q 129 596 178 642 l 110 615 q 235 694 161 665 q 389 722 308 722 m 344 22 q 618 206 544 22 l 618 364 l 344 364 q 173 319 228 364 q 118 199 118 275 q 178 69 118 117 q 344 22 238 22 m 100 996 l 147 996 l 301 843 l 264 843 l 100 996 m 293 996 l 340 996 l 494 843 l 457 843 l 293 996 z "},"ä":{"ha":797,"x_min":90,"x_max":646,"o":"m 389 722 q 580 658 514 722 q 646 471 646 593 l 646 0 l 618 0 l 618 153 q 513 38 583 79 q 344 -4 443 -4 q 158 51 225 -4 q 90 197 90 106 q 151 337 90 283 q 346 390 211 390 l 618 390 l 618 469 q 560 639 618 582 q 390 696 503 696 q 245 669 313 696 q 129 596 178 642 l 110 615 q 235 694 161 665 q 389 722 308 722 m 344 22 q 618 206 544 22 l 618 364 l 344 364 q 173 319 228 364 q 118 199 118 275 q 178 69 118 117 q 344 22 238 22 m 265 890 q 240 901 250 890 q 229 926 229 913 q 240 952 229 942 q 265 963 250 963 q 290 952 279 963 q 301 926 301 942 q 290 901 301 913 q 265 890 279 890 m 493 890 q 467 901 478 890 q 457 926 457 913 q 467 952 457 942 q 493 963 478 963 q 518 952 507 963 q 529 926 529 942 q 518 901 529 913 q 493 890 507 890 z "},"ạ":{"ha":797,"x_min":90,"x_max":646,"o":"m 389 722 q 580 658 514 722 q 646 471 646 593 l 646 0 l 618 0 l 618 153 q 513 38 583 79 q 344 -4 443 -4 q 158 51 225 -4 q 90 197 90 106 q 151 337 90 283 q 346 390 211 390 l 618 390 l 618 469 q 560 639 618 582 q 390 696 503 696 q 245 669 313 696 q 129 596 178 642 l 110 615 q 235 694 161 665 q 389 722 308 722 m 344 22 q 618 206 544 22 l 618 364 l 344 364 q 173 319 228 364 q 118 199 118 275 q 178 69 118 117 q 344 22 238 22 m 393 -244 q 367 -234 378 -244 q 357 -208 357 -224 q 367 -183 357 -194 q 393 -172 378 -172 q 418 -183 407 -172 q 429 -208 429 -194 q 418 -234 429 -224 q 393 -244 407 -244 z "},"à":{"ha":797,"x_min":90,"x_max":646,"o":"m 389 722 q 580 658 514 722 q 646 471 646 593 l 646 0 l 618 0 l 618 153 q 513 38 583 79 q 344 -4 443 -4 q 158 51 225 -4 q 90 197 90 106 q 151 337 90 283 q 346 390 211 390 l 618 390 l 618 469 q 560 639 618 582 q 390 696 503 696 q 245 669 313 696 q 129 596 178 642 l 110 615 q 235 694 161 665 q 389 722 308 722 m 344 22 q 618 206 544 22 l 618 364 l 344 364 q 173 319 228 364 q 118 199 118 275 q 178 69 118 117 q 344 22 238 22 m 192 996 l 247 996 l 442 843 l 400 843 l 192 996 z "},"ả":{"ha":797,"x_min":90,"x_max":646,"o":"m 389 722 q 580 658 514 722 q 646 471 646 593 l 646 0 l 618 0 l 618 153 q 513 38 583 79 q 344 -4 443 -4 q 158 51 225 -4 q 90 197 90 106 q 151 337 90 283 q 346 390 211 390 l 618 390 l 618 469 q 560 639 618 582 q 390 696 503 696 q 245 669 313 696 q 129 596 178 642 l 110 615 q 235 694 161 665 q 389 722 308 722 m 344 22 q 618 206 544 22 l 618 364 l 344 364 q 173 319 228 364 q 118 199 118 275 q 178 69 118 117 q 344 22 238 22 m 368 860 q 456 967 456 899 q 433 1020 456 999 q 375 1042 410 1042 q 289 1015 329 1042 l 278 1039 q 322 1060 296 1053 q 374 1068 349 1068 q 453 1041 424 1068 q 483 968 483 1014 q 458 894 483 926 q 382 838 433 863 l 368 860 z "},"ȃ":{"ha":797,"x_min":90,"x_max":646,"o":"m 389 722 q 580 658 514 722 q 646 471 646 593 l 646 0 l 618 0 l 618 153 q 513 38 583 79 q 344 -4 443 -4 q 158 51 225 -4 q 90 197 90 106 q 151 337 90 283 q 346 390 211 390 l 618 390 l 618 469 q 560 639 618 582 q 390 696 503 696 q 245 669 313 696 q 129 596 178 642 l 110 615 q 235 694 161 665 q 389 722 308 722 m 344 22 q 618 206 544 22 l 618 364 l 344 364 q 173 319 228 364 q 118 199 118 275 q 178 69 118 117 q 344 22 238 22 m 196 843 q 250 957 197 914 q 379 1000 303 1000 q 508 957 456 1000 q 563 843 561 914 l 536 843 q 490 938 535 903 q 379 974 446 974 q 268 938 313 974 q 222 843 224 903 l 196 843 z "},"ā":{"ha":797,"x_min":90,"x_max":646,"o":"m 389 722 q 580 658 514 722 q 646 471 646 593 l 646 0 l 618 0 l 618 153 q 513 38 583 79 q 344 -4 443 -4 q 158 51 225 -4 q 90 197 90 106 q 151 337 90 283 q 346 390 211 390 l 618 390 l 618 469 q 560 639 618 582 q 390 696 503 696 q 245 669 313 696 q 129 596 178 642 l 110 615 q 235 694 161 665 q 389 722 308 722 m 344 22 q 618 206 544 22 l 618 364 l 344 364 q 173 319 228 364 q 118 199 118 275 q 178 69 118 117 q 344 22 238 22 m 190 933 l 568 933 l 568 906 l 190 906 l 190 933 z "},"ą":{"ha":797,"x_min":90,"x_max":671,"o":"m 389 722 q 580 658 514 722 q 646 471 646 593 l 646 0 l 618 0 l 618 153 q 513 38 583 79 q 344 -4 443 -4 q 158 51 225 -4 q 90 197 90 106 q 151 337 90 283 q 346 390 211 390 l 618 390 l 618 469 q 560 639 618 582 q 390 696 503 696 q 245 669 313 696 q 129 596 178 642 l 110 615 q 235 694 161 665 q 389 722 308 722 m 344 22 q 618 206 544 22 l 618 364 l 344 364 q 173 319 228 364 q 118 199 118 275 q 178 69 118 117 q 344 22 238 22 m 568 -296 q 477 -265 513 -296 q 442 -181 442 -233 q 632 22 442 -62 l 646 0 q 506 -90 543 -44 q 469 -181 469 -135 q 497 -247 469 -224 q 569 -269 525 -269 q 656 -237 621 -269 l 671 -258 q 568 -296 628 -296 z "},"å":{"ha":797,"x_min":90,"x_max":646,"o":"m 389 722 q 580 658 514 722 q 646 471 646 593 l 646 0 l 618 0 l 618 153 q 513 38 583 79 q 344 -4 443 -4 q 158 51 225 -4 q 90 197 90 106 q 151 337 90 283 q 346 390 211 390 l 618 390 l 618 469 q 560 639 618 582 q 390 696 503 696 q 245 669 313 696 q 129 596 178 642 l 110 615 q 235 694 161 665 q 389 722 308 722 m 344 22 q 618 206 544 22 l 618 364 l 344 364 q 173 319 228 364 q 118 199 118 275 q 178 69 118 117 q 344 22 238 22 m 378 829 q 286 866 322 829 q 250 954 250 903 q 287 1045 250 1007 q 378 1083 324 1083 q 469 1045 432 1083 q 507 954 507 1007 q 470 866 507 903 q 378 829 433 829 m 378 856 q 451 884 422 856 q 479 954 479 913 q 450 1026 479 996 q 378 1057 421 1057 q 306 1027 335 1057 q 278 954 278 997 q 306 884 278 913 q 378 856 333 856 z "},"ǻ":{"ha":797,"x_min":90,"x_max":646,"o":"m 389 722 q 580 658 514 722 q 646 471 646 593 l 646 0 l 618 0 l 618 153 q 513 38 583 79 q 344 -4 443 -4 q 158 51 225 -4 q 90 197 90 106 q 151 337 90 283 q 346 390 211 390 l 618 390 l 618 469 q 560 639 618 582 q 390 696 503 696 q 245 669 313 696 q 129 596 178 642 l 110 615 q 235 694 161 665 q 389 722 308 722 m 344 22 q 618 206 544 22 l 618 364 l 344 364 q 173 319 228 364 q 118 199 118 275 q 178 69 118 117 q 344 22 238 22 m 476 1039 q 507 954 507 1001 q 470 866 507 903 q 378 829 433 829 q 286 866 322 829 q 250 954 250 903 q 287 1045 250 1007 q 378 1083 324 1083 q 454 1058 419 1083 l 567 1164 l 590 1146 l 476 1039 m 378 856 q 451 884 422 856 q 479 954 479 913 q 450 1026 479 996 q 378 1057 421 1057 q 306 1027 335 1057 q 278 954 278 997 q 306 884 278 913 q 378 856 333 856 z "},"ã":{"ha":797,"x_min":90,"x_max":646,"o":"m 389 722 q 580 658 514 722 q 646 471 646 593 l 646 0 l 618 0 l 618 153 q 513 38 583 79 q 344 -4 443 -4 q 158 51 225 -4 q 90 197 90 106 q 151 337 90 283 q 346 390 211 390 l 618 390 l 618 469 q 560 639 618 582 q 390 696 503 696 q 245 669 313 696 q 129 596 178 642 l 110 615 q 235 694 161 665 q 389 722 308 722 m 344 22 q 618 206 544 22 l 618 364 l 344 364 q 173 319 228 364 q 118 199 118 275 q 178 69 118 117 q 344 22 238 22 m 467 860 q 417 873 439 860 q 368 913 396 886 q 328 944 346 933 q 292 956 311 956 q 239 931 258 956 q 217 863 219 906 l 190 863 q 220 949 193 917 q 292 982 247 982 q 341 969 319 982 q 390 929 363 956 q 430 897 413 908 q 467 886 447 886 q 519 910 500 886 q 542 976 539 935 l 568 976 q 538 892 565 924 q 467 860 511 860 z "},"æ":{"ha":1360,"x_min":90,"x_max":1285,"o":"m 646 363 l 646 360 q 689 185 646 263 q 808 65 732 108 q 978 22 883 22 q 1115 50 1051 22 q 1222 133 1179 78 l 1242 114 q 1125 26 1194 57 q 978 -4 1056 -4 q 775 54 865 -4 q 642 222 685 113 q 540 52 621 108 q 344 -4 458 -4 q 158 51 225 -4 q 90 197 90 106 q 151 335 90 282 q 346 389 211 389 l 618 389 l 618 469 q 560 639 618 582 q 390 696 503 696 q 245 669 313 696 q 129 596 178 642 l 110 615 q 235 694 161 665 q 389 722 308 722 q 644 506 622 722 q 764 663 682 604 q 951 722 846 722 q 1121 677 1044 722 q 1241 551 1197 632 q 1285 369 1285 471 l 1285 363 l 646 363 m 951 696 q 800 656 868 696 q 692 547 732 617 q 646 389 651 476 l 1258 389 q 1212 547 1253 476 q 1103 656 1171 617 q 951 696 1035 696 m 344 22 q 543 90 468 22 q 618 281 618 158 l 618 363 l 344 363 q 173 318 228 363 q 118 199 118 274 q 178 69 118 117 q 344 22 238 22 z "},"ǽ":{"ha":1360,"x_min":90,"x_max":1285,"o":"m 646 363 l 646 360 q 689 185 646 263 q 808 65 732 108 q 978 22 883 22 q 1115 50 1051 22 q 1222 133 1179 78 l 1242 114 q 1125 26 1194 57 q 978 -4 1056 -4 q 775 54 865 -4 q 642 222 685 113 q 540 52 621 108 q 344 -4 458 -4 q 158 51 225 -4 q 90 197 90 106 q 151 335 90 282 q 346 389 211 389 l 618 389 l 618 469 q 560 639 618 582 q 390 696 503 696 q 245 669 313 696 q 129 596 178 642 l 110 615 q 235 694 161 665 q 389 722 308 722 q 644 506 622 722 q 764 663 682 604 q 951 722 846 722 q 1121 677 1044 722 q 1241 551 1197 632 q 1285 369 1285 471 l 1285 363 l 646 363 m 951 696 q 800 656 868 696 q 692 547 732 617 q 646 389 651 476 l 1258 389 q 1212 547 1253 476 q 1103 656 1171 617 q 951 696 1035 696 m 344 22 q 543 90 468 22 q 618 281 618 158 l 618 363 l 344 363 q 173 318 228 363 q 118 199 118 274 q 178 69 118 117 q 344 22 238 22 m 764 996 l 819 996 l 611 843 l 569 843 l 764 996 z "},"b":{"ha":932,"x_min":160,"x_max":857,"o":"m 508 722 q 685 676 606 722 q 811 547 765 629 q 857 360 857 464 q 811 172 857 256 q 685 42 765 89 q 508 -4 606 -4 q 310 56 396 -4 q 188 219 224 117 l 188 0 l 160 0 l 160 1031 l 188 1031 l 188 500 q 310 662 224 601 q 508 722 397 722 m 508 22 q 672 65 599 22 q 788 185 746 108 q 829 360 829 263 q 788 534 829 457 q 672 653 746 611 q 508 696 599 696 q 344 653 418 696 q 229 534 271 611 q 188 360 188 457 q 229 185 188 263 q 344 65 271 108 q 508 22 418 22 z "},"c":{"ha":757,"x_min":75,"x_max":686,"o":"m 428 -4 q 246 42 326 -4 q 120 172 165 89 q 75 360 75 254 q 120 548 75 465 q 246 676 165 631 q 428 722 326 722 q 574 692 507 722 q 686 606 642 663 l 667 585 q 564 668 626 640 q 428 696 501 696 q 260 653 335 696 q 144 534 186 611 q 103 360 103 457 q 144 185 103 261 q 260 65 186 108 q 428 22 335 22 q 564 50 501 22 q 667 133 626 78 l 686 113 q 574 26 642 56 q 428 -4 507 -4 z "},"ć":{"ha":757,"x_min":75,"x_max":686,"o":"m 428 -4 q 246 42 326 -4 q 120 172 165 89 q 75 360 75 254 q 120 548 75 465 q 246 676 165 631 q 428 722 326 722 q 574 692 507 722 q 686 606 642 663 l 667 585 q 564 668 626 640 q 428 696 501 696 q 260 653 335 696 q 144 534 186 611 q 103 360 103 457 q 144 185 103 261 q 260 65 186 108 q 428 22 335 22 q 564 50 501 22 q 667 133 626 78 l 686 113 q 574 26 642 56 q 428 -4 507 -4 m 536 996 l 592 996 l 383 843 l 342 843 l 536 996 z "},"č":{"ha":757,"x_min":75,"x_max":686,"o":"m 428 -4 q 246 42 326 -4 q 120 172 165 89 q 75 360 75 254 q 120 548 75 465 q 246 676 165 631 q 428 722 326 722 q 574 692 507 722 q 686 606 642 663 l 667 585 q 564 668 626 640 q 428 696 501 696 q 260 653 335 696 q 144 534 186 611 q 103 360 103 457 q 144 185 103 261 q 260 65 186 108 q 428 22 335 22 q 564 50 501 22 q 667 133 626 78 l 686 113 q 574 26 642 56 q 428 -4 507 -4 m 596 996 l 426 843 l 382 843 l 213 996 l 250 996 l 404 867 l 558 996 l 596 996 z "},"ç":{"ha":757,"x_min":75,"x_max":686,"o":"m 428 -4 q 246 42 326 -4 q 120 172 165 89 q 75 360 75 254 q 120 548 75 465 q 246 676 165 631 q 428 722 326 722 q 574 692 507 722 q 686 606 642 663 l 667 585 q 564 668 626 640 q 428 696 501 696 q 260 653 335 696 q 144 534 186 611 q 103 360 103 457 q 144 185 103 261 q 260 65 186 108 q 428 22 335 22 q 564 50 501 22 q 667 133 626 78 l 686 113 q 574 26 642 56 q 428 -4 507 -4 m 382 -296 q 279 -258 322 -296 l 294 -237 q 381 -269 329 -269 q 453 -247 425 -269 q 481 -186 481 -225 q 454 -126 481 -149 q 382 -103 428 -103 l 360 -103 l 390 7 l 417 7 l 393 -78 q 477 -110 446 -81 q 508 -186 508 -139 q 473 -266 508 -236 q 382 -296 438 -296 z "},"ḉ":{"ha":757,"x_min":75,"x_max":686,"o":"m 428 -4 q 246 42 326 -4 q 120 172 165 89 q 75 360 75 254 q 120 548 75 465 q 246 676 165 631 q 428 722 326 722 q 574 692 507 722 q 686 606 642 663 l 667 585 q 564 668 626 640 q 428 696 501 696 q 260 653 335 696 q 144 534 186 611 q 103 360 103 457 q 144 185 103 261 q 260 65 186 108 q 428 22 335 22 q 564 50 501 22 q 667 133 626 78 l 686 113 q 574 26 642 56 q 428 -4 507 -4 m 382 -296 q 279 -258 322 -296 l 294 -237 q 381 -269 329 -269 q 453 -247 425 -269 q 481 -186 481 -225 q 454 -126 481 -149 q 382 -103 428 -103 l 360 -103 l 390 7 l 417 7 l 393 -78 q 477 -110 446 -81 q 508 -186 508 -139 q 473 -266 508 -236 q 382 -296 438 -296 m 536 996 l 592 996 l 383 843 l 342 843 l 536 996 z "},"ĉ":{"ha":757,"x_min":75,"x_max":686,"o":"m 428 -4 q 246 42 326 -4 q 120 172 165 89 q 75 360 75 254 q 120 548 75 465 q 246 676 165 631 q 428 722 326 722 q 574 692 507 722 q 686 606 642 663 l 667 585 q 564 668 626 640 q 428 696 501 696 q 260 653 335 696 q 144 534 186 611 q 103 360 103 457 q 144 185 103 261 q 260 65 186 108 q 428 22 335 22 q 564 50 501 22 q 667 133 626 78 l 686 113 q 574 26 642 56 q 428 -4 507 -4 m 558 843 l 404 972 l 250 843 l 213 843 l 382 996 l 426 996 l 596 843 l 558 843 z "},"ċ":{"ha":757,"x_min":75,"x_max":686,"o":"m 428 -4 q 246 42 326 -4 q 120 172 165 89 q 75 360 75 254 q 120 548 75 465 q 246 676 165 631 q 428 722 326 722 q 574 692 507 722 q 686 606 642 663 l 667 585 q 564 668 626 640 q 428 696 501 696 q 260 653 335 696 q 144 534 186 611 q 103 360 103 457 q 144 185 103 261 q 260 65 186 108 q 428 22 335 22 q 564 50 501 22 q 667 133 626 78 l 686 113 q 574 26 642 56 q 428 -4 507 -4 m 404 890 q 378 901 389 890 q 368 926 368 913 q 378 952 368 942 q 404 963 389 963 q 429 952 418 963 q 440 926 440 942 q 429 901 440 913 q 404 890 418 890 z "},"d":{"ha":932,"x_min":75,"x_max":772,"o":"m 772 1031 l 772 0 l 744 0 l 744 219 q 622 56 708 117 q 424 -4 536 -4 q 247 42 326 -4 q 121 172 167 89 q 75 360 75 256 q 121 547 75 464 q 247 676 167 629 q 424 722 326 722 q 622 662 535 722 q 744 500 708 601 l 744 1031 l 772 1031 m 424 22 q 588 65 514 22 q 703 185 661 108 q 744 360 744 263 q 703 534 744 457 q 588 653 661 611 q 424 696 514 696 q 260 653 333 696 q 144 534 186 611 q 103 360 103 457 q 144 185 103 263 q 260 65 186 108 q 424 22 333 22 z "},"ð":{"ha":858,"x_min":75,"x_max":783,"o":"m 607 903 q 738 738 692 843 q 783 486 783 632 q 684 127 783 258 q 397 -4 585 -4 q 230 33 303 -4 q 116 140 157 71 q 75 297 75 208 q 116 455 75 388 q 232 560 157 522 q 408 597 307 597 q 631 524 540 597 q 738 324 722 451 q 756 489 756 396 q 710 733 756 632 q 578 890 664 835 l 206 724 l 194 750 l 547 908 q 357 950 465 950 q 149 921 249 950 l 142 947 q 241 968 183 960 q 357 976 299 976 q 579 922 483 976 l 701 976 l 713 950 l 607 903 m 397 22 q 567 62 496 22 q 676 165 639 101 q 713 297 713 228 q 674 435 713 372 q 565 534 635 497 q 408 571 496 571 q 185 496 267 571 q 103 297 103 421 q 140 154 103 217 q 243 57 176 92 q 397 22 310 22 z "},"ď":{"ha":932,"x_min":75,"x_max":939,"o":"m 772 1031 l 772 0 l 744 0 l 744 219 q 622 56 708 117 q 424 -4 536 -4 q 247 42 326 -4 q 121 172 167 89 q 75 360 75 256 q 121 547 75 464 q 247 676 167 629 q 424 722 326 722 q 622 662 535 722 q 744 500 708 601 l 744 1031 l 772 1031 m 424 22 q 588 65 514 22 q 703 185 661 108 q 744 360 744 263 q 703 534 744 457 q 588 653 661 611 q 424 696 514 696 q 260 653 333 696 q 144 534 186 611 q 103 360 103 457 q 144 185 103 263 q 260 65 186 108 q 424 22 333 22 m 911 1058 l 939 1058 l 936 808 l 911 808 l 911 1058 z "},"đ":{"ha":932,"x_min":75,"x_max":932,"o":"m 772 1031 l 772 0 l 744 0 l 744 219 q 622 56 708 117 q 424 -4 536 -4 q 247 42 326 -4 q 121 172 167 89 q 75 360 75 256 q 121 547 75 464 q 247 676 167 629 q 424 722 326 722 q 622 662 535 722 q 744 500 708 601 l 744 1031 l 772 1031 m 424 22 q 588 65 514 22 q 703 185 661 108 q 744 360 744 263 q 703 534 744 457 q 588 653 661 611 q 424 696 514 696 q 260 653 333 696 q 144 534 186 611 q 103 360 103 457 q 144 185 103 263 q 260 65 186 108 q 424 22 333 22 m 407 889 l 932 889 l 932 863 l 407 863 l 407 889 z "},"ḍ":{"ha":932,"x_min":75,"x_max":772,"o":"m 772 1031 l 772 0 l 744 0 l 744 219 q 622 56 708 117 q 424 -4 536 -4 q 247 42 326 -4 q 121 172 167 89 q 75 360 75 256 q 121 547 75 464 q 247 676 167 629 q 424 722 326 722 q 622 662 535 722 q 744 500 708 601 l 744 1031 l 772 1031 m 424 22 q 588 65 514 22 q 703 185 661 108 q 744 360 744 263 q 703 534 744 457 q 588 653 661 611 q 424 696 514 696 q 260 653 333 696 q 144 534 186 611 q 103 360 103 457 q 144 185 103 263 q 260 65 186 108 q 424 22 333 22 m 456 -244 q 430 -234 440 -244 q 419 -208 419 -224 q 430 -183 419 -194 q 456 -172 440 -172 q 481 -183 469 -172 q 492 -208 492 -194 q 481 -234 492 -224 q 456 -244 469 -244 z "},"ḏ":{"ha":932,"x_min":75,"x_max":772,"o":"m 772 1031 l 772 0 l 744 0 l 744 219 q 622 56 708 117 q 424 -4 536 -4 q 247 42 326 -4 q 121 172 167 89 q 75 360 75 256 q 121 547 75 464 q 247 676 167 629 q 424 722 326 722 q 622 662 535 722 q 744 500 708 601 l 744 1031 l 772 1031 m 424 22 q 588 65 514 22 q 703 185 661 108 q 744 360 744 263 q 703 534 744 457 q 588 653 661 611 q 424 696 514 696 q 260 653 333 696 q 144 534 186 611 q 103 360 103 457 q 144 185 103 263 q 260 65 186 108 q 424 22 333 22 m 267 -194 l 644 -194 l 644 -222 l 267 -222 l 267 -194 z "},"ǆ":{"ha":1643,"x_min":75,"x_max":1550,"o":"m 772 1031 l 772 0 l 744 0 l 744 219 q 622 56 708 117 q 424 -4 536 -4 q 247 42 326 -4 q 121 172 167 89 q 75 360 75 256 q 121 547 75 464 q 247 676 167 629 q 424 722 326 722 q 622 662 535 722 q 744 500 708 601 l 744 1031 l 772 1031 m 424 22 q 588 65 514 22 q 703 185 661 108 q 744 360 744 263 q 703 534 744 457 q 588 653 661 611 q 424 696 514 696 q 260 653 333 696 q 144 534 186 611 q 103 360 103 457 q 144 185 103 263 q 260 65 186 108 q 424 22 333 22 m 1550 26 l 1550 0 l 999 0 l 999 21 l 1504 692 l 1006 692 l 1006 718 l 1543 718 l 1543 697 l 1038 26 l 1550 26 m 1467 996 l 1297 843 l 1253 843 l 1083 996 l 1121 996 l 1275 867 l 1429 996 l 1467 996 z "},"e":{"ha":815,"x_min":75,"x_max":740,"o":"m 740 360 l 101 360 q 144 185 101 263 q 263 65 188 108 q 433 22 339 22 q 572 51 507 22 q 678 133 636 79 l 697 114 q 581 26 650 57 q 433 -4 511 -4 q 249 42 331 -4 q 122 172 168 89 q 75 360 75 256 q 118 547 75 464 q 237 676 161 629 q 407 722 313 722 q 576 676 500 722 q 697 550 653 631 q 740 367 740 469 l 740 360 m 407 696 q 256 656 324 696 q 147 544 188 615 q 101 386 106 474 l 714 386 q 668 544 710 474 q 558 656 626 615 q 407 696 490 696 z "},"é":{"ha":815,"x_min":75,"x_max":740,"o":"m 740 360 l 101 360 q 144 185 101 263 q 263 65 188 108 q 433 22 339 22 q 572 51 507 22 q 678 133 636 79 l 697 114 q 581 26 650 57 q 433 -4 511 -4 q 249 42 331 -4 q 122 172 168 89 q 75 360 75 256 q 118 547 75 464 q 237 676 161 629 q 407 722 313 722 q 576 676 500 722 q 697 550 653 631 q 740 367 740 469 l 740 360 m 407 696 q 256 656 324 696 q 147 544 188 615 q 101 386 106 474 l 714 386 q 668 544 710 474 q 558 656 626 615 q 407 696 490 696 m 540 996 l 596 996 l 388 843 l 346 843 l 540 996 z "},"ĕ":{"ha":815,"x_min":75,"x_max":740,"o":"m 740 360 l 101 360 q 144 185 101 263 q 263 65 188 108 q 433 22 339 22 q 572 51 507 22 q 678 133 636 79 l 697 114 q 581 26 650 57 q 433 -4 511 -4 q 249 42 331 -4 q 122 172 168 89 q 75 360 75 256 q 118 547 75 464 q 237 676 161 629 q 407 722 313 722 q 576 676 500 722 q 697 550 653 631 q 740 367 740 469 l 740 360 m 407 696 q 256 656 324 696 q 147 544 188 615 q 101 386 106 474 l 714 386 q 668 544 710 474 q 558 656 626 615 q 407 696 490 696 m 408 839 q 279 882 332 839 q 225 996 226 925 l 251 996 q 297 901 253 936 q 408 865 342 865 q 519 901 475 865 q 565 996 564 936 l 592 996 q 538 882 590 925 q 408 839 485 839 z "},"ě":{"ha":815,"x_min":75,"x_max":740,"o":"m 740 360 l 101 360 q 144 185 101 263 q 263 65 188 108 q 433 22 339 22 q 572 51 507 22 q 678 133 636 79 l 697 114 q 581 26 650 57 q 433 -4 511 -4 q 249 42 331 -4 q 122 172 168 89 q 75 360 75 256 q 118 547 75 464 q 237 676 161 629 q 407 722 313 722 q 576 676 500 722 q 697 550 653 631 q 740 367 740 469 l 740 360 m 407 696 q 256 656 324 696 q 147 544 188 615 q 101 386 106 474 l 714 386 q 668 544 710 474 q 558 656 626 615 q 407 696 490 696 m 600 996 l 431 843 l 386 843 l 217 996 l 254 996 l 408 867 l 563 996 l 600 996 z "},"ḝ":{"ha":815,"x_min":75,"x_max":740,"o":"m 740 360 l 101 360 q 144 185 101 263 q 263 65 188 108 q 433 22 339 22 q 572 51 507 22 q 678 133 636 79 l 697 114 q 581 26 650 57 q 433 -4 511 -4 q 249 42 331 -4 q 122 172 168 89 q 75 360 75 256 q 118 547 75 464 q 237 676 161 629 q 407 722 313 722 q 576 676 500 722 q 697 550 653 631 q 740 367 740 469 l 740 360 m 407 696 q 256 656 324 696 q 147 544 188 615 q 101 386 106 474 l 714 386 q 668 544 710 474 q 558 656 626 615 q 407 696 490 696 m 386 -296 q 283 -258 326 -296 l 299 -237 q 385 -269 333 -269 q 457 -247 429 -269 q 485 -186 485 -225 q 458 -126 485 -149 q 386 -103 432 -103 l 364 -103 l 394 7 l 421 7 l 397 -78 q 481 -110 450 -81 q 513 -186 513 -139 q 477 -266 513 -236 q 386 -296 442 -296 m 408 839 q 279 882 332 839 q 225 996 226 925 l 251 996 q 297 901 253 936 q 408 865 342 865 q 519 901 475 865 q 565 996 564 936 l 592 996 q 538 882 590 925 q 408 839 485 839 z "},"ê":{"ha":815,"x_min":75,"x_max":740,"o":"m 740 360 l 101 360 q 144 185 101 263 q 263 65 188 108 q 433 22 339 22 q 572 51 507 22 q 678 133 636 79 l 697 114 q 581 26 650 57 q 433 -4 511 -4 q 249 42 331 -4 q 122 172 168 89 q 75 360 75 256 q 118 547 75 464 q 237 676 161 629 q 407 722 313 722 q 576 676 500 722 q 697 550 653 631 q 740 367 740 469 l 740 360 m 407 696 q 256 656 324 696 q 147 544 188 615 q 101 386 106 474 l 714 386 q 668 544 710 474 q 558 656 626 615 q 407 696 490 696 m 563 843 l 408 972 l 254 843 l 217 843 l 386 996 l 431 996 l 600 843 l 563 843 z "},"ế":{"ha":815,"x_min":75,"x_max":744,"o":"m 740 360 l 101 360 q 144 185 101 263 q 263 65 188 108 q 433 22 339 22 q 572 51 507 22 q 678 133 636 79 l 697 114 q 581 26 650 57 q 433 -4 511 -4 q 249 42 331 -4 q 122 172 168 89 q 75 360 75 256 q 118 547 75 464 q 237 676 161 629 q 407 722 313 722 q 576 676 500 722 q 697 550 653 631 q 740 367 740 469 l 740 360 m 407 696 q 256 656 324 696 q 147 544 188 615 q 101 386 106 474 l 714 386 q 668 544 710 474 q 558 656 626 615 q 407 696 490 696 m 558 843 l 408 932 l 258 843 l 217 843 l 388 954 l 429 954 l 600 843 l 558 843 m 689 1086 l 744 1086 l 554 947 l 513 947 l 689 1086 z "},"ệ":{"ha":815,"x_min":75,"x_max":740,"o":"m 740 360 l 101 360 q 144 185 101 263 q 263 65 188 108 q 433 22 339 22 q 572 51 507 22 q 678 133 636 79 l 697 114 q 581 26 650 57 q 433 -4 511 -4 q 249 42 331 -4 q 122 172 168 89 q 75 360 75 256 q 118 547 75 464 q 237 676 161 629 q 407 722 313 722 q 576 676 500 722 q 697 550 653 631 q 740 367 740 469 l 740 360 m 407 696 q 256 656 324 696 q 147 544 188 615 q 101 386 106 474 l 714 386 q 668 544 710 474 q 558 656 626 615 q 407 696 490 696 m 408 -244 q 383 -234 393 -244 q 372 -208 372 -224 q 383 -183 372 -194 q 408 -172 393 -172 q 433 -183 422 -172 q 444 -208 444 -194 q 433 -234 444 -224 q 408 -244 422 -244 m 563 843 l 408 972 l 254 843 l 217 843 l 386 996 l 431 996 l 600 843 l 563 843 z "},"ề":{"ha":815,"x_min":75,"x_max":740,"o":"m 740 360 l 101 360 q 144 185 101 263 q 263 65 188 108 q 433 22 339 22 q 572 51 507 22 q 678 133 636 79 l 697 114 q 581 26 650 57 q 433 -4 511 -4 q 249 42 331 -4 q 122 172 168 89 q 75 360 75 256 q 118 547 75 464 q 237 676 161 629 q 407 722 313 722 q 576 676 500 722 q 697 550 653 631 q 740 367 740 469 l 740 360 m 407 696 q 256 656 324 696 q 147 544 188 615 q 101 386 106 474 l 714 386 q 668 544 710 474 q 558 656 626 615 q 407 696 490 696 m 558 843 l 408 932 l 258 843 l 217 843 l 388 954 l 429 954 l 600 843 l 558 843 m 406 1086 l 461 1086 l 638 947 l 596 947 l 406 1086 z "},"ể":{"ha":815,"x_min":75,"x_max":740,"o":"m 740 360 l 101 360 q 144 185 101 263 q 263 65 188 108 q 433 22 339 22 q 572 51 507 22 q 678 133 636 79 l 697 114 q 581 26 650 57 q 433 -4 511 -4 q 249 42 331 -4 q 122 172 168 89 q 75 360 75 256 q 118 547 75 464 q 237 676 161 629 q 407 722 313 722 q 576 676 500 722 q 697 550 653 631 q 740 367 740 469 l 740 360 m 407 696 q 256 656 324 696 q 147 544 188 615 q 101 386 106 474 l 714 386 q 668 544 710 474 q 558 656 626 615 q 407 696 490 696 m 558 843 l 408 932 l 258 843 l 217 843 l 388 954 l 429 954 l 600 843 l 558 843 m 538 949 q 583 983 567 963 q 600 1026 600 1003 q 584 1063 600 1049 q 542 1076 568 1076 q 482 1058 508 1076 l 471 1081 q 543 1103 501 1103 q 604 1082 582 1103 q 626 1026 626 1061 q 551 928 626 961 l 538 949 z "},"ễ":{"ha":815,"x_min":75,"x_max":740,"o":"m 740 360 l 101 360 q 144 185 101 263 q 263 65 188 108 q 433 22 339 22 q 572 51 507 22 q 678 133 636 79 l 697 114 q 581 26 650 57 q 433 -4 511 -4 q 249 42 331 -4 q 122 172 168 89 q 75 360 75 256 q 118 547 75 464 q 237 676 161 629 q 407 722 313 722 q 576 676 500 722 q 697 550 653 631 q 740 367 740 469 l 740 360 m 407 696 q 256 656 324 696 q 147 544 188 615 q 101 386 106 474 l 714 386 q 668 544 710 474 q 558 656 626 615 q 407 696 490 696 m 558 843 l 408 932 l 258 843 l 217 843 l 388 954 l 429 954 l 600 843 l 558 843 m 493 1000 q 447 1010 467 1000 q 399 1040 428 1019 q 359 1066 376 1057 q 324 1075 342 1075 q 270 1056 290 1075 q 249 1003 250 1038 l 222 1003 q 251 1074 224 1047 q 324 1101 279 1101 q 369 1092 349 1101 q 418 1061 389 1082 q 458 1035 440 1044 q 493 1026 475 1026 q 547 1044 526 1026 q 568 1096 567 1063 l 594 1096 q 565 1026 593 1053 q 493 1000 538 1000 z "},"ȅ":{"ha":815,"x_min":75,"x_max":740,"o":"m 740 360 l 101 360 q 144 185 101 263 q 263 65 188 108 q 433 22 339 22 q 572 51 507 22 q 678 133 636 79 l 697 114 q 581 26 650 57 q 433 -4 511 -4 q 249 42 331 -4 q 122 172 168 89 q 75 360 75 256 q 118 547 75 464 q 237 676 161 629 q 407 722 313 722 q 576 676 500 722 q 697 550 653 631 q 740 367 740 469 l 740 360 m 407 696 q 256 656 324 696 q 147 544 188 615 q 101 386 106 474 l 714 386 q 668 544 710 474 q 558 656 626 615 q 407 696 490 696 m 129 996 l 176 996 l 331 843 l 293 843 l 129 996 m 322 996 l 369 996 l 524 843 l 486 843 l 322 996 z "},"ë":{"ha":815,"x_min":75,"x_max":740,"o":"m 740 360 l 101 360 q 144 185 101 263 q 263 65 188 108 q 433 22 339 22 q 572 51 507 22 q 678 133 636 79 l 697 114 q 581 26 650 57 q 433 -4 511 -4 q 249 42 331 -4 q 122 172 168 89 q 75 360 75 256 q 118 547 75 464 q 237 676 161 629 q 407 722 313 722 q 576 676 500 722 q 697 550 653 631 q 740 367 740 469 l 740 360 m 407 696 q 256 656 324 696 q 147 544 188 615 q 101 386 106 474 l 714 386 q 668 544 710 474 q 558 656 626 615 q 407 696 490 696 m 294 890 q 269 901 279 890 q 258 926 258 913 q 269 952 258 942 q 294 963 279 963 q 319 952 308 963 q 331 926 331 942 q 319 901 331 913 q 294 890 308 890 m 522 890 q 497 901 507 890 q 486 926 486 913 q 497 952 486 942 q 522 963 507 963 q 547 952 536 963 q 558 926 558 942 q 547 901 558 913 q 522 890 536 890 z "},"ė":{"ha":815,"x_min":75,"x_max":740,"o":"m 740 360 l 101 360 q 144 185 101 263 q 263 65 188 108 q 433 22 339 22 q 572 51 507 22 q 678 133 636 79 l 697 114 q 581 26 650 57 q 433 -4 511 -4 q 249 42 331 -4 q 122 172 168 89 q 75 360 75 256 q 118 547 75 464 q 237 676 161 629 q 407 722 313 722 q 576 676 500 722 q 697 550 653 631 q 740 367 740 469 l 740 360 m 407 696 q 256 656 324 696 q 147 544 188 615 q 101 386 106 474 l 714 386 q 668 544 710 474 q 558 656 626 615 q 407 696 490 696 m 408 890 q 383 901 393 890 q 372 926 372 913 q 383 952 372 942 q 408 963 393 963 q 433 952 422 963 q 444 926 444 942 q 433 901 444 913 q 408 890 422 890 z "},"ẹ":{"ha":815,"x_min":75,"x_max":740,"o":"m 740 360 l 101 360 q 144 185 101 263 q 263 65 188 108 q 433 22 339 22 q 572 51 507 22 q 678 133 636 79 l 697 114 q 581 26 650 57 q 433 -4 511 -4 q 249 42 331 -4 q 122 172 168 89 q 75 360 75 256 q 118 547 75 464 q 237 676 161 629 q 407 722 313 722 q 576 676 500 722 q 697 550 653 631 q 740 367 740 469 l 740 360 m 407 696 q 256 656 324 696 q 147 544 188 615 q 101 386 106 474 l 714 386 q 668 544 710 474 q 558 656 626 615 q 407 696 490 696 m 408 -244 q 383 -234 393 -244 q 372 -208 372 -224 q 383 -183 372 -194 q 408 -172 393 -172 q 433 -183 422 -172 q 444 -208 444 -194 q 433 -234 444 -224 q 408 -244 422 -244 z "},"è":{"ha":815,"x_min":75,"x_max":740,"o":"m 740 360 l 101 360 q 144 185 101 263 q 263 65 188 108 q 433 22 339 22 q 572 51 507 22 q 678 133 636 79 l 697 114 q 581 26 650 57 q 433 -4 511 -4 q 249 42 331 -4 q 122 172 168 89 q 75 360 75 256 q 118 547 75 464 q 237 676 161 629 q 407 722 313 722 q 576 676 500 722 q 697 550 653 631 q 740 367 740 469 l 740 360 m 407 696 q 256 656 324 696 q 147 544 188 615 q 101 386 106 474 l 714 386 q 668 544 710 474 q 558 656 626 615 q 407 696 490 696 m 221 996 l 276 996 l 471 843 l 429 843 l 221 996 z "},"ẻ":{"ha":815,"x_min":75,"x_max":740,"o":"m 740 360 l 101 360 q 144 185 101 263 q 263 65 188 108 q 433 22 339 22 q 572 51 507 22 q 678 133 636 79 l 697 114 q 581 26 650 57 q 433 -4 511 -4 q 249 42 331 -4 q 122 172 168 89 q 75 360 75 256 q 118 547 75 464 q 237 676 161 629 q 407 722 313 722 q 576 676 500 722 q 697 550 653 631 q 740 367 740 469 l 740 360 m 407 696 q 256 656 324 696 q 147 544 188 615 q 101 386 106 474 l 714 386 q 668 544 710 474 q 558 656 626 615 q 407 696 490 696 m 397 860 q 485 967 485 899 q 462 1020 485 999 q 404 1042 439 1042 q 318 1015 358 1042 l 307 1039 q 351 1060 325 1053 q 403 1068 378 1068 q 483 1041 453 1068 q 513 968 513 1014 q 488 894 513 926 q 411 838 463 863 l 397 860 z "},"ȇ":{"ha":815,"x_min":75,"x_max":740,"o":"m 740 360 l 101 360 q 144 185 101 263 q 263 65 188 108 q 433 22 339 22 q 572 51 507 22 q 678 133 636 79 l 697 114 q 581 26 650 57 q 433 -4 511 -4 q 249 42 331 -4 q 122 172 168 89 q 75 360 75 256 q 118 547 75 464 q 237 676 161 629 q 407 722 313 722 q 576 676 500 722 q 697 550 653 631 q 740 367 740 469 l 740 360 m 407 696 q 256 656 324 696 q 147 544 188 615 q 101 386 106 474 l 714 386 q 668 544 710 474 q 558 656 626 615 q 407 696 490 696 m 225 843 q 279 957 226 914 q 408 1000 332 1000 q 538 957 485 1000 q 592 843 590 914 l 565 843 q 519 938 564 903 q 408 974 475 974 q 297 938 342 974 q 251 843 253 903 l 225 843 z "},"ē":{"ha":815,"x_min":75,"x_max":740,"o":"m 740 360 l 101 360 q 144 185 101 263 q 263 65 188 108 q 433 22 339 22 q 572 51 507 22 q 678 133 636 79 l 697 114 q 581 26 650 57 q 433 -4 511 -4 q 249 42 331 -4 q 122 172 168 89 q 75 360 75 256 q 118 547 75 464 q 237 676 161 629 q 407 722 313 722 q 576 676 500 722 q 697 550 653 631 q 740 367 740 469 l 740 360 m 407 696 q 256 656 324 696 q 147 544 188 615 q 101 386 106 474 l 714 386 q 668 544 710 474 q 558 656 626 615 q 407 696 490 696 m 219 933 l 597 933 l 597 906 l 219 906 l 219 933 z "},"ḗ":{"ha":815,"x_min":75,"x_max":740,"o":"m 740 360 l 101 360 q 144 185 101 263 q 263 65 188 108 q 433 22 339 22 q 572 51 507 22 q 678 133 636 79 l 697 114 q 581 26 650 57 q 433 -4 511 -4 q 249 42 331 -4 q 122 172 168 89 q 75 360 75 256 q 118 547 75 464 q 237 676 161 629 q 407 722 313 722 q 576 676 500 722 q 697 550 653 631 q 740 367 740 469 l 740 360 m 407 696 q 256 656 324 696 q 147 544 188 615 q 101 386 106 474 l 714 386 q 668 544 710 474 q 558 656 626 615 q 407 696 490 696 m 219 913 l 597 913 l 597 885 l 219 885 l 219 913 m 522 1139 l 578 1139 l 388 1000 l 346 1000 l 522 1139 z "},"ḕ":{"ha":815,"x_min":75,"x_max":740,"o":"m 740 360 l 101 360 q 144 185 101 263 q 263 65 188 108 q 433 22 339 22 q 572 51 507 22 q 678 133 636 79 l 697 114 q 581 26 650 57 q 433 -4 511 -4 q 249 42 331 -4 q 122 172 168 89 q 75 360 75 256 q 118 547 75 464 q 237 676 161 629 q 407 722 313 722 q 576 676 500 722 q 697 550 653 631 q 740 367 740 469 l 740 360 m 407 696 q 256 656 324 696 q 147 544 188 615 q 101 386 106 474 l 714 386 q 668 544 710 474 q 558 656 626 615 q 407 696 490 696 m 219 913 l 597 913 l 597 885 l 219 885 l 219 913 m 239 1139 l 294 1139 l 471 1000 l 429 1000 l 239 1139 z "},"ę":{"ha":815,"x_min":75,"x_max":740,"o":"m 740 360 l 101 360 q 144 185 101 263 q 263 65 188 108 q 433 22 339 22 q 572 51 507 22 q 678 133 636 79 l 697 114 q 647 65 689 104 q 515 -80 547 -29 q 483 -179 483 -131 q 511 -247 483 -224 q 583 -269 539 -269 q 669 -237 635 -269 l 685 -258 q 582 -296 642 -296 q 491 -265 526 -296 q 456 -179 456 -233 q 480 -86 456 -135 q 569 22 504 -37 q 433 -4 507 -4 q 249 42 331 -4 q 122 172 168 89 q 75 360 75 256 q 118 547 75 464 q 237 676 161 629 q 407 722 313 722 q 576 676 500 722 q 697 550 653 631 q 740 367 740 469 l 740 360 m 407 696 q 256 656 324 696 q 147 544 188 615 q 101 386 106 474 l 714 386 q 668 544 710 474 q 558 656 626 615 q 407 696 490 696 z "},"ẽ":{"ha":815,"x_min":75,"x_max":740,"o":"m 740 360 l 101 360 q 144 185 101 263 q 263 65 188 108 q 433 22 339 22 q 572 51 507 22 q 678 133 636 79 l 697 114 q 581 26 650 57 q 433 -4 511 -4 q 249 42 331 -4 q 122 172 168 89 q 75 360 75 256 q 118 547 75 464 q 237 676 161 629 q 407 722 313 722 q 576 676 500 722 q 697 550 653 631 q 740 367 740 469 l 740 360 m 407 696 q 256 656 324 696 q 147 544 188 615 q 101 386 106 474 l 714 386 q 668 544 710 474 q 558 656 626 615 q 407 696 490 696 m 496 860 q 447 873 468 860 q 397 913 425 886 q 358 944 375 933 q 321 956 340 956 q 268 931 288 956 q 246 863 249 906 l 219 863 q 249 949 222 917 q 321 982 276 982 q 370 969 349 982 q 419 929 392 956 q 459 897 442 908 q 496 886 476 886 q 549 910 529 886 q 571 976 568 935 l 597 976 q 567 892 594 924 q 496 860 540 860 z "},"ə":{"ha":815,"x_min":75,"x_max":740,"o":"m 75 358 l 714 358 q 671 533 714 456 q 552 653 628 610 q 382 696 476 696 q 244 667 308 696 q 138 585 179 639 l 118 604 q 235 692 165 661 q 382 722 304 722 q 566 676 485 722 q 694 546 647 629 q 740 358 740 463 q 697 172 740 254 q 578 42 654 89 q 408 -4 503 -4 q 239 42 315 -4 q 119 168 163 88 q 75 351 75 249 l 75 358 m 408 22 q 560 63 492 22 q 669 174 628 103 q 714 332 710 244 l 101 332 q 147 174 106 244 q 257 63 189 103 q 408 22 325 22 z "},"ʒ":{"ha":676,"x_min":-36,"x_max":618,"o":"m 278 275 q 531 201 444 275 q 618 0 618 126 q 534 -200 618 -125 q 297 -275 450 -275 q 99 -236 189 -275 q -36 -135 8 -197 l -18 -117 q 109 -211 25 -174 q 297 -249 193 -249 q 515 -182 439 -249 q 590 0 590 -115 q 513 183 590 117 q 279 249 435 249 l 229 249 l 229 269 l 544 692 l -6 692 l -6 718 l 582 718 l 582 697 l 267 275 l 278 275 z "},"ǯ":{"ha":676,"x_min":-36,"x_max":618,"o":"m 278 275 q 531 201 444 275 q 618 0 618 126 q 534 -200 618 -125 q 297 -275 450 -275 q 99 -236 189 -275 q -36 -135 8 -197 l -18 -117 q 109 -211 25 -174 q 297 -249 193 -249 q 515 -182 439 -249 q 590 0 590 -115 q 513 183 590 117 q 279 249 435 249 l 229 249 l 229 269 l 544 692 l -6 692 l -6 718 l 582 718 l 582 697 l 267 275 l 278 275 m 488 996 l 318 843 l 274 843 l 104 996 l 142 996 l 296 867 l 450 996 l 488 996 z "},"f":{"ha":432,"x_min":32,"x_max":485,"o":"m 346 1008 q 236 968 274 1008 q 199 851 199 928 l 199 718 l 442 718 l 442 692 l 199 692 l 199 0 l 171 0 l 171 692 l 32 692 l 32 718 l 171 718 l 171 858 q 217 987 171 939 q 344 1035 263 1035 q 423 1022 385 1035 q 485 983 461 1008 l 465 964 q 346 1008 418 1008 z "},"g":{"ha":940,"x_min":75,"x_max":781,"o":"m 781 718 l 781 64 q 699 -191 781 -108 q 449 -274 617 -274 q 266 -242 350 -274 q 131 -154 182 -210 l 150 -135 q 282 -218 206 -189 q 449 -247 358 -247 q 678 -173 604 -247 q 753 60 753 -99 l 753 240 q 628 83 715 142 q 428 24 542 24 q 247 69 328 24 q 121 194 167 114 q 75 374 75 274 q 121 553 75 474 q 247 678 167 633 q 428 722 328 722 q 628 664 542 722 q 753 508 715 606 l 753 718 l 781 718 m 428 50 q 595 91 521 50 q 711 206 669 132 q 753 374 753 281 q 711 540 753 467 q 595 655 669 614 q 428 696 521 696 q 260 655 335 696 q 144 540 186 614 q 103 374 103 467 q 144 206 103 281 q 260 91 186 132 q 428 50 335 50 z "},"ğ":{"ha":940,"x_min":75,"x_max":781,"o":"m 781 718 l 781 64 q 699 -191 781 -108 q 449 -274 617 -274 q 266 -242 350 -274 q 131 -154 182 -210 l 150 -135 q 282 -218 206 -189 q 449 -247 358 -247 q 678 -173 604 -247 q 753 60 753 -99 l 753 240 q 628 83 715 142 q 428 24 542 24 q 247 69 328 24 q 121 194 167 114 q 75 374 75 274 q 121 553 75 474 q 247 678 167 633 q 428 722 328 722 q 628 664 542 722 q 753 508 715 606 l 753 718 l 781 718 m 428 50 q 595 91 521 50 q 711 206 669 132 q 753 374 753 281 q 711 540 753 467 q 595 655 669 614 q 428 696 521 696 q 260 655 335 696 q 144 540 186 614 q 103 374 103 467 q 144 206 103 281 q 260 91 186 132 q 428 50 335 50 m 438 839 q 308 882 361 839 q 254 996 256 925 l 281 996 q 326 901 282 936 q 438 865 371 865 q 549 901 504 865 q 594 996 593 936 l 621 996 q 567 882 619 925 q 438 839 514 839 z "},"ǧ":{"ha":940,"x_min":75,"x_max":781,"o":"m 781 718 l 781 64 q 699 -191 781 -108 q 449 -274 617 -274 q 266 -242 350 -274 q 131 -154 182 -210 l 150 -135 q 282 -218 206 -189 q 449 -247 358 -247 q 678 -173 604 -247 q 753 60 753 -99 l 753 240 q 628 83 715 142 q 428 24 542 24 q 247 69 328 24 q 121 194 167 114 q 75 374 75 274 q 121 553 75 474 q 247 678 167 633 q 428 722 328 722 q 628 664 542 722 q 753 508 715 606 l 753 718 l 781 718 m 428 50 q 595 91 521 50 q 711 206 669 132 q 753 374 753 281 q 711 540 753 467 q 595 655 669 614 q 428 696 521 696 q 260 655 335 696 q 144 540 186 614 q 103 374 103 467 q 144 206 103 281 q 260 91 186 132 q 428 50 335 50 m 629 996 l 460 843 l 415 843 l 246 996 l 283 996 l 438 867 l 592 996 l 629 996 z "},"ĝ":{"ha":940,"x_min":75,"x_max":781,"o":"m 781 718 l 781 64 q 699 -191 781 -108 q 449 -274 617 -274 q 266 -242 350 -274 q 131 -154 182 -210 l 150 -135 q 282 -218 206 -189 q 449 -247 358 -247 q 678 -173 604 -247 q 753 60 753 -99 l 753 240 q 628 83 715 142 q 428 24 542 24 q 247 69 328 24 q 121 194 167 114 q 75 374 75 274 q 121 553 75 474 q 247 678 167 633 q 428 722 328 722 q 628 664 542 722 q 753 508 715 606 l 753 718 l 781 718 m 428 50 q 595 91 521 50 q 711 206 669 132 q 753 374 753 281 q 711 540 753 467 q 595 655 669 614 q 428 696 521 696 q 260 655 335 696 q 144 540 186 614 q 103 374 103 467 q 144 206 103 281 q 260 91 186 132 q 428 50 335 50 m 592 843 l 438 972 l 283 843 l 246 843 l 415 996 l 460 996 l 629 843 l 592 843 z "},"ģ":{"ha":940,"x_min":75,"x_max":781,"o":"m 781 718 l 781 64 q 699 -191 781 -108 q 449 -274 617 -274 q 266 -242 350 -274 q 131 -154 182 -210 l 150 -135 q 282 -218 206 -189 q 449 -247 358 -247 q 678 -173 604 -247 q 753 60 753 -99 l 753 240 q 628 83 715 142 q 428 24 542 24 q 247 69 328 24 q 121 194 167 114 q 75 374 75 274 q 121 553 75 474 q 247 678 167 633 q 428 722 328 722 q 628 664 542 722 q 753 508 715 606 l 753 718 l 781 718 m 428 50 q 595 91 521 50 q 711 206 669 132 q 753 374 753 281 q 711 540 753 467 q 595 655 669 614 q 428 696 521 696 q 260 655 335 696 q 144 540 186 614 q 103 374 103 467 q 144 206 103 281 q 260 91 186 132 q 428 50 335 50 m 442 911 q 465 899 456 908 q 474 875 474 889 q 463 849 474 860 q 438 839 453 839 q 412 850 422 839 q 401 875 401 861 q 404 897 401 885 q 408 915 407 908 l 447 1054 l 472 1054 l 442 911 z "},"ġ":{"ha":940,"x_min":75,"x_max":781,"o":"m 781 718 l 781 64 q 699 -191 781 -108 q 449 -274 617 -274 q 266 -242 350 -274 q 131 -154 182 -210 l 150 -135 q 282 -218 206 -189 q 449 -247 358 -247 q 678 -173 604 -247 q 753 60 753 -99 l 753 240 q 628 83 715 142 q 428 24 542 24 q 247 69 328 24 q 121 194 167 114 q 75 374 75 274 q 121 553 75 474 q 247 678 167 633 q 428 722 328 722 q 628 664 542 722 q 753 508 715 606 l 753 718 l 781 718 m 428 50 q 595 91 521 50 q 711 206 669 132 q 753 374 753 281 q 711 540 753 467 q 595 655 669 614 q 428 696 521 696 q 260 655 335 696 q 144 540 186 614 q 103 374 103 467 q 144 206 103 281 q 260 91 186 132 q 428 50 335 50 m 438 890 q 412 901 422 890 q 401 926 401 913 q 412 952 401 942 q 438 963 422 963 q 463 952 451 963 q 474 926 474 942 q 463 901 474 913 q 438 890 451 890 z "},"ḡ":{"ha":940,"x_min":75,"x_max":781,"o":"m 781 718 l 781 64 q 699 -191 781 -108 q 449 -274 617 -274 q 266 -242 350 -274 q 131 -154 182 -210 l 150 -135 q 282 -218 206 -189 q 449 -247 358 -247 q 678 -173 604 -247 q 753 60 753 -99 l 753 240 q 628 83 715 142 q 428 24 542 24 q 247 69 328 24 q 121 194 167 114 q 75 374 75 274 q 121 553 75 474 q 247 678 167 633 q 428 722 328 722 q 628 664 542 722 q 753 508 715 606 l 753 718 l 781 718 m 428 50 q 595 91 521 50 q 711 206 669 132 q 753 374 753 281 q 711 540 753 467 q 595 655 669 614 q 428 696 521 696 q 260 655 335 696 q 144 540 186 614 q 103 374 103 467 q 144 206 103 281 q 260 91 186 132 q 428 50 335 50 m 249 933 l 626 933 l 626 906 l 249 906 l 249 933 z "},"ǥ":{"ha":943,"x_min":75,"x_max":869,"o":"m 869 -96 l 757 -96 q 449 -274 693 -274 q 266 -242 350 -274 q 131 -154 182 -210 l 150 -135 q 282 -218 206 -189 q 449 -247 358 -247 q 628 -210 560 -247 q 728 -96 697 -174 l 414 -96 l 414 -69 l 738 -69 q 753 60 753 -11 l 753 240 q 628 83 715 142 q 428 24 542 24 q 247 69 328 24 q 121 194 167 114 q 75 374 75 274 q 121 553 75 474 q 247 678 167 633 q 428 722 328 722 q 628 664 542 722 q 753 508 715 606 l 753 718 l 781 718 l 781 64 q 765 -69 781 -8 l 869 -69 l 869 -96 m 428 50 q 595 91 521 50 q 711 206 669 132 q 753 374 753 281 q 711 540 753 467 q 595 655 669 614 q 428 696 521 696 q 260 655 335 696 q 144 540 186 614 q 103 374 103 467 q 144 206 103 281 q 260 91 186 132 q 428 50 335 50 z "},"h":{"ha":928,"x_min":160,"x_max":776,"o":"m 489 722 q 700 645 624 722 q 776 424 776 568 l 776 0 l 749 0 l 749 424 q 681 626 749 556 q 490 696 614 696 q 269 612 350 696 q 188 390 188 528 l 188 0 l 160 0 l 160 1031 l 188 1031 l 188 526 q 299 670 221 618 q 489 722 376 722 z "},"ħ":{"ha":928,"x_min":0,"x_max":776,"o":"m 489 722 q 700 645 624 722 q 776 424 776 568 l 776 0 l 749 0 l 749 424 q 681 626 749 556 q 490 696 614 696 q 269 612 350 696 q 188 390 188 528 l 188 0 l 160 0 l 160 1031 l 188 1031 l 188 526 q 299 670 221 618 q 489 722 376 722 m 0 889 l 525 889 l 525 863 l 0 863 l 0 889 z "},"ḫ":{"ha":928,"x_min":160,"x_max":776,"o":"m 489 722 q 700 645 624 722 q 776 424 776 568 l 776 0 l 749 0 l 749 424 q 681 626 749 556 q 490 696 614 696 q 269 612 350 696 q 188 390 188 528 l 188 0 l 160 0 l 160 1031 l 188 1031 l 188 526 q 299 670 221 618 q 489 722 376 722 m 465 -275 q 336 -234 389 -275 q 282 -125 283 -193 l 308 -125 q 354 -215 310 -181 q 465 -249 399 -249 q 576 -215 532 -249 q 622 -125 621 -181 l 649 -125 q 594 -234 647 -193 q 465 -275 542 -275 z "},"ȟ":{"ha":928,"x_min":-18,"x_max":776,"o":"m 489 722 q 700 645 624 722 q 776 424 776 568 l 776 0 l 749 0 l 749 424 q 681 626 749 556 q 490 696 614 696 q 269 612 350 696 q 188 390 188 528 l 188 0 l 160 0 l 160 1031 l 188 1031 l 188 526 q 299 670 221 618 q 489 722 376 722 m 365 1308 l 196 1156 l 151 1156 l -18 1308 l 19 1308 l 174 1179 l 328 1308 l 365 1308 z "},"ĥ":{"ha":928,"x_min":-18,"x_max":776,"o":"m 489 722 q 700 645 624 722 q 776 424 776 568 l 776 0 l 749 0 l 749 424 q 681 626 749 556 q 490 696 614 696 q 269 612 350 696 q 188 390 188 528 l 188 0 l 160 0 l 160 1031 l 188 1031 l 188 526 q 299 670 221 618 q 489 722 376 722 m 328 1110 l 174 1239 l 19 1110 l -18 1110 l 151 1263 l 196 1263 l 365 1110 l 328 1110 z "},"ḥ":{"ha":928,"x_min":160,"x_max":776,"o":"m 489 722 q 700 645 624 722 q 776 424 776 568 l 776 0 l 749 0 l 749 424 q 681 626 749 556 q 490 696 614 696 q 269 612 350 696 q 188 390 188 528 l 188 0 l 160 0 l 160 1031 l 188 1031 l 188 526 q 299 670 221 618 q 489 722 376 722 m 465 -244 q 440 -234 450 -244 q 429 -208 429 -224 q 440 -183 429 -194 q 465 -172 450 -172 q 490 -183 479 -172 q 501 -208 501 -194 q 490 -234 501 -224 q 465 -244 479 -244 z "},"i":{"ha":347,"x_min":138,"x_max":210,"o":"m 160 718 l 188 718 l 188 0 l 160 0 l 160 718 m 174 917 q 148 928 158 917 q 138 953 138 939 q 148 978 138 968 q 174 989 158 989 q 199 978 188 989 q 210 953 210 968 q 199 928 210 939 q 174 917 188 917 z "},"ı":{"ha":347,"x_min":160,"x_max":188,"o":"m 160 718 l 188 718 l 188 0 l 160 0 l 160 718 z "},"í":{"ha":347,"x_min":111,"x_max":361,"o":"m 160 718 l 188 718 l 188 0 l 160 0 l 160 718 m 306 996 l 361 996 l 153 843 l 111 843 l 306 996 z "},"ĭ":{"ha":347,"x_min":25,"x_max":322,"o":"m 160 718 l 188 718 l 188 0 l 160 0 l 160 718 m 174 839 q 67 881 108 839 q 25 996 25 924 l 51 996 q 85 901 51 936 q 174 865 119 865 q 262 901 228 865 q 296 996 296 936 l 322 996 q 281 881 322 924 q 174 839 239 839 z "},"î":{"ha":347,"x_min":17,"x_max":331,"o":"m 160 718 l 188 718 l 188 0 l 160 0 l 160 718 m 293 843 l 174 974 l 54 843 l 17 843 l 153 996 l 194 996 l 331 843 l 293 843 z "},"ȉ":{"ha":347,"x_min":-106,"x_max":289,"o":"m 160 718 l 188 718 l 188 0 l 160 0 l 160 718 m -106 996 l -58 996 l 96 843 l 58 843 l -106 996 m 88 996 l 135 996 l 289 843 l 251 843 l 88 996 z "},"ï":{"ha":347,"x_min":61,"x_max":286,"o":"m 160 718 l 188 718 l 188 0 l 160 0 l 160 718 m 96 890 q 72 901 82 890 q 61 926 61 911 q 72 952 61 942 q 96 963 82 963 q 120 952 110 963 q 131 926 131 942 q 120 901 131 911 q 96 890 110 890 m 251 890 q 227 901 238 890 q 217 926 217 911 q 227 952 217 942 q 251 963 238 963 q 276 952 265 963 q 286 926 286 942 q 276 901 286 911 q 251 890 265 890 z "},"ḯ":{"ha":347,"x_min":24,"x_max":343,"o":"m 160 718 l 188 718 l 188 0 l 160 0 l 160 718 m 60 890 q 34 901 44 890 q 24 926 24 913 q 34 952 24 942 q 60 963 44 963 q 85 952 74 963 q 96 926 96 942 q 85 901 96 913 q 60 890 74 890 m 288 890 q 262 901 272 890 q 251 926 251 913 q 262 952 251 942 q 288 963 272 963 q 313 952 301 963 q 324 926 324 942 q 313 901 324 913 q 288 890 301 890 m 288 1139 l 343 1139 l 153 1000 l 111 1000 l 288 1139 z "},"ị":{"ha":347,"x_min":138,"x_max":210,"o":"m 160 718 l 188 718 l 188 0 l 160 0 l 160 718 m 174 917 q 148 928 158 917 q 138 953 138 939 q 148 978 138 968 q 174 989 158 989 q 199 978 188 989 q 210 953 210 968 q 199 928 210 939 q 174 917 188 917 m 174 -244 q 148 -234 158 -244 q 138 -208 138 -224 q 148 -183 138 -194 q 174 -172 158 -172 q 199 -183 188 -172 q 210 -208 210 -194 q 199 -234 210 -224 q 174 -244 188 -244 z "},"ì":{"ha":347,"x_min":-14,"x_max":236,"o":"m 160 718 l 188 718 l 188 0 l 160 0 l 160 718 m -14 996 l 42 996 l 236 843 l 194 843 l -14 996 z "},"ỉ":{"ha":347,"x_min":72,"x_max":278,"o":"m 160 718 l 188 718 l 188 0 l 160 0 l 160 718 m 163 860 q 250 967 250 899 q 227 1020 250 999 q 169 1042 204 1042 q 83 1015 124 1042 l 72 1039 q 117 1060 90 1053 q 168 1068 143 1068 q 248 1041 218 1068 q 278 968 278 1014 q 253 894 278 926 q 176 838 228 863 l 163 860 z "},"ȋ":{"ha":347,"x_min":25,"x_max":322,"o":"m 160 718 l 188 718 l 188 0 l 160 0 l 160 718 m 25 843 q 67 958 25 915 q 174 1000 108 1000 q 281 958 239 1000 q 322 843 322 915 l 296 843 q 262 938 296 903 q 174 974 228 974 q 85 938 119 974 q 51 843 51 903 l 25 843 z "},"ĳ":{"ha":701,"x_min":138,"x_max":564,"o":"m 160 718 l 188 718 l 188 0 l 160 0 l 160 718 m 174 917 q 148 928 158 917 q 138 953 138 939 q 148 978 138 968 q 174 989 158 989 q 199 978 188 989 q 210 953 210 968 q 199 928 210 939 q 174 917 188 917 m 372 -274 q 290 -260 329 -274 q 228 -222 251 -247 l 247 -203 q 371 -247 294 -247 q 477 -207 440 -247 q 514 -90 514 -167 l 514 718 l 542 718 l 542 -97 q 497 -226 542 -178 q 372 -274 453 -274 m 528 917 q 502 928 513 917 q 492 953 492 939 q 502 978 492 968 q 528 989 513 989 q 553 978 542 989 q 564 953 564 968 q 553 928 564 939 q 528 917 542 917 z "},"ī":{"ha":347,"x_min":19,"x_max":328,"o":"m 160 718 l 188 718 l 188 0 l 160 0 l 160 718 m 19 933 l 328 933 l 328 906 l 19 906 l 19 933 z "},"į":{"ha":347,"x_min":83,"x_max":247,"o":"m 160 718 l 188 718 l 188 0 l 160 0 l 160 718 m 174 917 q 148 928 158 917 q 138 953 138 939 q 148 978 138 968 q 174 989 158 989 q 199 978 188 989 q 210 953 210 968 q 199 928 210 939 q 174 917 188 917 m 176 -296 q 109 -266 135 -296 q 83 -187 83 -236 q 176 24 83 -72 l 188 0 q 125 -97 139 -54 q 111 -186 111 -140 q 130 -249 111 -226 q 176 -271 149 -271 q 232 -243 208 -271 l 247 -262 q 176 -296 221 -296 z "},"ĩ":{"ha":347,"x_min":19,"x_max":328,"o":"m 160 718 l 188 718 l 188 0 l 160 0 l 160 718 m 246 860 q 201 874 219 860 q 160 914 182 888 q 130 945 143 935 q 101 956 117 956 q 61 931 76 956 q 46 863 46 906 l 19 863 q 41 950 19 918 q 101 982 63 982 q 147 968 128 982 q 188 928 165 954 q 217 897 204 907 q 246 886 231 886 q 286 911 271 886 q 301 976 301 936 l 328 976 q 306 892 328 924 q 246 860 285 860 z "},"j":{"ha":354,"x_min":-119,"x_max":217,"o":"m 25 -274 q -57 -260 -18 -274 q -119 -222 -96 -247 l -100 -203 q 24 -247 -53 -247 q 130 -207 93 -247 q 167 -90 167 -167 l 167 718 l 194 718 l 194 -97 q 150 -226 194 -178 q 25 -274 106 -274 m 181 917 q 155 928 165 917 q 144 953 144 939 q 155 978 144 968 q 181 989 165 989 q 206 978 194 989 q 217 953 217 968 q 206 928 217 939 q 181 917 194 917 z "},"ȷ":{"ha":354,"x_min":-119,"x_max":194,"o":"m 25 -274 q -57 -260 -18 -274 q -119 -222 -96 -247 l -100 -203 q 24 -247 -53 -247 q 130 -207 93 -247 q 167 -90 167 -167 l 167 718 l 194 718 l 194 -97 q 150 -226 194 -178 q 25 -274 106 -274 z "},"ĵ":{"ha":354,"x_min":-119,"x_max":338,"o":"m 25 -274 q -57 -260 -18 -274 q -119 -222 -96 -247 l -100 -203 q 24 -247 -53 -247 q 130 -207 93 -247 q 167 -90 167 -167 l 167 718 l 194 718 l 194 -97 q 150 -226 194 -178 q 25 -274 106 -274 m 300 843 l 181 974 l 61 843 l 24 843 l 160 996 l 201 996 l 338 843 l 300 843 z "},"k":{"ha":792,"x_min":160,"x_max":767,"o":"m 400 415 l 188 222 l 188 0 l 160 0 l 160 1031 l 188 1031 l 188 256 l 694 718 l 735 718 l 422 432 l 767 0 l 731 0 l 400 415 z "},"ǩ":{"ha":792,"x_min":-18,"x_max":767,"o":"m 400 415 l 188 222 l 188 0 l 160 0 l 160 1031 l 188 1031 l 188 256 l 694 718 l 735 718 l 422 432 l 767 0 l 731 0 l 400 415 m 365 1308 l 196 1156 l 151 1156 l -18 1308 l 19 1308 l 174 1179 l 328 1308 l 365 1308 z "},"ķ":{"ha":792,"x_min":160,"x_max":767,"o":"m 400 415 l 188 222 l 188 0 l 160 0 l 160 1031 l 188 1031 l 188 256 l 694 718 l 735 718 l 422 432 l 767 0 l 731 0 l 400 415 m 426 -172 q 452 -183 442 -172 q 463 -208 463 -194 q 454 -253 463 -222 l 422 -360 l 397 -360 l 422 -244 q 399 -232 408 -242 q 390 -208 390 -222 q 401 -183 390 -193 q 426 -172 411 -172 z "},"ĸ":{"ha":774,"x_min":160,"x_max":767,"o":"m 400 415 l 188 222 l 188 0 l 160 0 l 160 718 l 188 718 l 188 256 l 694 718 l 735 718 l 422 432 l 767 0 l 731 0 l 400 415 z "},"l":{"ha":347,"x_min":160,"x_max":188,"o":"m 160 1031 l 188 1031 l 188 0 l 160 0 l 160 1031 z "},"ĺ":{"ha":347,"x_min":111,"x_max":361,"o":"m 160 1031 l 188 1031 l 188 0 l 160 0 l 160 1031 m 306 1308 l 361 1308 l 153 1156 l 111 1156 l 306 1308 z "},"ľ":{"ha":347,"x_min":160,"x_max":354,"o":"m 160 1031 l 188 1031 l 188 0 l 160 0 l 160 1031 m 326 1058 l 354 1058 l 351 808 l 326 808 l 326 1058 z "},"ļ":{"ha":347,"x_min":138,"x_max":210,"o":"m 160 1031 l 188 1031 l 188 0 l 160 0 l 160 1031 m 174 -172 q 199 -183 189 -172 q 210 -208 210 -194 q 201 -253 210 -222 l 169 -360 l 144 -360 l 169 -244 q 147 -232 156 -242 q 138 -208 138 -222 q 148 -183 138 -193 q 174 -172 158 -172 z "},"ŀ":{"ha":347,"x_min":160,"x_max":383,"o":"m 160 1031 l 188 1031 l 188 0 l 160 0 l 160 1031 m 347 449 q 322 460 333 449 q 311 485 311 471 q 322 510 311 500 q 347 521 333 521 q 373 510 363 521 q 383 485 383 500 q 373 460 383 471 q 347 449 363 449 z "},"ḷ":{"ha":347,"x_min":138,"x_max":210,"o":"m 160 1031 l 188 1031 l 188 0 l 160 0 l 160 1031 m 174 -244 q 148 -234 158 -244 q 138 -208 138 -224 q 148 -183 138 -194 q 174 -172 158 -172 q 199 -183 188 -172 q 210 -208 210 -194 q 199 -234 210 -224 q 174 -244 188 -244 z "},"ǉ":{"ha":701,"x_min":160,"x_max":564,"o":"m 160 1031 l 188 1031 l 188 0 l 160 0 l 160 1031 m 372 -274 q 290 -260 329 -274 q 228 -222 251 -247 l 247 -203 q 371 -247 294 -247 q 477 -207 440 -247 q 514 -90 514 -167 l 514 718 l 542 718 l 542 -97 q 497 -226 542 -178 q 372 -274 453 -274 m 528 917 q 502 928 513 917 q 492 953 492 939 q 502 978 492 968 q 528 989 513 989 q 553 978 542 989 q 564 953 564 968 q 553 928 564 939 q 528 917 542 917 z "},"ḻ":{"ha":347,"x_min":-15,"x_max":363,"o":"m 160 1031 l 188 1031 l 188 0 l 160 0 l 160 1031 m -15 -194 l 363 -194 l 363 -222 l -15 -222 l -15 -194 z "},"ł":{"ha":347,"x_min":32,"x_max":315,"o":"m 160 1031 l 188 1031 l 188 0 l 160 0 l 160 1031 m 32 397 l 300 594 l 315 575 l 47 378 l 32 397 z "},"m":{"ha":1483,"x_min":160,"x_max":1332,"o":"m 1053 722 q 1258 645 1183 722 q 1332 424 1332 568 l 1332 0 l 1304 0 l 1304 424 q 1239 626 1304 556 q 1054 696 1174 696 q 839 612 918 696 q 760 390 760 528 l 760 0 l 732 0 l 732 424 q 667 626 732 556 q 482 696 601 696 q 267 612 346 696 q 188 390 188 528 l 188 0 l 160 0 l 160 718 l 188 718 l 188 528 q 296 671 219 619 q 481 722 372 722 q 661 667 590 722 q 753 508 732 613 q 859 665 781 607 q 1053 722 938 722 z "},"ṃ":{"ha":1483,"x_min":160,"x_max":1332,"o":"m 1053 722 q 1258 645 1183 722 q 1332 424 1332 568 l 1332 0 l 1304 0 l 1304 424 q 1239 626 1304 556 q 1054 696 1174 696 q 839 612 918 696 q 760 390 760 528 l 760 0 l 732 0 l 732 424 q 667 626 732 556 q 482 696 601 696 q 267 612 346 696 q 188 390 188 528 l 188 0 l 160 0 l 160 718 l 188 718 l 188 528 q 296 671 219 619 q 481 722 372 722 q 661 667 590 722 q 753 508 732 613 q 859 665 781 607 q 1053 722 938 722 m 746 -244 q 720 -234 731 -244 q 710 -208 710 -224 q 720 -183 710 -194 q 746 -172 731 -172 q 771 -183 760 -172 q 782 -208 782 -194 q 771 -234 782 -224 q 746 -244 760 -244 z "},"n":{"ha":928,"x_min":160,"x_max":776,"o":"m 489 722 q 700 645 624 722 q 776 424 776 568 l 776 0 l 749 0 l 749 424 q 681 626 749 556 q 490 696 614 696 q 269 612 350 696 q 188 390 188 528 l 188 0 l 160 0 l 160 718 l 188 718 l 188 526 q 299 670 221 618 q 489 722 376 722 z "},"ń":{"ha":928,"x_min":160,"x_max":776,"o":"m 489 722 q 700 645 624 722 q 776 424 776 568 l 776 0 l 749 0 l 749 424 q 681 626 749 556 q 490 696 614 696 q 269 612 350 696 q 188 390 188 528 l 188 0 l 160 0 l 160 718 l 188 718 l 188 526 q 299 670 221 618 q 489 722 376 722 m 597 996 l 653 996 l 444 843 l 403 843 l 597 996 z "},"ŉ":{"ha":982,"x_min":93,"x_max":831,"o":"m 100 972 l 128 972 l 118 613 l 93 613 l 100 972 m 543 722 q 754 645 678 722 q 831 424 831 568 l 831 0 l 803 0 l 803 424 q 735 626 803 556 q 544 696 668 696 q 323 612 404 696 q 242 390 242 528 l 242 0 l 214 0 l 214 718 l 242 718 l 242 526 q 353 670 275 618 q 543 722 431 722 z "},"ň":{"ha":928,"x_min":160,"x_max":776,"o":"m 489 722 q 700 645 624 722 q 776 424 776 568 l 776 0 l 749 0 l 749 424 q 681 626 749 556 q 490 696 614 696 q 269 612 350 696 q 188 390 188 528 l 188 0 l 160 0 l 160 718 l 188 718 l 188 526 q 299 670 221 618 q 489 722 376 722 m 657 996 l 488 843 l 443 843 l 274 996 l 311 996 l 465 867 l 619 996 l 657 996 z "},"ņ":{"ha":928,"x_min":160,"x_max":776,"o":"m 489 722 q 700 645 624 722 q 776 424 776 568 l 776 0 l 749 0 l 749 424 q 681 626 749 556 q 490 696 614 696 q 269 612 350 696 q 188 390 188 528 l 188 0 l 160 0 l 160 718 l 188 718 l 188 526 q 299 670 221 618 q 489 722 376 722 m 465 -172 q 491 -183 481 -172 q 501 -208 501 -194 q 493 -253 501 -222 l 461 -360 l 436 -360 l 461 -244 q 438 -232 447 -242 q 429 -208 429 -222 q 440 -183 429 -193 q 465 -172 450 -172 z "},"ṅ":{"ha":928,"x_min":160,"x_max":776,"o":"m 489 722 q 700 645 624 722 q 776 424 776 568 l 776 0 l 749 0 l 749 424 q 681 626 749 556 q 490 696 614 696 q 269 612 350 696 q 188 390 188 528 l 188 0 l 160 0 l 160 718 l 188 718 l 188 526 q 299 670 221 618 q 489 722 376 722 m 465 890 q 440 901 450 890 q 429 926 429 913 q 440 952 429 942 q 465 963 450 963 q 490 952 479 963 q 501 926 501 942 q 490 901 501 913 q 465 890 479 890 z "},"ṇ":{"ha":928,"x_min":160,"x_max":776,"o":"m 489 722 q 700 645 624 722 q 776 424 776 568 l 776 0 l 749 0 l 749 424 q 681 626 749 556 q 490 696 614 696 q 269 612 350 696 q 188 390 188 528 l 188 0 l 160 0 l 160 718 l 188 718 l 188 526 q 299 670 221 618 q 489 722 376 722 m 465 -244 q 440 -234 450 -244 q 429 -208 429 -224 q 440 -183 429 -194 q 465 -172 450 -172 q 490 -183 479 -172 q 501 -208 501 -194 q 490 -234 501 -224 q 465 -244 479 -244 z "},"ŋ":{"ha":928,"x_min":160,"x_max":776,"o":"m 489 722 q 700 645 624 722 q 776 424 776 568 l 776 -97 q 732 -226 776 -178 q 607 -274 688 -274 q 525 -260 564 -274 q 463 -222 486 -247 l 482 -203 q 606 -247 529 -247 q 712 -207 675 -247 q 749 -90 749 -167 l 749 424 q 681 626 749 556 q 490 696 614 696 q 269 612 350 696 q 188 390 188 528 l 188 0 l 160 0 l 160 718 l 188 718 l 188 526 q 299 670 221 618 q 489 722 376 722 z "},"ǌ":{"ha":1282,"x_min":160,"x_max":1144,"o":"m 489 722 q 700 645 624 722 q 776 424 776 568 l 776 0 l 749 0 l 749 424 q 681 626 749 556 q 490 696 614 696 q 269 612 350 696 q 188 390 188 528 l 188 0 l 160 0 l 160 718 l 188 718 l 188 526 q 299 670 221 618 q 489 722 376 722 m 953 -274 q 871 -260 910 -274 q 808 -222 832 -247 l 828 -203 q 951 -247 875 -247 q 1058 -207 1021 -247 q 1094 -90 1094 -167 l 1094 718 l 1122 718 l 1122 -97 q 1078 -226 1122 -178 q 953 -274 1033 -274 m 1108 917 q 1083 928 1093 917 q 1072 953 1072 939 q 1083 978 1072 968 q 1108 989 1093 989 q 1133 978 1122 989 q 1144 953 1144 968 q 1133 928 1144 939 q 1108 917 1122 917 z "},"ṉ":{"ha":928,"x_min":160,"x_max":776,"o":"m 489 722 q 700 645 624 722 q 776 424 776 568 l 776 0 l 749 0 l 749 424 q 681 626 749 556 q 490 696 614 696 q 269 612 350 696 q 188 390 188 528 l 188 0 l 160 0 l 160 718 l 188 718 l 188 526 q 299 670 221 618 q 489 722 376 722 m 276 -194 l 654 -194 l 654 -222 l 276 -222 l 276 -194 z "},"ñ":{"ha":928,"x_min":160,"x_max":776,"o":"m 489 722 q 700 645 624 722 q 776 424 776 568 l 776 0 l 749 0 l 749 424 q 681 626 749 556 q 490 696 614 696 q 269 612 350 696 q 188 390 188 528 l 188 0 l 160 0 l 160 718 l 188 718 l 188 526 q 299 670 221 618 q 489 722 376 722 m 553 860 q 503 873 525 860 q 454 913 482 886 q 415 944 432 933 q 378 956 397 956 q 325 931 344 956 q 303 863 306 906 l 276 863 q 306 949 279 917 q 378 982 333 982 q 427 969 406 982 q 476 929 449 956 q 516 897 499 908 q 553 886 533 886 q 606 910 586 886 q 628 976 625 935 l 654 976 q 624 892 651 924 q 553 860 597 860 z "},"o":{"ha":847,"x_min":75,"x_max":772,"o":"m 424 -4 q 245 42 325 -4 q 120 172 165 89 q 75 360 75 256 q 120 547 75 464 q 245 676 165 629 q 424 722 325 722 q 602 676 522 722 q 727 547 682 629 q 772 360 772 464 q 727 172 772 256 q 602 42 682 89 q 424 -4 522 -4 m 424 22 q 588 65 514 22 q 703 185 661 108 q 744 360 744 263 q 703 534 744 457 q 588 653 661 611 q 424 696 514 696 q 260 653 333 696 q 144 534 186 611 q 103 360 103 457 q 144 185 103 263 q 260 65 186 108 q 424 22 333 22 z "},"ó":{"ha":847,"x_min":75,"x_max":772,"o":"m 424 -4 q 245 42 325 -4 q 120 172 165 89 q 75 360 75 256 q 120 547 75 464 q 245 676 165 629 q 424 722 325 722 q 602 676 522 722 q 727 547 682 629 q 772 360 772 464 q 727 172 772 256 q 602 42 682 89 q 424 -4 522 -4 m 424 22 q 588 65 514 22 q 703 185 661 108 q 744 360 744 263 q 703 534 744 457 q 588 653 661 611 q 424 696 514 696 q 260 653 333 696 q 144 534 186 611 q 103 360 103 457 q 144 185 103 263 q 260 65 186 108 q 424 22 333 22 m 556 996 l 611 996 l 403 843 l 361 843 l 556 996 z "},"ŏ":{"ha":847,"x_min":75,"x_max":772,"o":"m 424 -4 q 245 42 325 -4 q 120 172 165 89 q 75 360 75 256 q 120 547 75 464 q 245 676 165 629 q 424 722 325 722 q 602 676 522 722 q 727 547 682 629 q 772 360 772 464 q 727 172 772 256 q 602 42 682 89 q 424 -4 522 -4 m 424 22 q 588 65 514 22 q 703 185 661 108 q 744 360 744 263 q 703 534 744 457 q 588 653 661 611 q 424 696 514 696 q 260 653 333 696 q 144 534 186 611 q 103 360 103 457 q 144 185 103 263 q 260 65 186 108 q 424 22 333 22 m 424 839 q 294 882 347 839 q 240 996 242 925 l 267 996 q 313 901 268 936 q 424 865 357 865 q 535 901 490 865 q 581 996 579 936 l 607 996 q 553 882 606 925 q 424 839 500 839 z "},"ô":{"ha":847,"x_min":75,"x_max":772,"o":"m 424 -4 q 245 42 325 -4 q 120 172 165 89 q 75 360 75 256 q 120 547 75 464 q 245 676 165 629 q 424 722 325 722 q 602 676 522 722 q 727 547 682 629 q 772 360 772 464 q 727 172 772 256 q 602 42 682 89 q 424 -4 522 -4 m 424 22 q 588 65 514 22 q 703 185 661 108 q 744 360 744 263 q 703 534 744 457 q 588 653 661 611 q 424 696 514 696 q 260 653 333 696 q 144 534 186 611 q 103 360 103 457 q 144 185 103 263 q 260 65 186 108 q 424 22 333 22 m 578 843 l 424 972 l 269 843 l 232 843 l 401 996 l 446 996 l 615 843 l 578 843 z "},"ố":{"ha":847,"x_min":75,"x_max":772,"o":"m 424 -4 q 245 42 325 -4 q 120 172 165 89 q 75 360 75 256 q 120 547 75 464 q 245 676 165 629 q 424 722 325 722 q 602 676 522 722 q 727 547 682 629 q 772 360 772 464 q 727 172 772 256 q 602 42 682 89 q 424 -4 522 -4 m 424 22 q 588 65 514 22 q 703 185 661 108 q 744 360 744 263 q 703 534 744 457 q 588 653 661 611 q 424 696 514 696 q 260 653 333 696 q 144 534 186 611 q 103 360 103 457 q 144 185 103 263 q 260 65 186 108 q 424 22 333 22 m 574 843 l 424 932 l 274 843 l 232 843 l 403 954 l 444 954 l 615 843 l 574 843 m 704 1086 l 760 1086 l 569 947 l 528 947 l 704 1086 z "},"ộ":{"ha":847,"x_min":75,"x_max":772,"o":"m 424 -4 q 245 42 325 -4 q 120 172 165 89 q 75 360 75 256 q 120 547 75 464 q 245 676 165 629 q 424 722 325 722 q 602 676 522 722 q 727 547 682 629 q 772 360 772 464 q 727 172 772 256 q 602 42 682 89 q 424 -4 522 -4 m 424 22 q 588 65 514 22 q 703 185 661 108 q 744 360 744 263 q 703 534 744 457 q 588 653 661 611 q 424 696 514 696 q 260 653 333 696 q 144 534 186 611 q 103 360 103 457 q 144 185 103 263 q 260 65 186 108 q 424 22 333 22 m 424 -244 q 398 -234 408 -244 q 388 -208 388 -224 q 398 -183 388 -194 q 424 -172 408 -172 q 449 -183 438 -172 q 460 -208 460 -194 q 449 -234 460 -224 q 424 -244 438 -244 m 578 843 l 424 972 l 269 843 l 232 843 l 401 996 l 446 996 l 615 843 l 578 843 z "},"ồ":{"ha":847,"x_min":75,"x_max":772,"o":"m 424 -4 q 245 42 325 -4 q 120 172 165 89 q 75 360 75 256 q 120 547 75 464 q 245 676 165 629 q 424 722 325 722 q 602 676 522 722 q 727 547 682 629 q 772 360 772 464 q 727 172 772 256 q 602 42 682 89 q 424 -4 522 -4 m 424 22 q 588 65 514 22 q 703 185 661 108 q 744 360 744 263 q 703 534 744 457 q 588 653 661 611 q 424 696 514 696 q 260 653 333 696 q 144 534 186 611 q 103 360 103 457 q 144 185 103 263 q 260 65 186 108 q 424 22 333 22 m 574 843 l 424 932 l 274 843 l 232 843 l 403 954 l 444 954 l 615 843 l 574 843 m 421 1086 l 476 1086 l 653 947 l 611 947 l 421 1086 z "},"ổ":{"ha":847,"x_min":75,"x_max":772,"o":"m 424 -4 q 245 42 325 -4 q 120 172 165 89 q 75 360 75 256 q 120 547 75 464 q 245 676 165 629 q 424 722 325 722 q 602 676 522 722 q 727 547 682 629 q 772 360 772 464 q 727 172 772 256 q 602 42 682 89 q 424 -4 522 -4 m 424 22 q 588 65 514 22 q 703 185 661 108 q 744 360 744 263 q 703 534 744 457 q 588 653 661 611 q 424 696 514 696 q 260 653 333 696 q 144 534 186 611 q 103 360 103 457 q 144 185 103 263 q 260 65 186 108 q 424 22 333 22 m 574 843 l 424 932 l 274 843 l 232 843 l 403 954 l 444 954 l 615 843 l 574 843 m 553 949 q 599 983 582 963 q 615 1026 615 1003 q 599 1063 615 1049 q 557 1076 583 1076 q 497 1058 524 1076 l 486 1081 q 558 1103 517 1103 q 619 1082 597 1103 q 642 1026 642 1061 q 567 928 642 961 l 553 949 z "},"ỗ":{"ha":847,"x_min":75,"x_max":772,"o":"m 424 -4 q 245 42 325 -4 q 120 172 165 89 q 75 360 75 256 q 120 547 75 464 q 245 676 165 629 q 424 722 325 722 q 602 676 522 722 q 727 547 682 629 q 772 360 772 464 q 727 172 772 256 q 602 42 682 89 q 424 -4 522 -4 m 424 22 q 588 65 514 22 q 703 185 661 108 q 744 360 744 263 q 703 534 744 457 q 588 653 661 611 q 424 696 514 696 q 260 653 333 696 q 144 534 186 611 q 103 360 103 457 q 144 185 103 263 q 260 65 186 108 q 424 22 333 22 m 574 843 l 424 932 l 274 843 l 232 843 l 403 954 l 444 954 l 615 843 l 574 843 m 508 1000 q 463 1010 482 1000 q 414 1040 443 1019 q 374 1066 392 1057 q 339 1075 357 1075 q 285 1056 306 1075 q 264 1003 265 1038 l 238 1003 q 267 1074 239 1047 q 339 1101 294 1101 q 384 1092 364 1101 q 433 1061 404 1082 q 473 1035 456 1044 q 508 1026 490 1026 q 562 1044 542 1026 q 583 1096 582 1063 l 610 1096 q 581 1026 608 1053 q 508 1000 553 1000 z "},"ȍ":{"ha":847,"x_min":75,"x_max":772,"o":"m 424 -4 q 245 42 325 -4 q 120 172 165 89 q 75 360 75 256 q 120 547 75 464 q 245 676 165 629 q 424 722 325 722 q 602 676 522 722 q 727 547 682 629 q 772 360 772 464 q 727 172 772 256 q 602 42 682 89 q 424 -4 522 -4 m 424 22 q 588 65 514 22 q 703 185 661 108 q 744 360 744 263 q 703 534 744 457 q 588 653 661 611 q 424 696 514 696 q 260 653 333 696 q 144 534 186 611 q 103 360 103 457 q 144 185 103 263 q 260 65 186 108 q 424 22 333 22 m 144 996 l 192 996 l 346 843 l 308 843 l 144 996 m 338 996 l 385 996 l 539 843 l 501 843 l 338 996 z "},"ö":{"ha":847,"x_min":75,"x_max":772,"o":"m 424 -4 q 245 42 325 -4 q 120 172 165 89 q 75 360 75 256 q 120 547 75 464 q 245 676 165 629 q 424 722 325 722 q 602 676 522 722 q 727 547 682 629 q 772 360 772 464 q 727 172 772 256 q 602 42 682 89 q 424 -4 522 -4 m 424 22 q 588 65 514 22 q 703 185 661 108 q 744 360 744 263 q 703 534 744 457 q 588 653 661 611 q 424 696 514 696 q 260 653 333 696 q 144 534 186 611 q 103 360 103 457 q 144 185 103 263 q 260 65 186 108 q 424 22 333 22 m 310 890 q 284 901 294 890 q 274 926 274 913 q 284 952 274 942 q 310 963 294 963 q 335 952 324 963 q 346 926 346 942 q 335 901 346 913 q 310 890 324 890 m 538 890 q 512 901 522 890 q 501 926 501 913 q 512 952 501 942 q 538 963 522 963 q 563 952 551 963 q 574 926 574 942 q 563 901 574 913 q 538 890 551 890 z "},"ȫ":{"ha":847,"x_min":75,"x_max":772,"o":"m 424 -4 q 245 42 325 -4 q 120 172 165 89 q 75 360 75 256 q 120 547 75 464 q 245 676 165 629 q 424 722 325 722 q 602 676 522 722 q 727 547 682 629 q 772 360 772 464 q 727 172 772 256 q 602 42 682 89 q 424 -4 522 -4 m 424 22 q 588 65 514 22 q 703 185 661 108 q 744 360 744 263 q 703 534 744 457 q 588 653 661 611 q 424 696 514 696 q 260 653 333 696 q 144 534 186 611 q 103 360 103 457 q 144 185 103 263 q 260 65 186 108 q 424 22 333 22 m 310 890 q 284 901 294 890 q 274 926 274 913 q 284 952 274 942 q 310 963 294 963 q 335 952 324 963 q 346 926 346 942 q 335 901 346 913 q 310 890 324 890 m 538 890 q 512 901 522 890 q 501 926 501 913 q 512 952 501 942 q 538 963 522 963 q 563 952 551 963 q 574 926 574 942 q 563 901 574 913 q 538 890 551 890 m 235 1069 l 613 1069 l 613 1042 l 235 1042 l 235 1069 z "},"ȱ":{"ha":847,"x_min":75,"x_max":772,"o":"m 424 -4 q 245 42 325 -4 q 120 172 165 89 q 75 360 75 256 q 120 547 75 464 q 245 676 165 629 q 424 722 325 722 q 602 676 522 722 q 727 547 682 629 q 772 360 772 464 q 727 172 772 256 q 602 42 682 89 q 424 -4 522 -4 m 424 22 q 588 65 514 22 q 703 185 661 108 q 744 360 744 263 q 703 534 744 457 q 588 653 661 611 q 424 696 514 696 q 260 653 333 696 q 144 534 186 611 q 103 360 103 457 q 144 185 103 263 q 260 65 186 108 q 424 22 333 22 m 424 890 q 398 901 408 890 q 388 926 388 913 q 398 952 388 942 q 424 963 408 963 q 449 952 438 963 q 460 926 460 942 q 449 901 460 913 q 424 890 438 890 m 235 1069 l 613 1069 l 613 1042 l 235 1042 l 235 1069 z "},"ọ":{"ha":847,"x_min":75,"x_max":772,"o":"m 424 -4 q 245 42 325 -4 q 120 172 165 89 q 75 360 75 256 q 120 547 75 464 q 245 676 165 629 q 424 722 325 722 q 602 676 522 722 q 727 547 682 629 q 772 360 772 464 q 727 172 772 256 q 602 42 682 89 q 424 -4 522 -4 m 424 22 q 588 65 514 22 q 703 185 661 108 q 744 360 744 263 q 703 534 744 457 q 588 653 661 611 q 424 696 514 696 q 260 653 333 696 q 144 534 186 611 q 103 360 103 457 q 144 185 103 263 q 260 65 186 108 q 424 22 333 22 m 424 -244 q 398 -234 408 -244 q 388 -208 388 -224 q 398 -183 388 -194 q 424 -172 408 -172 q 449 -183 438 -172 q 460 -208 460 -194 q 449 -234 460 -224 q 424 -244 438 -244 z "},"ò":{"ha":847,"x_min":75,"x_max":772,"o":"m 424 -4 q 245 42 325 -4 q 120 172 165 89 q 75 360 75 256 q 120 547 75 464 q 245 676 165 629 q 424 722 325 722 q 602 676 522 722 q 727 547 682 629 q 772 360 772 464 q 727 172 772 256 q 602 42 682 89 q 424 -4 522 -4 m 424 22 q 588 65 514 22 q 703 185 661 108 q 744 360 744 263 q 703 534 744 457 q 588 653 661 611 q 424 696 514 696 q 260 653 333 696 q 144 534 186 611 q 103 360 103 457 q 144 185 103 263 q 260 65 186 108 q 424 22 333 22 m 236 996 l 292 996 l 486 843 l 444 843 l 236 996 z "},"ỏ":{"ha":847,"x_min":75,"x_max":772,"o":"m 424 -4 q 245 42 325 -4 q 120 172 165 89 q 75 360 75 256 q 120 547 75 464 q 245 676 165 629 q 424 722 325 722 q 602 676 522 722 q 727 547 682 629 q 772 360 772 464 q 727 172 772 256 q 602 42 682 89 q 424 -4 522 -4 m 424 22 q 588 65 514 22 q 703 185 661 108 q 744 360 744 263 q 703 534 744 457 q 588 653 661 611 q 424 696 514 696 q 260 653 333 696 q 144 534 186 611 q 103 360 103 457 q 144 185 103 263 q 260 65 186 108 q 424 22 333 22 m 413 860 q 500 967 500 899 q 477 1020 500 999 q 419 1042 454 1042 q 333 1015 374 1042 l 322 1039 q 367 1060 340 1053 q 418 1068 393 1068 q 498 1041 468 1068 q 528 968 528 1014 q 503 894 528 926 q 426 838 478 863 l 413 860 z "},"ơ":{"ha":847,"x_min":75,"x_max":772,"o":"m 575 690 q 719 561 667 649 q 772 360 772 474 q 727 172 772 256 q 602 42 682 89 q 424 -4 522 -4 q 245 42 325 -4 q 120 172 165 89 q 75 360 75 256 q 120 547 75 464 q 245 676 165 629 q 424 722 325 722 q 514 719 461 722 q 604 715 553 715 q 698 745 665 715 q 731 817 731 775 q 703 910 731 861 l 728 921 q 750 872 742 900 q 758 818 758 844 q 719 726 758 764 q 606 689 679 689 q 575 690 588 689 m 424 22 q 588 65 514 22 q 703 185 661 108 q 744 360 744 263 q 703 534 744 457 q 588 653 661 611 q 424 696 514 696 q 260 653 333 696 q 144 534 186 611 q 103 360 103 457 q 144 185 103 263 q 260 65 186 108 q 424 22 333 22 z "},"ớ":{"ha":847,"x_min":75,"x_max":772,"o":"m 575 690 q 719 561 667 649 q 772 360 772 474 q 727 172 772 256 q 602 42 682 89 q 424 -4 522 -4 q 245 42 325 -4 q 120 172 165 89 q 75 360 75 256 q 120 547 75 464 q 245 676 165 629 q 424 722 325 722 q 514 719 461 722 q 604 715 553 715 q 698 745 665 715 q 731 817 731 775 q 703 910 731 861 l 728 921 q 750 872 742 900 q 758 818 758 844 q 719 726 758 764 q 606 689 679 689 q 575 690 588 689 m 424 22 q 588 65 514 22 q 703 185 661 108 q 744 360 744 263 q 703 534 744 457 q 588 653 661 611 q 424 696 514 696 q 260 653 333 696 q 144 534 186 611 q 103 360 103 457 q 144 185 103 263 q 260 65 186 108 q 424 22 333 22 m 556 996 l 611 996 l 403 843 l 361 843 l 556 996 z "},"ợ":{"ha":847,"x_min":75,"x_max":772,"o":"m 575 690 q 719 561 667 649 q 772 360 772 474 q 727 172 772 256 q 602 42 682 89 q 424 -4 522 -4 q 245 42 325 -4 q 120 172 165 89 q 75 360 75 256 q 120 547 75 464 q 245 676 165 629 q 424 722 325 722 q 514 719 461 722 q 604 715 553 715 q 698 745 665 715 q 731 817 731 775 q 703 910 731 861 l 728 921 q 750 872 742 900 q 758 818 758 844 q 719 726 758 764 q 606 689 679 689 q 575 690 588 689 m 424 22 q 588 65 514 22 q 703 185 661 108 q 744 360 744 263 q 703 534 744 457 q 588 653 661 611 q 424 696 514 696 q 260 653 333 696 q 144 534 186 611 q 103 360 103 457 q 144 185 103 263 q 260 65 186 108 q 424 22 333 22 m 424 -244 q 398 -234 408 -244 q 388 -208 388 -224 q 398 -183 388 -194 q 424 -172 408 -172 q 449 -183 438 -172 q 460 -208 460 -194 q 449 -234 460 -224 q 424 -244 438 -244 z "},"ờ":{"ha":847,"x_min":75,"x_max":772,"o":"m 575 690 q 719 561 667 649 q 772 360 772 474 q 727 172 772 256 q 602 42 682 89 q 424 -4 522 -4 q 245 42 325 -4 q 120 172 165 89 q 75 360 75 256 q 120 547 75 464 q 245 676 165 629 q 424 722 325 722 q 514 719 461 722 q 604 715 553 715 q 698 745 665 715 q 731 817 731 775 q 703 910 731 861 l 728 921 q 750 872 742 900 q 758 818 758 844 q 719 726 758 764 q 606 689 679 689 q 575 690 588 689 m 424 22 q 588 65 514 22 q 703 185 661 108 q 744 360 744 263 q 703 534 744 457 q 588 653 661 611 q 424 696 514 696 q 260 653 333 696 q 144 534 186 611 q 103 360 103 457 q 144 185 103 263 q 260 65 186 108 q 424 22 333 22 m 236 996 l 292 996 l 486 843 l 444 843 l 236 996 z "},"ở":{"ha":847,"x_min":75,"x_max":772,"o":"m 575 690 q 719 561 667 649 q 772 360 772 474 q 727 172 772 256 q 602 42 682 89 q 424 -4 522 -4 q 245 42 325 -4 q 120 172 165 89 q 75 360 75 256 q 120 547 75 464 q 245 676 165 629 q 424 722 325 722 q 514 719 461 722 q 604 715 553 715 q 698 745 665 715 q 731 817 731 775 q 703 910 731 861 l 728 921 q 750 872 742 900 q 758 818 758 844 q 719 726 758 764 q 606 689 679 689 q 575 690 588 689 m 424 22 q 588 65 514 22 q 703 185 661 108 q 744 360 744 263 q 703 534 744 457 q 588 653 661 611 q 424 696 514 696 q 260 653 333 696 q 144 534 186 611 q 103 360 103 457 q 144 185 103 263 q 260 65 186 108 q 424 22 333 22 m 413 860 q 500 967 500 899 q 477 1020 500 999 q 419 1042 454 1042 q 333 1015 374 1042 l 322 1039 q 367 1060 340 1053 q 418 1068 393 1068 q 498 1041 468 1068 q 528 968 528 1014 q 503 894 528 926 q 426 838 478 863 l 413 860 z "},"ỡ":{"ha":853,"x_min":75,"x_max":772,"o":"m 575 690 q 719 561 667 649 q 772 360 772 474 q 727 172 772 256 q 602 42 682 89 q 424 -4 522 -4 q 245 42 325 -4 q 120 172 165 89 q 75 360 75 256 q 120 547 75 464 q 245 676 165 629 q 424 722 325 722 q 514 719 461 722 q 604 715 553 715 q 698 745 665 715 q 731 817 731 775 q 703 910 731 861 l 728 921 q 750 872 742 900 q 758 818 758 844 q 719 726 758 764 q 606 689 679 689 q 575 690 588 689 m 424 22 q 588 65 514 22 q 703 185 661 108 q 744 360 744 263 q 703 534 744 457 q 588 653 661 611 q 424 696 514 696 q 260 653 333 696 q 144 534 186 611 q 103 360 103 457 q 144 185 103 263 q 260 65 186 108 q 424 22 333 22 m 517 860 q 467 873 489 860 q 418 913 446 886 q 378 944 396 933 q 342 956 361 956 q 289 931 308 956 q 267 863 269 906 l 240 863 q 270 949 243 917 q 342 982 297 982 q 391 969 369 982 q 440 929 413 956 q 480 897 463 908 q 517 886 497 886 q 569 910 550 886 q 592 976 589 935 l 618 976 q 588 892 615 924 q 517 860 561 860 z "},"ő":{"ha":847,"x_min":75,"x_max":772,"o":"m 424 -4 q 245 42 325 -4 q 120 172 165 89 q 75 360 75 256 q 120 547 75 464 q 245 676 165 629 q 424 722 325 722 q 602 676 522 722 q 727 547 682 629 q 772 360 772 464 q 727 172 772 256 q 602 42 682 89 q 424 -4 522 -4 m 424 22 q 588 65 514 22 q 703 185 661 108 q 744 360 744 263 q 703 534 744 457 q 588 653 661 611 q 424 696 514 696 q 260 653 333 696 q 144 534 186 611 q 103 360 103 457 q 144 185 103 263 q 260 65 186 108 q 424 22 333 22 m 463 996 l 510 996 l 346 843 l 308 843 l 463 996 m 656 996 l 703 996 l 539 843 l 501 843 l 656 996 z "},"ȏ":{"ha":847,"x_min":75,"x_max":772,"o":"m 424 -4 q 245 42 325 -4 q 120 172 165 89 q 75 360 75 256 q 120 547 75 464 q 245 676 165 629 q 424 722 325 722 q 602 676 522 722 q 727 547 682 629 q 772 360 772 464 q 727 172 772 256 q 602 42 682 89 q 424 -4 522 -4 m 424 22 q 588 65 514 22 q 703 185 661 108 q 744 360 744 263 q 703 534 744 457 q 588 653 661 611 q 424 696 514 696 q 260 653 333 696 q 144 534 186 611 q 103 360 103 457 q 144 185 103 263 q 260 65 186 108 q 424 22 333 22 m 240 843 q 294 957 242 914 q 424 1000 347 1000 q 553 957 500 1000 q 607 843 606 914 l 581 843 q 535 938 579 903 q 424 974 490 974 q 313 938 357 974 q 267 843 268 903 l 240 843 z "},"ō":{"ha":847,"x_min":75,"x_max":772,"o":"m 424 -4 q 245 42 325 -4 q 120 172 165 89 q 75 360 75 256 q 120 547 75 464 q 245 676 165 629 q 424 722 325 722 q 602 676 522 722 q 727 547 682 629 q 772 360 772 464 q 727 172 772 256 q 602 42 682 89 q 424 -4 522 -4 m 424 22 q 588 65 514 22 q 703 185 661 108 q 744 360 744 263 q 703 534 744 457 q 588 653 661 611 q 424 696 514 696 q 260 653 333 696 q 144 534 186 611 q 103 360 103 457 q 144 185 103 263 q 260 65 186 108 q 424 22 333 22 m 235 933 l 613 933 l 613 906 l 235 906 l 235 933 z "},"ṓ":{"ha":847,"x_min":75,"x_max":772,"o":"m 424 -4 q 245 42 325 -4 q 120 172 165 89 q 75 360 75 256 q 120 547 75 464 q 245 676 165 629 q 424 722 325 722 q 602 676 522 722 q 727 547 682 629 q 772 360 772 464 q 727 172 772 256 q 602 42 682 89 q 424 -4 522 -4 m 424 22 q 588 65 514 22 q 703 185 661 108 q 744 360 744 263 q 703 534 744 457 q 588 653 661 611 q 424 696 514 696 q 260 653 333 696 q 144 534 186 611 q 103 360 103 457 q 144 185 103 263 q 260 65 186 108 q 424 22 333 22 m 235 913 l 613 913 l 613 885 l 235 885 l 235 913 m 538 1139 l 593 1139 l 403 1000 l 361 1000 l 538 1139 z "},"ṑ":{"ha":847,"x_min":75,"x_max":772,"o":"m 424 -4 q 245 42 325 -4 q 120 172 165 89 q 75 360 75 256 q 120 547 75 464 q 245 676 165 629 q 424 722 325 722 q 602 676 522 722 q 727 547 682 629 q 772 360 772 464 q 727 172 772 256 q 602 42 682 89 q 424 -4 522 -4 m 424 22 q 588 65 514 22 q 703 185 661 108 q 744 360 744 263 q 703 534 744 457 q 588 653 661 611 q 424 696 514 696 q 260 653 333 696 q 144 534 186 611 q 103 360 103 457 q 144 185 103 263 q 260 65 186 108 q 424 22 333 22 m 235 913 l 613 913 l 613 885 l 235 885 l 235 913 m 254 1139 l 310 1139 l 486 1000 l 444 1000 l 254 1139 z "},"ǫ":{"ha":847,"x_min":75,"x_max":772,"o":"m 424 722 q 602 676 522 722 q 727 547 682 629 q 772 360 772 464 q 719 158 772 244 q 572 26 667 71 q 406 -82 447 -33 q 365 -181 365 -131 q 393 -247 365 -224 q 465 -269 421 -269 q 551 -237 517 -269 l 567 -258 q 464 -296 524 -296 q 373 -265 408 -296 q 338 -181 338 -233 q 472 -1 338 -78 q 424 -4 454 -4 q 245 42 325 -4 q 120 172 165 89 q 75 360 75 256 q 120 547 75 464 q 245 676 165 629 q 424 722 325 722 m 424 22 q 588 65 514 22 q 703 185 661 108 q 744 360 744 263 q 703 534 744 457 q 588 653 661 611 q 424 696 514 696 q 260 653 333 696 q 144 534 186 611 q 103 360 103 457 q 144 185 103 263 q 260 65 186 108 q 424 22 333 22 z "},"ø":{"ha":847,"x_min":75,"x_max":772,"o":"m 424 -4 q 245 42 325 -4 q 120 172 165 89 q 75 360 75 256 q 120 547 75 464 q 245 676 165 629 q 424 722 325 722 q 602 676 522 722 q 727 547 682 629 q 772 360 772 464 q 727 172 772 256 q 602 42 682 89 q 424 -4 522 -4 m 424 22 q 588 65 514 22 q 703 185 661 108 q 744 360 744 263 q 703 534 744 457 q 588 653 661 611 q 424 696 514 696 q 260 653 333 696 q 144 534 186 611 q 103 360 103 457 q 144 185 103 263 q 260 65 186 108 q 424 22 333 22 m 717 815 l 749 815 l 129 -97 l 97 -97 l 717 815 z "},"ǿ":{"ha":847,"x_min":75,"x_max":772,"o":"m 424 -4 q 245 42 325 -4 q 120 172 165 89 q 75 360 75 256 q 120 547 75 464 q 245 676 165 629 q 424 722 325 722 q 602 676 522 722 q 727 547 682 629 q 772 360 772 464 q 727 172 772 256 q 602 42 682 89 q 424 -4 522 -4 m 424 22 q 588 65 514 22 q 703 185 661 108 q 744 360 744 263 q 703 534 744 457 q 588 653 661 611 q 424 696 514 696 q 260 653 333 696 q 144 534 186 611 q 103 360 103 457 q 144 185 103 263 q 260 65 186 108 q 424 22 333 22 m 717 815 l 749 815 l 129 -97 l 97 -97 l 717 815 m 556 996 l 611 996 l 403 843 l 361 843 l 556 996 z "},"õ":{"ha":847,"x_min":75,"x_max":772,"o":"m 424 -4 q 245 42 325 -4 q 120 172 165 89 q 75 360 75 256 q 120 547 75 464 q 245 676 165 629 q 424 722 325 722 q 602 676 522 722 q 727 547 682 629 q 772 360 772 464 q 727 172 772 256 q 602 42 682 89 q 424 -4 522 -4 m 424 22 q 588 65 514 22 q 703 185 661 108 q 744 360 744 263 q 703 534 744 457 q 588 653 661 611 q 424 696 514 696 q 260 653 333 696 q 144 534 186 611 q 103 360 103 457 q 144 185 103 263 q 260 65 186 108 q 424 22 333 22 m 511 860 q 462 873 483 860 q 413 913 440 886 q 373 944 390 933 q 336 956 356 956 q 283 931 303 956 q 261 863 264 906 l 235 863 q 265 949 238 917 q 336 982 292 982 q 385 969 364 982 q 435 929 407 956 q 474 897 457 908 q 511 886 492 886 q 564 910 544 886 q 586 976 583 935 l 613 976 q 583 892 610 924 q 511 860 556 860 z "},"ṍ":{"ha":847,"x_min":75,"x_max":772,"o":"m 424 -4 q 245 42 325 -4 q 120 172 165 89 q 75 360 75 256 q 120 547 75 464 q 245 676 165 629 q 424 722 325 722 q 602 676 522 722 q 727 547 682 629 q 772 360 772 464 q 727 172 772 256 q 602 42 682 89 q 424 -4 522 -4 m 424 22 q 588 65 514 22 q 703 185 661 108 q 744 360 744 263 q 703 534 744 457 q 588 653 661 611 q 424 696 514 696 q 260 653 333 696 q 144 534 186 611 q 103 360 103 457 q 144 185 103 263 q 260 65 186 108 q 424 22 333 22 m 508 864 q 463 874 482 864 q 414 904 443 883 q 374 930 392 921 q 339 939 357 939 q 285 920 306 939 q 264 867 265 901 l 238 867 q 267 938 239 911 q 339 965 294 965 q 384 956 364 965 q 433 925 404 946 q 473 899 456 908 q 508 890 490 890 q 562 908 542 890 q 583 960 582 926 l 610 960 q 581 890 608 917 q 508 864 553 864 m 538 1139 l 593 1139 l 403 1000 l 361 1000 l 538 1139 z "},"ṏ":{"ha":847,"x_min":75,"x_max":772,"o":"m 424 -4 q 245 42 325 -4 q 120 172 165 89 q 75 360 75 256 q 120 547 75 464 q 245 676 165 629 q 424 722 325 722 q 602 676 522 722 q 727 547 682 629 q 772 360 772 464 q 727 172 772 256 q 602 42 682 89 q 424 -4 522 -4 m 424 22 q 588 65 514 22 q 703 185 661 108 q 744 360 744 263 q 703 534 744 457 q 588 653 661 611 q 424 696 514 696 q 260 653 333 696 q 144 534 186 611 q 103 360 103 457 q 144 185 103 263 q 260 65 186 108 q 424 22 333 22 m 508 864 q 463 874 482 864 q 414 904 443 883 q 374 930 392 921 q 339 939 357 939 q 285 920 306 939 q 264 867 265 901 l 238 867 q 267 938 239 911 q 339 965 294 965 q 384 956 364 965 q 433 925 404 946 q 473 899 456 908 q 508 890 490 890 q 562 908 542 890 q 583 960 582 926 l 610 960 q 581 890 608 917 q 508 864 553 864 m 310 1047 q 284 1058 294 1047 q 274 1083 274 1069 q 284 1109 274 1099 q 310 1119 294 1119 q 335 1109 324 1119 q 346 1083 346 1099 q 335 1058 346 1069 q 310 1047 324 1047 m 538 1047 q 512 1058 522 1047 q 501 1083 501 1069 q 512 1109 501 1099 q 538 1119 522 1119 q 563 1109 551 1119 q 574 1083 574 1099 q 563 1058 574 1069 q 538 1047 551 1047 z "},"ȭ":{"ha":847,"x_min":75,"x_max":772,"o":"m 424 -4 q 245 42 325 -4 q 120 172 165 89 q 75 360 75 256 q 120 547 75 464 q 245 676 165 629 q 424 722 325 722 q 602 676 522 722 q 727 547 682 629 q 772 360 772 464 q 727 172 772 256 q 602 42 682 89 q 424 -4 522 -4 m 424 22 q 588 65 514 22 q 703 185 661 108 q 744 360 744 263 q 703 534 744 457 q 588 653 661 611 q 424 696 514 696 q 260 653 333 696 q 144 534 186 611 q 103 360 103 457 q 144 185 103 263 q 260 65 186 108 q 424 22 333 22 m 508 864 q 463 874 482 864 q 414 904 443 883 q 374 930 392 921 q 339 939 357 939 q 285 920 306 939 q 264 867 265 901 l 238 867 q 267 938 239 911 q 339 965 294 965 q 384 956 364 965 q 433 925 404 946 q 473 899 456 908 q 508 890 490 890 q 562 908 542 890 q 583 960 582 926 l 610 960 q 581 890 608 917 q 508 864 553 864 m 235 1069 l 613 1069 l 613 1042 l 235 1042 l 235 1069 z "},"œ":{"ha":1486,"x_min":75,"x_max":1411,"o":"m 1411 360 l 772 360 q 815 185 772 263 q 934 65 858 108 q 1104 22 1010 22 q 1242 51 1178 22 q 1349 133 1307 79 l 1368 114 q 1251 26 1321 57 q 1104 -4 1182 -4 q 881 69 975 -4 q 758 263 788 142 q 640 69 731 142 q 424 -4 549 -4 q 245 42 325 -4 q 120 172 165 89 q 75 360 75 256 q 120 547 75 464 q 245 676 165 629 q 424 722 325 722 q 638 650 547 722 q 758 458 729 578 q 872 650 786 578 q 1078 722 958 722 q 1247 676 1171 722 q 1367 550 1324 631 q 1411 367 1411 469 l 1411 360 m 424 22 q 588 65 514 22 q 703 185 661 108 q 744 360 744 263 q 703 534 744 457 q 588 653 661 611 q 424 696 514 696 q 260 653 333 696 q 144 534 186 611 q 103 360 103 457 q 144 185 103 263 q 260 65 186 108 q 424 22 333 22 m 1078 696 q 926 656 994 696 q 817 544 858 615 q 772 386 776 474 l 1385 386 q 1339 544 1381 474 q 1229 656 1297 615 q 1078 696 1161 696 z "}}}
